<?xml version="1.0" encoding="utf-8"?>
<!-- Generator: Adobe Illustrator 27.4.0, SVG Export Plug-In . SVG Version: 6.00 Build 0)  -->
<svg version="1.1" id="Layer_1" xmlns="http://www.w3.org/2000/svg" xmlns:xlink="http://www.w3.org/1999/xlink" x="0px" y="0px"
	 viewBox="0 0 4000 4000" style="enable-background:new 0 0 4000 4000;" xml:space="preserve">
<style type="text/css">
	.st0{display:none;}
	.st1{display:inline;fill:#AB75EF;}
	.st2{fill:#FFB200;}
	.st3{fill:#FF9100;}
	.st4{fill:none;stroke:#293856;stroke-width:28.5196;stroke-linecap:round;stroke-miterlimit:10;}
	.st5{fill:#D66B09;}
	.st6{fill:#371A45;}
	.st7{fill:#FFD766;}
	.st8{fill:#FFAA39;}
	.st9{fill:#FFCF6E;}
	.st10{fill:#FFEC90;}
	.st11{opacity:0.6;}
	.st12{fill:#FFFFFF;}
	.st13{opacity:0.3;}
	.st14{fill:#4788ED;}
	.st15{opacity:0.35;}
	.st16{fill:#111A28;}
	.st17{opacity:0.5;}
</style>
<g>
	<g class="st0">
		<rect class="st1" width="4000" height="4000"/>
	</g>
	<g>
		<g>
			<g>
				<g>
					<path class="st2" d="M1364.5,2517.6c-8,30.9-14,61.8-18,92.6c138.2,77.1,401.4,172.9,709.8,252.8
						c308.4,79.9,585.1,123.9,743.3,123.7c11.5-28.9,21.3-58.8,29.3-89.7c0.4-1.5,0.7-2.9,1.1-4.3c3.5-13.6,6.5-27.2,9.2-40.9
						c6.3-31.9,10.4-63.7,12.5-95.4c0.1-1.3,0.2-2.6,0.2-3.9c2.9-47.1,1.3-93.7-4.5-139.5c-11-87-37-170.8-76-247.7
						c-94.8-186.8-266.2-333.6-485-390.2c-217-56.2-436.3-12.4-609.2,102.8c-71,47.3-134.1,106.6-186.1,175.9
						c-27.8,37.1-52.4,77-73.2,119.5c-1.7,3.4-3.4,6.8-5,10.3c-13.5,28.7-25.4,58.6-35.4,89.5c-3.7,11.5-7.2,23.1-10.4,34.8
						C1366.2,2511.1,1365.3,2514.3,1364.5,2517.6z"/>
				</g>
				<g>
					<path class="st3" d="M1366,2903.2c8,29.9,17.9,59.2,29.5,87.8c16.2,40.1,35.9,78.8,58.8,115.5
						c98.9,159.3,256.9,282.2,452.7,332.9c196.3,50.8,394.5,19.8,558.5-71.8c36-20.1,70.4-43.2,102.7-68.9
						c25.4-20.2,49.4-42,72.1-65.3c-190.8-14.4-414.9-52-650.6-113.1C1753.9,3059.2,1539.7,2983.3,1366,2903.2z"/>
				</g>
				<g>
					<path class="st3" d="M1346.5,2610.2c138.2,77.1,401.4,172.9,709.8,252.8c308.4,79.9,585.1,123.9,743.3,123.7
						c11.4-28.9,21.2-58.9,29.3-89.7c0.4-1.5,0.7-2.9,1.1-4.3c3.4-13.6,6.5-27.2,9.1-40.9c6.3-31.9,10.4-63.7,12.5-95.4
						c0.1-1.3,0.2-2.6,0.2-3.8c2.9-47.1,1.3-93.7-4.5-139.5c-11-87-37-170.8-76-247.7c-76.7-151.1-203.4-275.9-364.9-348.1
						c47.8,51.7,88.2,109.8,119.9,172.3c39.1,77,65.1,160.7,76,247.7c5.8,45.7,7.4,92.4,4.5,139.4c-0.1,1.3-0.2,2.6-0.2,3.9
						c-0.1,1.7-0.3,3.8-0.6,6.3c-15.3,134.7-143.6,212.7-278.6,224.2c-257.5,22-858.7-177.3-987.6-225
						C1335.3,2607.1,1349.2,2589.1,1346.5,2610.2z"/>
				</g>
				<g>
					<path class="st4" d="M2610.5,2374.2"/>
				</g>
				<g>
					<path class="st5" d="M1989.7,3120.3c-235.7-61.1-449.9-137-623.7-217.1c8,29.9,17.9,59.2,29.5,87.8
						c134.5,66.1,343.9,140.3,583.6,202.4c229.6,59.5,440.2,95.8,589.1,105.3c25.4-20.2,49.4-42,72.1-65.3
						C2449.5,3219,2225.4,3181.4,1989.7,3120.3z"/>
				</g>
				<g>
					<path class="st5" d="M1367,2507.9c-0.9,3.2-1.8,6.4-2.6,9.7c-8,30.9-14,61.8-18,92.6c138.2,77.1,401.4,172.9,709.8,252.8
						c308.4,79.9,585.1,123.9,743.3,123.7c11.5-28.9,21.3-58.8,29.3-89.7c0.4-1.5,0.7-2.9,1.1-4.3
						c-148.5,9.1-429.4-31.2-743.8-112.7C1759.4,2695.3,1485.8,2589.3,1367,2507.9z"/>
				</g>
				<g>
					<g>
						<path class="st5" d="M2853,2637.9l-11.3-49.7c-100.7,22.8-381-15.6-681.6-93.5c-358.7-92.9-598.5-200.1-650-257.8l-38.1,33.9
							c68.2,76.5,339.5,186.3,675.3,273.3C2459.9,2625,2743.5,2662.7,2853,2637.9z"/>
					</g>
				</g>
				<g>
					<g>
						<path class="st5" d="M2772,2390.8l-1.2-51c-117.2,2.8-327-31-547.7-88.2c-231.2-59.9-435.2-134.8-532.4-195.4l-27,43.3
							c101.3,63.2,310.7,140.4,546.6,201.5C2435.2,2359.3,2650.4,2393.7,2772,2390.8z"/>
					</g>
				</g>
				<g>
					<g>
						<path class="st5" d="M2856.3,2777.6l-8.9-50.2c-116.5,20.7-406.3-20.2-721.2-101.8c-330.3-85.6-614.3-196.9-690.6-270.7
							l-35.5,36.7c83.3,80.5,369.9,194.4,713.3,283.4C2439.8,2759.6,2731.4,2799.8,2856.3,2777.6z"/>
					</g>
				</g>
				<g>
					<g>
						<path class="st5" d="M2466.8,3380.3l-1.3-12.6l3.9-12.2l-2.5-0.8l-2.7,0.3c-102.1,10.2-305-18.7-517-73.7
							c-213.2-55.2-399.3-126.2-485.8-185.3l-14.4,21c88.7,60.6,277.9,133,493.8,188.9C2158.8,3362.5,2360.3,3390.9,2466.8,3380.3z"
							/>
					</g>
				</g>
				<g>
					<path class="st6" d="M2095.9,3481c-64.5,0-129.4-8.1-193.4-24.6c-269.1-69.7-481.2-279.9-553.5-548.6l-9.7-36.1l33.9,15.6
						c179,82.5,393.7,157.2,620.7,216c227.1,58.8,451,97.8,647.6,112.6l37.3,2.8l-26,26.8C2505.2,3397.9,2303,3481,2095.9,3481z
						 M1393.7,2934.9c77.7,239.1,273,424.2,517.7,487.6c244.7,63.4,505.3-3.5,689.3-174.8c-189.1-16.9-401-54.9-615.4-110.4
						C1770.8,3081.7,1567.2,3012,1393.7,2934.9z"/>
				</g>
				<g>
					<path class="st7" d="M922.2,2513.7c-27.8,107.3,150.4,254.3,443.8,389.6c173.7,80.1,387.9,156,623.7,217.1
						c235.8,61.1,459.9,98.7,650.6,113.1c322.2,24.3,549.3-17.8,577.1-125c25.2-97.4-119.4-227.6-365.8-352
						c-2.1,31.7-6.2,63.5-12.5,95.4c68.9,38.9,105.4,73,99.1,97.6c-6.5,25.1-56.7,37.1-138.6,37.3
						c-158.2,0.3-434.9-43.7-743.3-123.7c-308.4-79.9-571.7-175.8-709.8-252.8c-71.5-39.9-109.5-74.8-103-99.9
						c6.4-24.6,54.8-36.7,134-37.2c10-30.9,21.9-60.8,35.4-89.5C1137,2372.7,947.4,2416.2,922.2,2513.7z"/>
				</g>
				<g>
					<path class="st8" d="M2841.6,2838.9c-0.8,4.3-1.6,8.6-2.5,12.9c68.9,38.9,105.5,72.9,99.1,97.5c-6.5,25.1-56.7,37.2-138.6,37.3
						c-104.9,0.2-262.1-19.1-446-55.5c5.4,14.6,7.9,28.7,7.5,42.3c70.8,13.2,139.1,23.8,203.5,31.7c280,34.5,418.3,8.8,428.2-29.7
						C2998.7,2953,2961.8,2905.5,2841.6,2838.9z"/>
				</g>
				<g>
					<path class="st3" d="M2854.9,2799.2l-4.9,9.1c61.5,32.4,109.9,62.5,147.2,89.9C2967.6,2867.7,2920.3,2834.9,2854.9,2799.2z"/>
				</g>
				<g>
					<path class="st3" d="M2845.1,2817.3l4.9-9c-1.1-0.6-2.2-1.2-3.4-1.8L2845.1,2817.3z"/>
				</g>
				<g>
					<path class="st8" d="M2997.2,2898.2c30.9,31.7,42.6,60.7,35.6,87.7c-6.8,26.2-30.6,44.5-65.8,56.6
						c-91.8,31.7-261.1,21.7-407.4,3.6c-66.2-8.1-136.5-19.2-209.4-32.7c-10.2,18.9-27.4,35.3-51,49.4
						c107.8,20.6,211.5,35.9,307.8,45.3c343.4,33.5,481.1-16.3,494.8-69.1C3109.5,3009.7,3082.4,2960.9,2997.2,2898.2z"/>
				</g>
				<g>
					<path class="st8" d="M2004.2,3124c230.4,58.9,449.3,95.3,636.1,109.3c322.2,24.3,549.4-17.8,577.2-125.1
						c25.2-97.4-119.4-227.5-365.9-352c-0.6,9.4-1.5,18.8-2.5,28.3l9.5-18.4c143.4,74.2,309,183.6,283.2,283.1
						c-10,38.5-45.1,64.6-94.7,81.7c-116.7,40.2-312.8,31-444,18.2c-115.1-11.2-240.6-30.7-370.7-57.5
						C2173.3,3110.2,2095.9,3120.9,2004.2,3124z"/>
				</g>
				<g>
					<g>
						<path class="st9" d="M2350.3,3013.5c72.9,13.5,143.1,24.5,209.4,32.7c146.3,18.1,315.6,28.1,407.4-3.6
							c35.2-12.2,58.9-30.4,65.8-56.6c7-27-4.7-56-35.6-87.7c-37.2-27.4-85.6-57.6-147.2-89.9l-4.9,9c-1.1,7.2-2.3,14.4-3.5,21.6
							c120.2,66.6,157.1,114.1,151.3,136.6c-10,38.5-148.2,64.2-428.2,29.7c-64.4-7.9-132.7-18.6-203.5-31.7
							c-0.2,6.8-1.1,13.3-2.8,19.7C2356.5,3000.2,2353.8,3007,2350.3,3013.5z"/>
					</g>
					<g>
						<path class="st10" d="M2850,2808.3c61.5,32.4,109.9,62.5,147.2,89.9c-29.5-30.5-76.8-63.3-142.2-99L2850,2808.3z"/>
					</g>
					<g>
						<path class="st10" d="M2845.1,2817.3l-9.9,18.1c2.2,1.2,4.3,2.3,6.4,3.5C2842.8,2831.7,2844,2824.5,2845.1,2817.3z"/>
					</g>
					<g>
						<path class="st10" d="M1527.4,2778.8c147.9,59.8,323.6,116.7,508.2,164.5c107.3,27.8,213.5,51.5,314.7,70.2
							c3.5-6.5,6.2-13.2,8.1-20.3c1.7-6.4,2.6-13,2.8-19.7c-101.2-18.6-207.6-42.3-315.2-70.1c-182.8-47.4-356.8-103.7-503-162.9
							c-261.5-105.8-369.9-195.5-360-233.9c6-23,63.1-47,205.9-45.9l0.2-31l0.1-10.3c-74.8-0.6-132.3,5.2-173,17.5
							c-42,12.8-66.2,32.5-73.2,59.3C1118.4,2591.2,1338.5,2702.3,1527.4,2778.8z"/>
					</g>
				</g>
				<g>
					<g>
						<path class="st9" d="M2232.4,3091.7c130.1,26.8,255.6,46.3,370.7,57.5c131.2,12.8,327.3,22.1,444-18.2
							c49.6-17.1,84.8-43.2,94.7-81.7c25.9-99.5-139.7-208.9-283.2-283.1l-9.5,18.4c-0.7,7.3-1.6,14.6-2.6,21.9
							c1.2,0.6,2.4,1.2,3.4,1.8l4.9-9.1c65.4,35.7,112.7,68.5,142.2,99c85.2,62.7,112.3,111.5,104.8,140.8
							c-13.7,52.8-151.5,102.6-494.8,69.1c-96.3-9.4-200-24.7-307.8-45.3C2280.8,3073.9,2258.4,3083.6,2232.4,3091.7z"/>
					</g>
					<g>
						<path class="st8" d="M2854.9,2799.2l-4.9,9.1c61.5,32.4,109.9,62.5,147.2,89.9C2967.6,2867.7,2920.3,2834.9,2854.9,2799.2z"/>
					</g>
					<g>
						<path class="st10" d="M2849.1,2784.6l-9.4,18.2c2.3,1.2,4.6,2.4,6.9,3.6C2847.6,2799.3,2848.4,2792,2849.1,2784.6z"/>
					</g>
					<g>
						<path class="st10" d="M1439.4,2847.7c165.4,72,362.9,138.5,571.1,192.4c74.8,19.4,149.1,36.6,222,51.6
							c26-8.1,48.4-17.8,66.8-28.9c-90.7-17.3-184.2-38.3-278.5-62.7c-206.1-53.4-401.4-119.2-565-190.3
							c-316.4-137.5-412.7-248-399-300.7c7.6-29.2,54.8-58.7,159.4-72.3c46-5.9,103.1-8.8,172.9-7.2c3.8,0.1,7.8,0.2,11.7,0.3
							l1.2-41.2c-161.4-4.8-359.3,10.5-385.1,110C983.3,2628,1267.2,2772.8,1439.4,2847.7z"/>
					</g>
				</g>
				<g>
					<path class="st6" d="M2808.8,3257.7c-52.4,0-109.1-2.3-169.9-6.8c-198.6-15-424.7-54.2-653.7-113.6
						c-229-59.3-445.7-134.8-626.6-218.1c-317.7-146.4-483-295.8-453.5-409.8c27-104.2,207.6-155.1,508.3-143.2l26.4,1l-11.3,23.9
						c-13.3,28.3-25,57.7-34.6,87.4l-3.9,12l-12.6,0.1c-87.9,0.6-115.1,16.1-117.1,24.1c-2.1,8.3,14.9,35.7,94.6,80.2
						c141.1,78.7,411.5,175,705.7,251.2c293.3,76,575.6,123.1,737.4,123.1c0.5,0,1,0,1.5,0c91.3-0.2,119.5-15.9,121.6-24.2
						c2.1-8.1-14.2-34.7-90.7-78l-11-6.2l2.4-12.4c6-30.7,10.1-62.1,12.2-93.2l1.7-26.4l23.6,11.9
						c268.7,135.6,401.9,267.8,374.9,372C3210,3206.9,3057.7,3257.7,2808.8,3257.7z M922.2,2513.7l16.9,4.4
						c-24.2,93.2,142.2,234.7,434.2,369.3c179,82.5,393.7,157.2,620.7,216c227.1,58.8,451,97.8,647.6,112.6
						c320.6,24.2,534.7-18.8,558.9-112c21.1-81.4-103.2-200.3-333.6-320.1c-2,19.7-4.8,39.5-8.3,59c74.1,43.4,104.8,78.8,96.5,111
						c-8.9,34.2-58.3,50.2-155.5,50.4c-0.5,0-1.1,0-1.6,0c-167,0-445.7-46.4-746.1-124.2c-301.4-78.1-568.3-173.2-714-254.5
						c-84.9-47.4-120.3-85.4-111.4-119.5c8.3-32.1,52.4-48.2,138.2-50.2c6.4-18.8,13.6-37.3,21.4-55.6
						c-259.6-7.2-426,36.4-447.1,117.9L922.2,2513.7z"/>
				</g>
				<g class="st11">
					<path class="st12" d="M1346.7,2612.7c16.1,9,33.8,18.2,53.2,27.6c3.6-20.8,8-41.7,13.4-62.4c0.9-3.2,1.7-6.4,2.6-9.6
						c3.2-11.8,6.6-23.4,10.4-34.8c10-30.9,21.9-60.8,35.4-89.5c1.6-3.5,3.3-6.9,5-10.3c20.8-42.5,45.4-82.5,73.2-119.6
						c52-69.3,115.1-128.6,186.1-175.9c172.9-115.2,392.3-159.1,609.2-102.8c144.8,37.5,269,114.6,363.8,216.6
						c-99.2-130.6-241.3-230.1-412.5-274.4c-216.9-56.2-436.3-12.4-609.2,102.8c-71,47.3-134.2,106.6-186.1,175.9
						c-27.8,37-52.4,77-73.2,119.5c-1.7,3.4-3.4,6.9-5,10.3c-13.6,28.7-25.4,58.5-35.4,89.5c-3.7,11.5-7.2,23.1-10.4,34.8
						c-0.9,3.2-1.8,6.4-2.6,9.7C1356.7,2551,1350.8,2581.9,1346.7,2612.7z"/>
				</g>
				<g>
					<path class="st6" d="M2798,3004.2c-167,0-445.7-46.4-746.1-124.2c-301.4-78.1-568.3-173.2-714-254.5l-10.4-5.8l1.5-11.8
						c4.1-31.6,10.3-63.5,18.4-94.7l0,0c4-15.3,8.4-30.6,13.3-45.5c10.1-31.1,22.3-61.9,36.2-91.5
						c158.3-335.4,534.2-511.2,893.7-418c359.6,93.2,602.8,429.4,578.3,799.4c-2.2,32.6-6.5,65.5-12.8,97.7
						c-3,15.3-6.5,30.9-10.5,46.2c-8.1,31.2-18.2,62.1-29.9,91.8l-4.4,11l-11.9,0C2799.1,3004.2,2798.6,3004.2,2798,3004.2z
						 M1365.5,2600.6c143.7,77.6,408.1,171.1,695.2,245.4c287.1,74.4,563.6,121.1,727,123c9.4-24.9,17.6-50.6,24.3-76.5
						c3.8-14.6,7.2-29.5,10-44.1c6-30.7,10.1-62.1,12.2-93.2c23.4-353.3-208.9-674.2-552.2-763.2c-343.3-89-702.2,78.9-853.3,399.1
						c-13.3,28.2-25,57.7-34.6,87.4c-4.6,14.2-8.9,28.8-12.7,43.5l0,0C1374.7,2547.9,1369.3,2574.3,1365.5,2600.6z M1364.5,2517.6
						L1364.5,2517.6L1364.5,2517.6z"/>
				</g>
			</g>
		</g>
		<g>
			<g>
				<path class="st12" d="M2612.5,2109c-68.3,33.4-195,53.4-195,53.4l-195.4-640l-88.6-146.8l115.7-97.7c0,0,116.7-23.2,189.3-22
					c0.1,0,0.1,0,0.1,0c21.7,0.4,39.4,2.9,48.9,9c38,24.1,103.4,200.7,183.8,450.9c7,21.7,14,43.9,21.2,66.6
					C2782.5,2067.3,2680.9,2075.7,2612.5,2109z"/>
			</g>
			<g class="st13">
				<path class="st6" d="M2612.5,2109c-68.3,33.4-195,53.4-195,53.4l-195.4-640l-88.6-146.8l115.7-97.7c0,0,116.7-23.2,189.3-22
					c-5.2,1.1-97.8,23.7-32.2,144c67.5,123.8,132.5,282.6,142.5,343.2s22.5,154.3,38.8,196.8s111.2,27.5,85-191.2
					c-1.4-11.8-1.8-22.8-1.2-32.9c7,21.7,14,43.9,21.2,66.6C2782.5,2067.3,2680.9,2075.7,2612.5,2109z"/>
			</g>
			<g>
				<path class="st6" d="M2417.5,2177.3c-6.5,0-12.4-4.2-14.3-10.6l-194.8-638.2l-87.7-145.2c-4.3-7.1-2-16.3,5.1-20.6
					c7.1-4.3,16.3-2,20.6,5.1l88.7,146.8c0.6,1.1,1.1,2.2,1.5,3.4l191.5,627.4c33.6-6,124.9-23.9,177.9-49.8
					c7.1-3.4,14.5-6.6,21.6-9.7c62.8-27,127.7-55,50.6-298.9c-37.4-118.5-151.3-479.2-198.8-509.4c-24.9-15.9-148-0.7-227.4,15.1
					c-8.2,1.6-16-3.7-17.6-11.8c-1.6-8.1,3.7-16,11.8-17.6c33.9-6.8,205.2-39,249.3-10.9c40.2,25.6,101.4,177.9,211.2,525.6
					c37.8,119.6,45.8,200.4,25.2,254.2c-19,49.6-58.1,66.4-92.6,81.3c-7.2,3.1-13.9,6-20.4,9.1c-69.6,33.9-194,53.8-199.2,54.7
					C2419.1,2177.3,2418.3,2177.3,2417.5,2177.3z"/>
			</g>
			<g>
				<polyline class="st12" points="1316.3,1607.3 1236.3,1471.1 1181.3,1479.8 1067.5,1707.3 1161.3,1849.8 1282.4,1826.1 
					1348.8,1643.6 				"/>
			</g>
			<g>
				<path class="st6" d="M1161.3,1864.8c-5,0-9.7-2.5-12.5-6.8l-93.8-142.5c-2.9-4.5-3.3-10.2-0.9-15l113.8-227.5
					c2.2-4.3,6.3-7.3,11.1-8.1l55-8.8c6.1-1,12.2,1.9,15.3,7.2l80,136.2c4.2,7.1,1.8,16.3-5.3,20.5c-7.1,4.2-16.3,1.8-20.5-5.3
					l-74.8-127.4l-37.3,5.9l-106.4,212.9l83.5,126.9l103-20.2l63.5-174.5c2.8-7.8,11.4-11.8,19.2-9c7.8,2.8,11.8,11.4,9,19.2
					l-66.4,182.5c-1.8,4.9-6.1,8.6-11.2,9.6l-121.2,23.8C1163.2,1864.7,1162.2,1864.8,1161.3,1864.8z"/>
			</g>
			<g>
				<path class="st12" d="M2520,2122.3c-72.5,325-465.5,207.5-465.5,207.5s-133.7,107.5-228.7,130.8c-29.6,7.2-71.6-4.4-115.3-24
					c-96.4-43.1-201.4-124.3-201.4-124.3s-57.9-73.7-30.5-131.2l-196-453.8c0,0-3.8-63.8,38.8-97.5l-5-22.5l257.6,8.8
					c0,0,99.6-137.5,207.2-168.8c52.3-15.2,154-42.7,244.6-66.8c95.8-25.6,179.3-47.5,179.3-47.5s100-0.7,163.8,94.3
					S2592.5,1797.3,2520,2122.3z"/>
			</g>
			<g class="st13">
				<path class="st6" d="M2520,2122.3c-72.5,325-465.5,207.5-465.5,207.5s-133.7,107.5-228.7,130.8c-29.6,7.2-71.6-4.4-115.3-24
					c-34.2-39.8-54.2-69.9-54.2-69.9s88.3,15.3,227.9-59.4c139.5-74.7,136.7-118.4,226.2-101.7c89.5,16.7,263.8,41.7,327.1-133.3
					c63.3-174.9,10-420-68.8-558.4c-78.8-138.3-355.8-15.4-355.8-15.4l12.7-118c95.8-25.6,179.3-47.5,179.3-47.5s100-0.7,163.8,94.3
					S2592.5,1797.3,2520,2122.3z"/>
			</g>
			<g>
				<path class="st6" d="M1806.7,2477.8c-105,0-285.1-136.9-306.8-153.6c-1-0.8-1.9-1.6-2.6-2.6c-2.5-3.2-59.3-76.6-35-140.5
					l-193.5-447.9c-0.7-1.6-1.1-3.3-1.2-5.1c-0.2-2.8-3.3-64.8,37.2-103.8l-3.1-13.8c-1-4.5,0.1-9.3,3.1-12.8
					c3-3.6,7.4-5.6,12.1-5.4l249.8,8.5c21.7-28.4,111.5-139.2,210.4-167.9c106.6-30.9,421.1-113.6,424.2-114.4
					c1.2-0.3,2.5-0.5,3.7-0.5c4.3,0,108.9,0.4,176.3,100.9c70.2,104.6,225.7,382.9,153.4,706.6c-19.8,88.6-64.5,153.9-132.8,194
					c-130.8,76.7-305.1,37-344,26.7c-27.7,21.6-141.8,107.7-228.4,128.9C1822.4,2477,1814.7,2477.8,1806.7,2477.8z M1519.9,2301.7
					c61.5,47.3,231,162,302.5,144.4c90.6-22.3,221.5-126.9,222.8-128c3.8-3.1,9-4.1,13.7-2.7c1.9,0.6,194.5,56.6,328-21.8
					c60.8-35.7,100.7-94.4,118.6-174.6c69.7-312.4-81-582-149.1-683.4c-54.5-81.2-136.1-87.2-149.5-87.6
					c-27.1,7.1-319.7,84.1-421.5,113.7c-101.5,29.5-198.4,161.8-199.3,163.1c-2.9,4-7.7,6.4-12.7,6.2l-238.2-8.1l0.8,3.6
					c1.2,5.6-0.8,11.4-5.3,15c-31.5,25-33.2,71.4-33.2,82.5l194.9,451.1c1.7,4,1.6,8.5-0.2,12.4
					C1471,2232.1,1512.6,2291.9,1519.9,2301.7z"/>
			</g>
			<g>
				<path class="st14" d="M1750.9,2162.3l-52.9,3.6l-219.4,15.1l-129.7,8.9l-16.4-27.7L1099.2,1769l30-43.3
					c0,0,153.4-31.7,390.1-58.3c0.2,0.3,0.4,0.7,0.6,1C1620,1823.8,1698.4,1987.9,1750.9,2162.3z"/>
			</g>
			<g>
				<path class="st12" d="M1750.9,2162.3l-52.9,3.6c-37.9-146.4-211-452-211-452l-387.8,55l30-43.3c0,0,153.4-31.7,390.1-58.3
					C1619.7,1823.1,1698.3,1987.5,1750.9,2162.3z"/>
			</g>
			<g class="st13">
				<path class="st6" d="M1750.9,2162.3l-52.9,3.6l-219.4,15.1l-129.7,8.9l-16.4-27.7c229.9-6.5,263.4-164.3,170.7-419.4l-10.6-29
					l27.3-45.6C1620,1823.8,1698.4,1987.9,1750.9,2162.3z"/>
			</g>
			<g>
				<path class="st6" d="M1698,2178.5c-5.6,0-10.6-3.7-12.1-9.4c-33.8-130.5-179.1-394-205.6-441.5l-379.3,53.8
					c-6.9,1-13.2-3.8-14.1-10.6c-1-6.8,3.8-13.2,10.6-14.1l387.8-55c5.1-0.7,10.1,1.7,12.6,6.2c7.1,12.5,174.4,308.7,212.2,455
					c1.7,6.7-2.3,13.5-9,15.2C1700.1,2178.3,1699,2178.5,1698,2178.5z"/>
			</g>
			<g>
				<path class="st6" d="M1487,1726.5c-2.5,0-4.9-0.7-7.1-2.2c-5.7-3.9-7.1-11.7-3.2-17.4l32.3-46.7c3.9-5.7,11.7-7.1,17.4-3.2
					c5.7,3.9,7.1,11.7,3.2,17.4l-32.3,46.7C1494.8,1724.6,1490.9,1726.5,1487,1726.5z"/>
			</g>
			<g>
				<path class="st6" d="M1348.8,2205c-5.3,0-10.2-2.8-12.9-7.3l-249.6-421.1c-3-5-2.8-11.4,0.6-16.2l30-43.3
					c2.2-3.2,5.5-5.4,9.3-6.1c1.5-0.3,156.8-32.1,391.4-58.6c5.7-0.6,11.2,2,14.3,6.8c103.6,160.7,182.2,328.5,233.4,498.8
					c1.3,4.4,0.6,9.1-2,12.9s-6.8,6.1-11.3,6.4l-402,27.7C1349.5,2205,1349.2,2205,1348.8,2205z M1117,1769.6l240,404.8l374-25.8
					c-49.6-158.7-123.3-315.1-219.4-465.4c-202.7,23.2-343.8,50-373.6,55.9L1117,1769.6z"/>
			</g>
			<g>
				<path class="st12" d="M2213.5,2009.1c0,0,15.7-70.1,4.9-189.2c-10.8-119-79.2-111-163.9-116c-84.7-5-305.3-18.3-346.2,0
					c-40.9,18.3-74.1,83.3-74.1,83.3s6.2,120,44.8,230l18.2,38.1c7,14.6,21.7,23.8,37.9,23.8c27.3-0.1,72.5-1.9,122.2-10.9"/>
			</g>
			<g>
				<path class="st6" d="M1735,2094.2c-21.8,0-41.9-12.7-51.3-32.3l-18.2-38.1c-0.2-0.5-0.4-1-0.6-1.5
					c-38.8-110.8-45.4-229.2-45.6-234.2c-0.1-2.6,0.4-5.3,1.6-7.6c1.5-2.8,36.2-69.9,81.3-90.2c38.5-17.2,198.3-10.4,349.6-1.5
					l3.6,0.2c7.3,0.4,14.4,0.8,21.4,1.1c74.8,3.5,145.5,6.8,156.5,128.5c10.9,120-4.6,190.8-5.2,193.8l-29.3-6.6l14.6,3.3l-14.6-3.3
					c0.2-0.7,15-69.7,4.6-184.6c-8.7-95.7-53.6-97.8-128-101.2c-7.1-0.3-14.4-0.7-21.8-1.1l-3.6-0.2c-73.8-4.4-298.6-17.6-335.5-1.1
					c-27.6,12.4-54.6,53.9-65,72.9c1.5,21.6,10.2,125.8,43.4,221l17.9,37.3c4.4,9.3,14,15.3,24.3,15.3c0,0,0,0,0.1,0
					c28.2-0.1,71.8-2,119.5-10.7l5.4,29.5c-49.9,9.1-95.5,11.1-124.8,11.2C1735.1,2094.2,1735.1,2094.2,1735,2094.2z"/>
			</g>
			<g>
				<path class="st6" d="M1739.9,2152.2c20-21.1,40.6-40.2,62.2-58.9c21.6-18.5,44.1-36.1,67.6-52.4c23.6-16.2,48.3-31.1,74.5-43.6
					c26.2-12.4,54-22.5,83.6-27.3c14.8-2.4,30-3.4,45.4-2.6c14.5,0.9,28.7,2.4,42.9,4.2c28.4,3.7,56.5,9.3,84,17.4
					c27.5,8.1,54.4,18.5,79.8,32.2c12.7,6.8,25,14.3,36.5,22.9c11.6,8.5,22.6,17.8,32.2,28.3c-51.4-24.2-103.3-40-156.6-52.6
					c-26.6-6.2-53.5-11.7-80.5-16.2c-13.5-2.2-27.2-4.1-40.5-5.4c-12.5-1.2-25.5-0.5-38.3,1.5c-25.7,4.1-51.1,13.2-75.5,24.7
					c-24.4,11.6-47.8,25.7-70.3,41.2c-22.5,15.5-44.2,32.5-65.1,50.4c-20.8,17.9-41.2,37-59.7,56.5l-0.3,0.3
					c-5.7,6-15.2,6.3-21.2,0.6C1734.4,2167.7,1734.2,2158.2,1739.9,2152.2L1739.9,2152.2z"/>
			</g>
			<g>
				<path class="st6" d="M1806.7,2477.8c-105,0-285.1-136.9-306.8-153.6c-1-0.8-1.9-1.6-2.6-2.6c-2.6-3.3-63.2-81.7-32.3-147
					c3.6-7.5,12.5-10.7,20-7.1c7.5,3.6,10.7,12.5,7.1,20c-21.2,44.5,20.5,104.4,27.7,114.2c61.5,47.3,231,162,302.5,144.4
					c90.7-22.3,221.5-126.9,222.8-128c3.8-3.1,9-4.1,13.7-2.7c1.9,0.6,194.5,56.6,328-21.8c60.8-35.7,100.7-94.4,118.6-174.6
					c69.7-312.4-81-582-149.1-683.4c-58.6-87.3-150.1-87.7-151.2-87.7c0,0-0.1,0-0.1,0c-8.2,0-14.9-6.6-15-14.9
					c-0.1-8.3,6.6-15,14.9-15.1c4.3,0,108.9,0.4,176.3,100.9c70.2,104.6,225.7,382.9,153.4,706.6c-19.8,88.6-64.5,153.9-132.8,194
					c-130.8,76.7-305.1,37-344,26.7c-27.7,21.6-141.8,107.7-228.4,128.9C1822.4,2477,1814.7,2477.8,1806.7,2477.8z"/>
			</g>
			<g>
				<path class="st12" d="M2543.2,1801.2c0.6,9.9-5.1,19.1-14,23.2c-24.7,11.4-80.3,35.1-164.6,59.4c-50,14.4-110,28.9-179.7,41.4
					c-12.8,2.2-25.2-5.9-28-18.6c-3.6-16.1-5.3-41,3.7-74.5c2.4-8.8,9.3-15.7,18.3-17.6c35.4-7.8,135-32.5,251.9-88.3
					c19.8-9.4,40.2-19.8,60.9-31.2c13.4-7.4,30.3-0.8,34.8,13.8C2533.1,1730.1,2540.9,1762.3,2543.2,1801.2z"/>
			</g>
			<g>
				<path class="st6" d="M2180.5,1940.5c-18.1,0-34.2-12.4-38.3-30.7c-3.8-16.7-6.1-44.4,3.9-81.6c3.9-14.4,15.2-25.2,29.6-28.4
					c36.6-8,167-40.1,308.8-118c10.4-5.7,22.7-6.5,33.7-2c10.9,4.4,19.2,13.3,22.7,24.5c6.6,21.2,15,55,17.3,96
					c0.9,16.1-8,30.8-22.7,37.7c-42.2,19.5-160.5,68.5-348,101.9C2185.1,1940.3,2182.8,1940.5,2180.5,1940.5z M2503.4,1707
					c-1.6,0-3.2,0.4-4.6,1.2c-141.4,77.7-268.7,110.5-316.9,121l0,0c-3.4,0.7-6.1,3.4-7,6.8c-8.4,31.3-6.6,53.9-3.6,67.3
					c1.1,4.9,5.8,8,10.7,7.1c184-32.8,299.6-80.6,340.7-99.6c3.4-1.6,5.6-5.1,5.4-8.7c-2.2-38-9.9-69.2-16-88.8
					c-1.1-3.5-3.7-5-5.2-5.6C2505.8,1707.2,2504.6,1707,2503.4,1707z M2178.8,1814.5L2178.8,1814.5L2178.8,1814.5z"/>
			</g>
			<g>
				<path class="st12" d="M2054.5,1447.3c0,0-56.5,119.7-119.8,210.4c-16,23-38.7,40.4-64.8,50.6c-50.8,19.7-138,52.2-171.9,56.5
					c-49.2,6.2-61.7-35-101.7-18.8s9.4,70.6,9.4,70.6s-25,28.1-65,47.5s-58.1,106.9,45.6,154.4s332.5,0,396.2-32.5
					s246.7-117.1,318.3-297.1"/>
			</g>
			<g>
				<path class="st6" d="M2068.1,1453.7c-25.6,53.1-53.2,104.5-83.7,154.9c-7.6,12.6-15.5,25-23.6,37.3c-4,6.2-8.3,12.2-12.4,18.4
					c-4.3,6.3-9.5,12.9-14.9,18.7c-11,11.8-23.8,21.8-37.8,29.7c-6.9,3.9-14.5,7.3-21.7,10.1l-20.5,7.9
					c-27.3,10.4-54.8,20.5-82.7,29.8c-14,4.6-28,9.1-42.5,13.1c-7.3,2-14.6,3.8-22.6,5.2l-6.1,1l-6.5,0.5c-4.3,0.5-8.7,0-13.1-0.1
					c-8.8-1-17.5-3.2-25.4-6.4c-7.8-3.2-14.6-7.1-20.7-10.1c-6.1-3.1-11.3-5.3-15.8-5.9c-4.6-0.7-9-0.3-14.2,1.7
					c-5.3,1.7-7.2,3.7-7.7,5c-0.8,1.3-0.8,5.6,1,10.7c3.4,10.2,11.6,22.2,19.6,31.5l0.3,0.3c5,5.7,4.8,14.2-0.2,19.7l0,0
					c-4.9,5.3-9.2,9.3-13.9,13.6c-4.7,4.2-9.5,8.1-14.5,11.9c-10,7.6-20.5,14.5-31.6,20.5c-2.7,1.6-5.6,2.9-8.4,4.4
					c-1.7,0.8-2.1,1.1-3,1.6c-0.9,0.4-1.6,1.1-2.5,1.6c-3.3,2.3-6.3,5.5-8.9,9.1c-5.2,7.3-8.5,16.3-9.6,25.7
					c-2.3,18.9,4.9,38.5,18.1,54c13.2,15.7,31.8,27.7,51.7,36.6c19.5,8.5,41.7,12.9,64.1,15.5c22.5,2.4,45.5,2.9,68.5,2.1
					c46.1-1.7,92.3-7.8,137.8-17.1c22.7-4.7,45.3-10.2,67.2-16.9c10.9-3.4,21.8-7,32-11.3c2.5-1.1,5.1-2.1,7.5-3.3
					c2.4-1.1,4.8-2.3,7.5-3.7l15.8-8c20.9-10.6,41.5-21.4,61.4-33.3c5.1-2.9,10-5.9,14.9-9c4.9-3.1,9.9-6,14.7-9.2
					c9.5-6.6,19.3-12.8,28.4-19.9l13.8-10.4c4.5-3.6,8.9-7.4,13.3-11c4.4-3.7,9-7.2,13.3-11c4.3-3.8,8.6-7.6,13-11.3
					c8.9-7.2,17-15.4,25.7-22.9c4.4-3.7,8.3-7.9,12.4-11.9l12.2-12.2c32.1-33.1,59.8-70.5,83.1-112.1c-11.7,46.2-34.3,90-63.5,128.6
					l-11.4,14.2c-3.8,4.7-7.5,9.6-11.7,13.9c-4,4.5-8.2,8.9-12.4,13.3c-2.1,2.2-4.1,4.5-6.3,6.6l-6.7,6.1
					c-8.9,8.3-17.9,16.3-27.6,23.6c-4.8,3.7-9.5,7.4-14.4,11l-14.8,10.4c-39.4,27.7-81.2,51.8-123.7,73.1l-15.8,8
					c-2.5,1.3-5.4,2.7-8.4,4.1c-2.9,1.4-5.8,2.5-8.7,3.8c-11.6,4.8-23.1,8.6-34.7,12.2c-23.2,7.1-46.5,12.8-70,17.6
					c-47,9.6-94.6,15.9-142.8,17.7c-24.1,0.8-48.4,0.3-72.8-2.3c-24.4-2.9-49-7.5-72.9-17.9c-23-10.3-45.2-24.2-62.6-44.8
					c-8.7-10.2-15.7-22.2-20.3-35.2c-2.2-6.6-3.8-13.4-4.6-20.4c-0.8-7-0.8-14,0-21.1c1.6-14,6.5-27.9,15-39.8
					c4.3-6,9.5-11.5,15.8-16c1.6-1.1,3.2-2.3,4.9-3.2l4.8-2.6c2.4-1.3,4.9-2.4,7.3-3.8c9.6-5.3,18.9-11.3,27.7-18
					c4.4-3.4,8.7-6.9,12.8-10.5c4-3.6,8.3-7.7,11.4-11.1l0,0l0.1,20c-5.7-6.5-10.2-12.5-14.6-19.4c-4.3-6.9-8.4-14.2-11.3-22.9
					c-1.4-4.4-2.6-9.1-2.9-14.5c-0.3-5.3,0.3-11.5,2.9-17.4c2.5-6,6.9-11.1,11.5-14.5c2.3-1.7,4.7-3.2,7-4.3l3.5-1.6l3.3-1.1
					c8.3-3.3,18.8-4.6,28.6-3.1c9.8,1.5,18.1,5.4,25,8.8c6.9,3.5,12.8,6.8,18.5,9.1c5.6,2.3,11.1,3.6,16.8,4.3c2.9,0,5.7,0.5,8.7,0
					l4.4-0.3l4.7-0.7c6.4-1.1,13.1-2.8,19.9-4.6c13.6-3.7,27.2-8,40.9-12.6c27.3-9.1,54.4-19.1,81.5-29.4l20.3-7.8
					c6.4-2.4,12.1-5.1,17.8-8.3c11.4-6.4,21.7-14.5,30.6-24c4.5-4.8,8.3-9.7,12.2-15.4c4-5.9,8.1-11.8,12-17.8
					c7.9-12,15.6-24.1,23-36.4c29.8-49.2,57.2-100.4,82.2-152.1l0.1-0.3c3.6-7.5,12.6-10.6,20-7
					C2068.6,1437.3,2071.7,1446.3,2068.1,1453.7L2068.1,1453.7z"/>
			</g>
			<g>
				<path class="st6" d="M1989.4,1995.1c-0.7,0-1.5-0.1-2.2-0.2c-6.8-1.2-11.3-7.7-10.1-14.5c28.7-160-82.5-280.2-83.6-281.4
					c-4.7-5-4.5-12.9,0.5-17.7c5-4.7,12.9-4.5,17.7,0.5c5,5.3,121,130.7,90,302.9C2000.6,1990.9,1995.3,1995.1,1989.4,1995.1z"/>
			</g>
			<g>
				<g>
					<path class="st12" d="M2368.8,1012.3c0,281.6-228.3,510-510,510c-78.4,0-152.7-17.7-219.1-49.3
						c-172-82-290.9-257.4-290.9-460.7c0-69,13.7-134.6,38.5-194.6c76.4-185.1,258.7-315.3,471.4-315.3
						C2140.4,502.4,2368.8,730.7,2368.8,1012.3z"/>
				</g>
				<g class="st13">
					<path class="st6" d="M2368.8,1012.3c0,281.6-228.3,510-510,510c-56.2,0-110.3-9.1-160.8-26c19.5,2.3,39.5,3.5,59.7,3.5
						c281.6,0,510-228.4,510-510c0-225.2-146.1-416.4-348.6-483.9C2172.3,535.7,2368.8,751.1,2368.8,1012.3z"/>
				</g>
				<g>
					<path class="st12" d="M1560.9,1405.7c-8.6,2.9-19.4,7-32,9.8c-34.1,7.3-81.5,3.5-135.9-67.1c-6.4-8.2-12.9-17.5-19.5-27.7
						c-83.3-129.4-12.8-199.4-12.8-199.4l55.3,7.6c0,0,95,68.4,115.3,91.8C1551.4,1244.2,1595.9,1394,1560.9,1405.7z"/>
				</g>
				<g>
					<path class="st6" d="M1505.3,1433c-39.4,0-90.3-19.9-144.6-104.2c-88.9-138-14-214.9-10.8-218.1c5.9-5.8,15.4-5.8,21.2,0.1
						c5.8,5.9,5.8,15.3,0,21.1c-2.6,2.7-60.2,64.2,14.8,180.6c72.6,112.7,130,92.8,164.2,80.9c1.9-0.7,3.7-1.3,5.4-1.9
						c3.5-4.3,6.7-28.1-5.1-77.5c-10.2-42.6-24.6-76.4-30.7-83.5c-15.7-18.1-86.6-70.7-112.7-89.4c-6.7-4.8-8.3-14.2-3.4-20.9
						c4.8-6.7,14.2-8.2,20.9-3.4c9.9,7.1,97,70.1,117.8,94.2c20.2,23.4,56.4,138.3,43.7,184.6c-4.4,15.9-13.6,22-20.6,24.3
						c-1.8,0.6-3.6,1.2-5.6,1.9C1546.6,1426.5,1527.9,1433,1505.3,1433z"/>
				</g>
				<g>
					<path class="st6" d="M2213.5,1090.1c-53,333.5-349,439.8-573.8,382.9c-172-82-290.9-257.4-290.9-460.7
						c0-69,13.7-134.6,38.5-194.6c202.8-275.3,655.2-158.6,746.1,23.6L2213.5,1090.1z"/>
				</g>
				<g class="st15">
					<path class="st16" d="M2213.5,1090.1c-53,333.5-349,439.8-573.8,382.9c-82.7-39.3-153-100.4-203.9-175.7
						c14,8.4,28.3,16.1,43.1,23.2c66.4,31.6,140.6,49.3,219.1,49.3c230.7,0,425.7-153.3,488.6-363.5L2213.5,1090.1z"/>
				</g>
				<g>
					<path class="st6" d="M1757.8,1495c-40.3,0-80.6-4.9-119.9-14.8c-0.5-0.1-0.9-0.3-1.4-0.5c-87-41.5-160.7-106.3-213-187.5
						c-53.7-83.4-82.1-180.2-82.1-279.9c0-68.4,13.2-134.8,39.1-197.5c0.2-0.6,0.5-1.1,0.9-1.6c87.7-119.1,234.9-179.1,403.9-164.6
						c160.2,13.8,306.2,91.6,355,189.3c0.2,0.3,0.3,0.7,0.4,1.1l80,248.8c0.4,1.1,0.5,2.3,0.3,3.5c-22.7,142.8-91.7,255.9-199.6,327
						C1944.8,1468.6,1851.7,1495,1757.8,1495z M1642.3,1465.9c126.7,31.8,265.2,9.3,370.7-60.2c103.8-68.4,170.5-177.3,192.8-315
						l-79.2-246.5c-46.1-91.6-190-167.5-342.6-180.6c-163.3-14.1-305.4,43.5-390,157.8c-25,60.6-37.6,124.8-37.6,190.9
						C1356.3,1204.8,1468.6,1382.8,1642.3,1465.9z"/>
				</g>
				<g>
					<path class="st6" d="M1858.8,1537.3c-79,0-154.8-17.1-225.5-50.8c-88.3-42.1-163-107.9-216.1-190.3
						c-54.5-84.6-83.3-182.8-83.3-283.9c0-69.4,13.4-136.8,39.7-200.4c81.4-197.2,271.9-324.6,485.3-324.6
						c289.5,0,525,235.5,525,524.9C2383.8,1301.8,2148.3,1537.3,1858.8,1537.3z M1858.8,517.4c-201.2,0-380.8,120.1-457.5,306
						c-24.8,60-37.4,123.5-37.4,188.9c0,189.9,110.8,365.4,282.4,447.1c66.6,31.8,138.1,47.9,212.6,47.9c272.9,0,495-222.1,495-495
						C2353.8,739.4,2131.7,517.4,1858.8,517.4z"/>
				</g>
				<g>
					<g>
						
							<ellipse transform="matrix(0.9762 -0.2168 0.2168 0.9762 -148.0047 513.7521)" class="st12" cx="2267.7" cy="931.5" rx="148.9" ry="176.7"/>
					</g>
					<g class="st13">
						<path class="st6" d="M2413,899.2c21.2,95.3-26.8,186.9-107,204.8c-69.9,15.5-141.3-30-172.5-105c32.8,24.4,72.6,35,112,26.2
							c80.2-17.8,128.1-109.5,107-204.8c-2.7-12.3-6.5-24.1-11.2-35.2C2375.6,810.6,2402.2,850.6,2413,899.2z"/>
					</g>
					<g>
						<path class="st6" d="M2278.6,1122c-77.6,0-150.6-63.7-170.9-154.9c-22.9-103.2,30.2-203,118.4-222.6
							c88.2-19.6,178.6,48.4,201.5,151.6l0,0c22.9,103.2-30.2,203-118.4,222.6C2299,1120.9,2288.8,1122,2278.6,1122z M2256.9,771
							c-8.1,0-16.2,0.9-24.3,2.7c-72.1,16-115,99.8-95.6,186.8c19.3,87,93.6,144.8,165.7,128.8c72.1-16,115-99.8,95.6-186.8l0,0
							C2381.2,825.2,2320.7,771,2256.9,771z"/>
					</g>
					<g>
						<path class="st6" d="M2319.5,1081.2c-59.7,0-117.8-56.5-135.5-136c-19.6-88.5,18.2-172.4,84.5-187.1
							c66.2-14.7,136.1,45.3,155.7,133.8l0,0c19.6,88.5-18.2,172.4-84.5,187.1C2333,1080.5,2326.2,1081.2,2319.5,1081.2z
							 M2289,780.8c-5.1,0-10.1,0.5-15.2,1.7c-52.8,11.7-82.1,82.3-65.5,157.3c16.7,75,73.2,126.5,125.9,114.8
							c52.8-11.7,82.1-82.3,65.5-157.3l0,0C2384.7,829.4,2337.1,780.8,2289,780.8z"/>
					</g>
				</g>
				<g>
					<path class="st6" d="M2167.8,804.8c-4.2,0-8.3-2.1-10.6-5.9c-141-227.2-454-257.2-646.8-142c-5.9,3.5-13.6,1.6-17.1-4.3
						c-3.5-5.9-1.6-13.6,4.3-17.1c202.8-121.1,532.3-89.2,680.9,150.3c3.6,5.9,1.8,13.6-4,17.2
						C2172.3,804.2,2170,804.8,2167.8,804.8z"/>
				</g>
				<g>
					<path class="st6" d="M1902.5,1534.8c-5.5,0-10.5-3.6-12-9.2c-1.8-6.7,2.1-13.5,8.7-15.4c172.5-47.8,349.4-191.1,356-403.7
						c0.2-6.9,6.1-12.3,12.9-12.1c6.9,0.2,12.3,6,12.1,12.9c-3.1,101-43.2,195.6-115.8,273.6c-66.2,71.1-158,125.6-258.5,153.4
						C1904.8,1534.7,1903.6,1534.8,1902.5,1534.8z"/>
				</g>
				<g class="st17">
					<path class="st12" d="M1597.9,753.2c-189.8,74.9-230.5,291-106.2,462.8c9.2,12.7,29.4,4.9,27.7-10.7
						c-17-155.7,4-301.5,96.4-428.7C1624.8,764.2,1612.1,747.7,1597.9,753.2z"/>
				</g>
				<g class="st17">
					<ellipse class="st12" cx="2057" cy="1102.1" rx="36.5" ry="42.5"/>
				</g>
				<g class="st17">
					<path class="st12" d="M2045.8,1205.9c22.3,28.9,10.3,69.9-26.2,98c-36.5,28.1-83.8,32.8-106,3.9c-22.3-28.9,3.5-59.7,40-87.8
						C1990,1191.8,2023.5,1177,2045.8,1205.9z"/>
				</g>
				<g class="st13">
					<path class="st6" d="M1528.8,1415.4c-34.1,7.3-81.5,3.5-135.9-67.1c37.3,9,69.4-15.3,69.4-15.3l36.9,44.3L1528.8,1415.4z"/>
				</g>
			</g>
			<g>
				<g>
					<path class="st12" d="M1725,2231.1c-176.4-142-342.5,72.5-156.2,207.5c0,0,172.5,127.5,285,73.8S1838.8,2316.1,1725,2231.1z"/>
				</g>
				<g class="st13">
					<path class="st6" d="M1853.8,2512.3c-112.5,53.8-285-73.8-285-73.8c-20.8-15.1-37.1-31.1-49.5-47.4
						c52.1,32.7,173.4,97.8,259.5,56.7c85.9-41,31.8-133.9-49.2-213.3C1842.2,2319.9,1964.8,2459.3,1853.8,2512.3z"/>
				</g>
				<g>
					<path class="st6" d="M1790.7,2540.6c-107.7,0-224.9-85.5-230.9-89.9c-62.4-45.2-94.1-105.2-86.9-164.5
						c5.8-47.6,37-88.4,81.4-106.4c55.1-22.4,120.7-8,179.8,39.6c90.7,67.9,185,166.5,177.8,240.2c-2,20-12.5,47.7-51.8,66.5
						C1838.5,2536.3,1814.8,2540.5,1790.7,2540.6z M1607.9,2199.3c-14.7,0-28.9,2.7-42.2,8.1c-34.9,14.2-58.4,44.9-63,82.3
						c-5.8,48.2,21.4,98,74.9,136.7c1.5,1.1,115.4,84.2,213,84.2c20,0,39.2-3.5,56.7-11.8c21.7-10.4,33.1-24.2,34.9-42.3
						c5.6-57.4-79.4-148.6-166.1-213.4c-0.1-0.1-0.3-0.2-0.4-0.3C1680.2,2214.2,1642.6,2199.3,1607.9,2199.3z"/>
				</g>
				<g>
					<path class="st6" d="M1519,2400.9c-1.9,0-3.7-0.5-5.4-1.6c-4.6-3-6-9.2-3-13.8l129.3-200.8c3-4.6,9.2-6,13.8-3
						c4.6,3,6,9.2,3,13.8l-129.3,200.8C1525.5,2399.3,1522.3,2400.9,1519,2400.9z"/>
				</g>
				<g>
					<path class="st6" d="M1587.7,2461.4c-1.8,0-3.6-0.5-5.3-1.5c-4.7-2.9-6.1-9.1-3.2-13.8l137.4-220.4c2.9-4.7,9.1-6.1,13.8-3.2
						c4.7,2.9,6.1,9.1,3.2,13.8l-137.4,220.4C1594.3,2459.8,1591,2461.4,1587.7,2461.4z"/>
				</g>
				<g>
					<path class="st6" d="M1679,2509.8c-1.6,0-3.3-0.4-4.9-1.3c-4.8-2.7-6.6-8.8-3.9-13.6l116.7-209.4c2.7-4.8,8.8-6.6,13.6-3.9
						c4.8,2.7,6.6,8.8,3.9,13.6l-116.7,209.4C1685.9,2508,1682.5,2509.8,1679,2509.8z"/>
				</g>
				<g>
					<path class="st6" d="M1774.8,2534.9c-1.5,0-3-0.3-4.4-1c-4.9-2.5-7-8.5-4.5-13.4l82.6-166.4c2.5-4.9,8.5-7,13.4-4.5
						c4.9,2.5,7,8.5,4.5,13.4l-82.6,166.4C1782,2532.8,1778.4,2534.9,1774.8,2534.9z"/>
				</g>
			</g>
			<g>
				<path class="st6" d="M2004.9,2379.2c-1.8,0-3.6-0.4-5.4-1.2c-146.7-70-185.5-273.3-187.1-281.9c-1.2-6.8,3.2-13.3,10-14.5
					c6.8-1.2,13.3,3.2,14.6,10c0.4,2,38.2,199.4,173.3,263.9c6.2,3,8.9,10.4,5.9,16.7C2014,2376.6,2009.5,2379.2,2004.9,2379.2z"/>
			</g>
			<g>
				<path class="st6" d="M2041,2323.2l44.1-55.9l-17.1,69.1c-2,8.2-10.4,13.2-18.6,11.2c-8.2-2-13.2-10.4-11.2-18.6
					C2038.7,2326.9,2039.8,2324.9,2041,2323.2z"/>
			</g>
			<g>
				<path class="st6" d="M2122.8,1982.7l-25-0.2c0.2-31.8,0-68.7,0-69.1l25-0.2C2122.8,1913.6,2123,1950.8,2122.8,1982.7z"/>
			</g>
			<g>
				<path class="st6" d="M1698.3,1700.1c3.1-12.2,6.3-24,9.6-35.9c3.3-11.9,6.8-23.7,10.4-35.5c7.2-23.5,14.9-46.9,23.5-69.8
					c-3.8,24.2-6.6,48.4-8.8,72.7c-1.1,12.1-2.1,24.3-2.9,36.4c-0.8,12.1-1.6,24.3-2.1,36.3L1698.3,1700.1z"/>
			</g>
			<g>
				<path class="st6" d="M1588.8,1762.8c-0.8,0-1.7-0.1-2.6-0.3c-6.8-1.4-11.1-8-9.7-14.8c13.9-66.8-13.7-125.7-13.9-126.3
					c-3-6.2-0.3-13.7,5.9-16.7c6.2-3,13.7-0.4,16.7,5.8c1.3,2.7,31.6,66.9,15.9,142.2C1599.8,1758.7,1594.6,1762.8,1588.8,1762.8z"
					/>
			</g>
			<g>
				<path class="st6" d="M1136.9,1736.6c-4.1,0-8.1-2-10.5-5.7l-16.5-25.4c-2.4-3.7-2.7-8.5-0.7-12.5l115.9-227.7
					c3.1-6.2,10.7-8.6,16.8-5.5c6.2,3.1,8.6,10.7,5.5,16.8L1134.8,1698l12.5,19.3c3.8,5.8,2.1,13.5-3.7,17.3
					C1141.6,1736,1139.2,1736.6,1136.9,1736.6z"/>
			</g>
			<g>
				<path class="st6" d="M1067.5,1719.8c-6,0-11.3-4.4-12.3-10.5c-1.1-6.8,3.5-13.2,10.3-14.3l52.9-8.6c6.8-1.1,13.2,3.5,14.3,10.3
					c1.1,6.8-3.5,13.2-10.3,14.3l-52.9,8.6C1068.9,1719.8,1068.2,1719.8,1067.5,1719.8z"/>
			</g>
			<g>
				<path class="st6" d="M2500.9,1292.8c-0.5-0.1-2.4-0.1-3.8-0.1l-4.6,0.1c-3.2,0.2-6.3,0.5-9.6,0.9c-6.5,0.7-13,1.9-19.5,3.2
					c-13.1,2.7-26.1,6.5-39.1,10.9c-13,4.3-25.7,9.6-38.4,15l-18.8,8.7l-18.6,9.4l16.6-12.7l17.1-12.1c11.7-7.7,23.5-15.4,35.9-22.2
					c12.4-6.9,25.1-13.3,38.5-18.7c6.7-2.7,13.5-5.2,20.6-7.4c3.5-1.1,7.2-2.1,10.8-3l5.7-1.2c2.1-0.4,3.7-0.7,6.6-1L2500.9,1292.8z
					"/>
			</g>
			<g class="st13">
				<path class="st6" d="M1546.8,1861.1c0,0-38.1,145,224.4,111.2s435.6-258.8,450.9-335c15.3-76.2,176.1-78.4,105.1,132.7
					c0,0-112.2,54.7-68.5,146.6l58-19.9c0,0-110.1,58.6-31.7,145c0,0-94.2-35.3-166.7-48.6c-72.5-13.3-181.5-2.7-215.8,12.5
					s-249.5,53.5-341-0.6S1546.8,1861.1,1546.8,1861.1z"/>
			</g>
			<g class="st13">
				<path class="st6" d="M2543.2,1801.2c0.6,9.9-5.1,19.1-14,23.2c-24.7,11.4-80.3,35.1-164.6,59.4c4.8-6.2,11.8-11.8,21.3-16.5
					c90.4-44.2,44.9-141.1,44.9-141.1c19.8-9.4,40.2-19.8,60.9-31.2c13.4-7.4,30.3-0.8,34.8,13.8
					C2533.1,1730.1,2540.9,1762.3,2543.2,1801.2z"/>
			</g>
			<g class="st13">
				<path class="st6" d="M1221.7,1499.7c53.7,90.1,64,162.5-13.5,199l69.3-4.2l37.5-78.5l-69.1-128.6h-9.7"/>
			</g>
			<g class="st13">
				<path class="st6" d="M1836.3,1690.5c0,0-130.3,4.9-103.9-92.9c0,0-41.6,117.6-190.7,93.1l39,52.3l47.4,1.6l28.3,7.4l38.1-42.8
					c0,0,21.2-15.4,25-14.6"/>
			</g>
		</g>
	</g>
</g>
</svg>
