<?xml version="1.0" encoding="utf-8"?>
<!-- Generator: Adobe Illustrator 27.4.0, SVG Export Plug-In . SVG Version: 6.00 Build 0)  -->
<svg version="1.1" id="Layer_1" xmlns="http://www.w3.org/2000/svg" xmlns:xlink="http://www.w3.org/1999/xlink" x="0px" y="0px"
	 viewBox="0 0 4000 4000" style="enable-background:new 0 0 4000 4000;" xml:space="preserve">
<style type="text/css">
	.st0{display:none;fill:#78BAFF;}
	.st1{fill:#FFFFFF;}
	.st2{opacity:0.35;}
	.st3{fill:#371A45;}
	.st4{fill:#22A7F0;}
	.st5{opacity:0.7;}
	.st6{fill:#220F2D;}
	.st7{opacity:0.5;}
</style>
<g>
	<g>
		<rect class="st0" width="4000" height="4000"/>
	</g>
	<g>
		<g>
			<path class="st1" d="M2733,2455.3c0,0-20.6,118.5-66.5,189.4c-16.8,26-37,45.6-60.7,50.6c-114.8,24.2-150.5-45.4-165.5-176.7
				c-17.9-156.5,135.8-662.5,135.8-662.5l44.4,13l93.3,27.5L2733,2455.3z"/>
		</g>
		<g class="st2">
			<path class="st3" d="M2733,2455.3c0,0-20.6,118.5-66.5,189.4c-112.9,22.7-148.2-46.8-163.1-177.1c-14-122.2,76.6-457.2,117-598.4
				l93.3,27.5L2733,2455.3z"/>
		</g>
		<g>
			<path class="st3" d="M2564.2,2716.6c-27.8,0-50.9-6.9-70.2-20.8c-38.2-27.6-59.2-80-70.1-175.2
				c-18.1-158.1,130.1-648.3,136.4-669.1l4.7-15.6l164.7,48.5l19.7,572.1l-0.3,1.7c-4.1,23.8-43.2,232.9-140,253.3
				C2593,2714.9,2578.1,2716.6,2564.2,2716.6z M2587.1,1876.6c-25.5,86.2-146.2,504.1-130.6,640.2c9.6,84,27.1,131,56.7,152.3
				c20.9,15.1,50.1,18.4,89.1,10.1c63.2-13.3,103.5-165.4,114.1-225.1l-18.8-545L2587.1,1876.6z"/>
		</g>
		<g>
			<path class="st1" d="M2558.5,2475.2c0,0-30.9,345.4,20.8,546.7c0,0-138.7,85.5-50.5,151.4c96.3,72,347.7,69.8,392.6-23.1
				c45.9-95-23.5-537.9-16.4-851.6"/>
		</g>
		<g>
			<path class="st3" d="M2706.7,2858.3c-52.7,0-109-7.5-161.9-29.4c-6.4-2.6-9.4-9.9-6.8-16.3c2.6-6.4,9.9-9.4,16.3-6.8
				c158.8,65.5,359.1-8.1,361.1-8.8c6.5-2.4,13.7,0.9,16.1,7.3c2.4,6.5-0.8,13.7-7.3,16.1
				C2918.3,2822.6,2821.2,2858.3,2706.7,2858.3z"/>
		</g>
		<g>
			<path class="st3" d="M2788,3045.4c-16.1-8.3-33.1-14.2-50.4-18.4c-17.3-4.3-34.9-6.8-52.4-7.2c-17.5-0.5-34.9,0.4-51.8,3.8
				c-8.5,1.2-16.8,3.7-25,5.9c-4.1,0.9-8.1,2.6-12.1,4l-12,4.3l-1.2,0.4c-8.6,3.1-18.1-1.4-21.2-9.9c-3.1-8.6,1.4-18.1,9.9-21.2
				c0.8-0.3,1.6-0.5,2.4-0.7l14.1-2.8c4.7-0.9,9.3-2,14.1-2.4c9.5-1.1,18.9-2.3,28.4-2.2c18.9-0.8,37.8,1.1,56.1,4.5
				c18.3,3.3,36.1,8.7,53.1,15.8C2757.1,3026.1,2773.4,3034.7,2788,3045.4z"/>
		</g>
		<g class="st2">
			<path class="st3" d="M2500.5,3138c3.5,12,12,24,27.3,35.3c96.3,72,347.7,69.8,392.6-23.1c45.9-95-23.5-537.9-16.3-851.6
				l-346.5,176.6c0,0-3.1,35.2-5.7,89.7c28.7,30.3,84.6,71.2,192.5,108.2c146.1,50.1,167.2,476.1-5.9,496.6
				C2677.8,3176.9,2568,3166,2500.5,3138z"/>
		</g>
		<g>
			<path class="st3" d="M2726.4,3240.5c-80.3,0-161.6-19.7-207.4-53.9c-24.9-18.6-37-40.8-35.9-65.9c2.2-48.3,54.3-89.9,77.5-106
				c-47.9-202.8-19.7-526.9-18.5-540.9c0.8-9,8.8-15.7,17.9-14.9c9.1,0.8,15.7,8.8,14.9,17.9c-0.3,3.4-30,344.9,20.4,541.2l3,11.7
				l-10.3,6.4c-19.5,12.1-70.5,51.1-72,86.2c-0.6,13.7,6.8,26.2,22.7,38c57.6,43,185.5,60,279.4,37.2c45.5-11.1,77-30.4,88.5-54.2
				c24.5-50.7,12.5-225-0.3-409.6c-9.7-141.1-20.8-301-17.7-435.2c0.2-9.1,7.8-16.3,16.8-16.1c9.1,0.2,16.3,7.7,16.1,16.8
				c-3,132.7,8,291.8,17.7,432.2c14.2,205.4,25.4,367.7-2.9,426.2c-16.1,33.3-54.3,58.2-110.3,71.9
				C2794.8,3236.9,2760.7,3240.5,2726.4,3240.5z"/>
		</g>
		<g>
			<path class="st1" d="M2122.3,1860c-10,60.6-79.4,94.3-118.4,108.7c-17.2,6.3-31.4,19-39.9,35.3c-34.5,66-129.8,233-229.1,266.5
				c-42.3,14.3-84.9,7.2-121.3-7.1c-59.3-23.2-102.4-65.2-102.4-65.2l-56.8-240.4l-31.2-132l-33-139.6c0,0,47.1,51.7,104.4,108.6
				c23.6,23.4,48.9,47.7,73.4,69.6c51.9,46.5,99.9,82.2,119.5,76.2c20.9-6.4,59.1-79,131.8-162.7c18.2-20.9,65.5-18.8,113.6-32.3
				c76.3-21.4,136.4-22.5,165.6,0.3c22.5,17.6,20.4,63.7,23.6,81.8C2124,1839.1,2124,1849.9,2122.3,1860z"/>
		</g>
		<g class="st2">
			<path class="st3" d="M2122.3,1860c-10,60.6-79.4,94.3-118.4,108.7c-17.2,6.3-31.4,19-39.9,35.3c-34.5,66-129.8,233-229.1,266.5
				c-111.1,37.5-223.7-72.3-223.7-72.3l-88-372.4c139.6,67,159.8,301.6,282.9,289.3c205.5-20.4,199.9-231.2,193-324.3
				C1897.1,1762.7,2004.9,1959,2122.3,1860z"/>
		</g>
		<g>
			<path class="st3" d="M1686.4,2294.7c-98.2,0-182.5-80.8-186.6-84.9c-6.5-6.3-6.6-16.8-0.3-23.3c6.3-6.5,16.8-6.6,23.3-0.3
				c1,1,106.9,102.3,207,68.5c95.6-32.2,192.4-206,219.8-258.5c10.5-20.1,27.8-35.4,48.8-43.1c45.3-16.7,119.4-54.9,107.5-122.9
				c-0.8-4.7-1.3-10.4-1.8-16.9c-1.4-17-3.8-45.5-15.7-54.8c-23.8-18.6-78.9-17.7-151,2.6c-18,5.1-35.9,8-51.7,10.6
				c-23.7,3.9-46.1,7.6-53.9,16.6c-33.4,38.4-59.2,74.2-79.9,103c-27.7,38.4-43,59.6-59.4,64.7c-20.4,6.3-58.2-3.6-184.1-125.1
				c-67.5-65.2-129.5-133.2-130.2-133.8c-6.1-6.7-5.6-17.1,1.1-23.2c6.7-6.1,17.1-5.6,23.2,1.1c0.6,0.7,60.2,66,125.8,129.5
				c120.8,117,150.4,120.3,154.4,120.1c7.3-3.7,25.9-29.6,42.4-52.5c21.1-29.3,47.4-65.8,81.7-105.3c15.6-17.9,42.3-22.3,73.3-27.5
				c15.7-2.6,31.9-5.3,48.2-9.8c59.1-16.6,138.4-29.5,180.2,3.1c23.2,18.1,26.2,54.2,28.2,78c0.5,5.5,0.9,10.7,1.5,13.9
				c11.8,66.9-35.1,125-128.5,159.5c-13.3,4.9-24.3,14.7-31,27.4c-36.9,70.8-134.1,239.3-238.4,274.4
				C1722.1,2292.1,1704,2294.7,1686.4,2294.7z"/>
		</g>
		<g>
			<path class="st1" d="M1641.2,3138c-3.5,12-12,24-27.3,35.3c-96.3,72-347.7,69.8-392.6-23.1c-45.9-95,23.5-537.9,16.3-851.6
				l346.5,176.6c0,0,3.1,35.2,5.7,89.7c5.6,116.2,8.6,320-26.6,457C1563.4,3021.9,1658.4,3080.5,1641.2,3138z"/>
		</g>
		<g class="st2">
			<path class="st3" d="M1641.2,3138c-3.5,12-12,24-27.3,35.3c-96.3,72-347.7,69.8-392.6-23.1c-45.9-95,23.5-537.9,16.3-851.6
				l346.5,176.6c0,0,3.1,35.2,5.7,89.7c-28.7,30.3-84.6,71.2-192.5,108.2c-146.1,50.1-167.2,476.1,5.9,496.6
				C1463.9,3176.9,1573.6,3166,1641.2,3138z"/>
		</g>
		<g>
			<path class="st3" d="M1416.4,3240.5c-34.3,0-68.4-3.6-99.5-11.2c-56-13.7-94.2-38.5-110.3-71.9c-28.3-58.5-17.1-220.8-2.9-426.2
				c9.7-140.4,20.7-299.5,17.7-432.2c-0.2-9.1,7-16.6,16.1-16.8c9.1-0.4,16.6,7,16.8,16.1c3,134.2-8,294.1-17.7,435.2
				c-12.7,184.6-24.8,359-0.3,409.6c11.5,23.9,43,43.1,88.5,54.2c93.9,22.9,221.9,5.9,279.4-37.2c15.9-11.9,23.3-24.3,22.7-38
				c-1.5-35.1-52.5-74.1-72-86.2l-10.3-6.4l3-11.7c50.4-196.3,20.7-537.8,20.4-541.2c-0.8-9,5.9-17,14.9-17.9
				c9.1-0.8,17,5.9,17.9,14.9c1.2,14,29.5,338.1-18.5,540.9c23.2,16.1,75.3,57.7,77.5,106c1.1,25.1-10.9,47.3-35.9,65.9
				C1578,3220.8,1496.7,3240.5,1416.4,3240.5z"/>
		</g>
		<g>
			<path class="st3" d="M1436,2858.3c-114.6,0-211.6-35.7-217.4-37.9c-6.5-2.4-9.7-9.6-7.3-16.1c2.4-6.5,9.6-9.7,16.1-7.3
				c2,0.7,202.3,74.3,361.1,8.8c6.4-2.6,13.7,0.4,16.3,6.8c2.6,6.4-0.4,13.7-6.8,16.3C1545,2850.7,1488.7,2858.3,1436,2858.3z"/>
		</g>
		<g>
			<path class="st3" d="M1354.7,3045.4c14.6-10.7,30.9-19.2,47.8-26.2c17-7,34.8-12.5,53.1-15.8c18.3-3.4,37.2-5.2,56.1-4.5
				c9.5,0,18.9,1.2,28.4,2.2c4.8,0.4,9.4,1.5,14.1,2.4l14.1,2.8c9,1.8,14.8,10.5,13,19.4c-1.8,9-10.5,14.8-19.4,13
				c-0.8-0.2-1.6-0.4-2.3-0.6l-1.3-0.5l-12-4.3c-4-1.4-8-3.1-12.1-4c-8.2-2.2-16.5-4.6-25-5.9c-16.9-3.3-34.3-4.3-51.8-3.8
				c-17.5,0.5-35.1,3-52.4,7.2C1387.8,3031.2,1370.7,3037.1,1354.7,3045.4z"/>
		</g>
		<g>
			<path class="st1" d="M750,2556.7c82.8,84.1,264.5,28.9,264.5,28.9l-76.3-628.4l-15.4-126.9c0,0-105.6,16-181.9,59.2
				c-36.8,20.8-66.8,48-75,82.7C637.5,2092.9,681.9,2487.6,750,2556.7z"/>
		</g>
		<g class="st2">
			<path class="st3" d="M666.4,2238.2c14.6,138.1,45.4,279.6,83.6,318.5c82.8,84.1,264.5,28.9,264.5,28.9l-91.7-755.3
				c0,0-2,0.3-5.6,0.9l71.5,588.9c0,0-181.7,55.2-264.5-28.9C701.8,2368.5,681.9,2310.3,666.4,2238.2z"/>
		</g>
		<g>
			<path class="st3" d="M890.5,2620c-53.6,0-112.5-11.3-152.2-51.7c-47.7-48.4-73.8-213.6-82.8-282.3
				c-17.5-133.1-19.6-257.7-5.5-317.5c27.4-116.4,260.5-152.9,270.4-154.4c9-1.4,17.4,4.8,18.7,13.8c1.4,9-4.8,17.4-13.8,18.7
				c-61.4,9.3-224.8,50.7-243.3,129.4c-27.7,117.7,18.6,507.1,79.8,569.2c74.8,76,246.3,25.2,248,24.7c8.7-2.7,17.9,2.3,20.5,11
				s-2.3,17.9-11,20.5C1015,2602.7,956.7,2620,890.5,2620z"/>
		</g>
		<g>
			<path class="st1" d="M687.2,2294.5l127.7-6.2c11.4-0.6,21.7,6.6,25.1,17.5c12.4,39.9,36.4,133.6,0.6,169.9
				c-29.7,30.2-83.6,33.7-118.3,11.1c-38.8-25.3-53.8-118.3-58.9-164.5C661.9,2307.9,672.7,2295.2,687.2,2294.5z"/>
		</g>
		<g class="st2">
			<path class="st3" d="M840.1,2305.8c12.5,39.9,36.4,133.6,0.6,169.9c-29.7,30.2-83.6,33.8-118.3,11.1
				c-23.8-15.6-38.7-56.7-47.8-96.9c8.2,19.6,19.2,35,31.7,44.4c71.5,54.1,110-24.9,110-24.9s10.5,16.7,17.2,16.9
				c28.1,0.8,11.7-84.7,2.2-128.7C837.6,2300,839.1,2302.7,840.1,2305.8z"/>
		</g>
		<g>
			<path class="st3" d="M774.2,2517.9c-21.4,0-42.9-5.7-60.8-17.3c-41.5-27.1-59-111-66.3-176.5c-1.3-11.4,2.3-22.8,9.7-31.5
				c7.4-8.7,18.2-14,29.6-14.6h0l127.7-6.2c18.9-1,36,11,41.6,29.1c16.2,51.9,37.3,145.1-3.4,186.4
				C832.5,2507.4,803.4,2517.9,774.2,2517.9z M688,2310.9c-3.3,0.2-5.3,2-6.2,3c-0.9,1.1-2.4,3.3-2,6.5
				c9,80.3,28.2,137.3,51.6,152.6c29.3,19.1,74,15.1,97.5-8.9c20.3-20.6,18.5-79.4-4.6-153.5c-1.2-3.7-4.7-6.1-8.6-6L688,2310.9z"/>
		</g>
		<g>
			<path class="st3" d="M811.1,2335.3c1.6,14.5,4.7,29.8,6.7,45.4c2.1,15.6,3.5,31.7,2.5,48.4c-1,16.5-4.6,34.1-13.9,50.2
				c-4.6,8-10.7,15.3-17.8,21.5c-7.1,6.1-15.1,11-23.3,14.8c-8.3,3.8-18,0.2-21.9-8c-3.8-8.3-0.2-18,8-21.9c0.4-0.2,0.9-0.4,1.3-0.6
				c11.9-4.3,22-11.2,29.1-21.4c7.2-10.1,11.4-23.2,13.5-37.2c2.1-14,2.1-28.9,1.4-43.9c-0.7-15.1-2.5-30.2-2.9-46.5
				c-0.1-4.8,3.7-8.8,8.5-8.9c4.6-0.1,8.4,3.3,8.9,7.7L811.1,2335.3z"/>
		</g>
		<g>
			<path class="st3" d="M721.1,1955.3c23.7-5,47.8-8.5,72.2-11c12.2-1.3,24.4-2.2,36.7-2.8c12.3-0.7,24.7-0.7,37.2-0.7
				c9.2,0.1,16.5,7.5,16.5,16.7c-0.1,9.2-7.5,16.5-16.7,16.5c-1.2,0-2.5-0.2-3.6-0.4l-0.3-0.1c-11.4-2.7-22.9-5.3-34.6-7.4
				c-11.7-2.1-23.5-3.9-35.4-5.4C769.3,1957.7,745.3,1955.8,721.1,1955.3z"/>
		</g>
		<g class="st2">
			<path class="st3" d="M763.5,1886.7c60.7,35.3,127.9,58.3,197.3,67.7l-15.4-126.9C945.4,1827.5,839.8,1843.4,763.5,1886.7z"/>
		</g>
		<g class="st2">
			<path class="st3" d="M1294.5,2471.4c2.2,7,4.4,13.9,6.4,20.7C1298.9,2485.3,1296.7,2478.4,1294.5,2471.4z"/>
		</g>
		<g>
			<path class="st1" d="M1618.8,2466c-38.8,101-187.3,156.5-250.3,168.8c-14.2,2.8-28.1,4.9-41.6,6.4
				c-102.1,11.5-182-10.2-211.8-19.3c-56.4-17.1-106.3-48-145.8-90.5c-3.6-3.9-7.1-7.8-10.5-11.9c-3-3.5-5.9-7.2-8.8-10.9
				c-12.9-16.8-24.4-35.2-34.3-54.9c-0.5-1-1-2-1.5-3c-15.5-32.1-27.2-74.5-34.9-125.4c-11.7-77.4-14-174.5-5.3-285.1
				c2.3-28.9,5.3-58.7,9.1-89.4c0.1-1.2,0.3-2.4,0.4-3.5c0.1-1.1,0.3-2.2,0.4-3.4c2.7-21.1,5.8-42.6,9.2-64.4c0.5-3.3,1-6.6,1.6-9.9
				c10.4-64.7,24-132.3,41.1-201.9l491.5-88.1c24.4,75.8,46.9,147.5,67.1,215c10.2,33.9,19.9,66.7,29,98.4c1.1,3.8,2.1,7.6,3.2,11.3
				c2.8,9.7,5.5,19.2,8.2,28.7c1.1,3.9,2.1,7.8,3.2,11.6c35.3,126.6,60.8,233.6,75.5,318.6C1630.4,2361.1,1632.7,2429.9,1618.8,2466
				z"/>
		</g>
		<g class="st2">
			<path class="st3" d="M983.2,2209c-6.4,72.5-17.2,215-24.3,310.6c-3-3.5-5.9-7.2-8.8-10.9c-12.9-16.8-24.4-35.2-34.3-54.9
				c-0.5-1-1-2-1.5-3c-15.5-32.1-27.2-74.5-34.9-125.4c-11.7-77.4-14-174.5-5.3-285.1C906.7,2051.6,993.5,2093.1,983.2,2209z"/>
		</g>
		<g class="st2">
			<path class="st3" d="M915.8,2453.8c41.6,83.5,112.9,141.9,199.4,168.2c33.7,10.2,131.7,36.8,253.4,12.9
				c63-12.3,211.4-67.7,250.2-168.8c12.1-31.4,11.9-87.3,0.7-165.3c4.5,46.6,1.9,81.1-8.5,102.3c-41,84-182.9,140.4-246,151.9
				c-121.9,22.3-226.3-4.9-259.7-12.6c-85.7-19.7-155.4-66.2-195.1-134c-16.6-28.2-28.3-66.9-34.8-114.2
				C882.8,2360.8,896.5,2415.1,915.8,2453.8z"/>
		</g>
		<g class="st2">
			<path class="st3" d="M1582.6,2115c17,71.4,29.5,133.5,36.9,185.7C1614.8,2251.8,1602.3,2189.5,1582.6,2115z"/>
		</g>
		<g class="st2">
			<path class="st3" d="M875.4,2294.2c-3.2-28.2-5.2-58.5-6-90.9C869.5,2236.3,871.5,2266.7,875.4,2294.2z"/>
		</g>
		<g>
			<path class="st3" d="M1544.3,1946.3c28.8,59.1,45.2,121.9,60.3,185c7.2,31.7,13.6,63.5,19.3,95.6c6,32,11,64.2,15.1,96.8
				c3.8,32.6,6.7,65.5,4.4,99.7l-1.1,12.9c-0.5,4.3-1.4,8.7-2.2,13.1l-1.2,6.6l-2,6.7c-1.4,4.4-2.6,9.1-4.4,13.1
				c-6.9,16.5-16.2,31.8-27.1,45.3c-21.8,27.3-48.8,48.7-77.2,66.6c-28.5,17.8-58.7,32.1-89.9,43.8l-0.5,0.2l-0.6,0.2l-64.2,18.8
				l-0.7,0.2l-0.7,0.1c-55.8,10.8-113.3,12.8-169.6,5.9c-28.2-3.4-56.1-8.9-83.5-16.8c-13.6-3.9-27.4-8.7-40.8-14.1
				c-13.3-5.7-26.4-11.8-38.9-19c-25.2-14.2-48.6-31.6-69.3-51.9c-20.8-20.2-39-42.9-53.9-67.7l-5.6-9.3c-1.8-3.1-3.4-6.4-5.1-9.5
				c-3.5-6.3-6.5-13-9.6-19.6c-5.7-13.4-10.8-27-14.7-40.7c-8.3-27.4-13.8-55.2-17.9-83c-8.1-55.7-10.7-111.6-10.3-167.3
				c0.4-55.7,3.9-111.3,9.6-166.5c2.8-27.6,6.2-55.2,10.2-82.6c3.8-27.5,8.6-54.8,12.6-82.3c4.3-27.4,9-54.8,16.2-81.6
				c6.9-26.9,15.8-53.3,29.5-78.4c1.5-2.7,5-3.8,7.7-2.3c1.8,1,2.9,2.8,2.9,4.7l0,0.2c0.6,14.3-0.5,28.1-1.8,41.9
				c-1.3,13.8-3.4,27.3-5.6,40.8c-1.1,6.8-2.3,13.5-3.5,20.2c-1.1,6.8-2.5,13.4-3.8,20.2l-8.3,40.2c-5.4,26.8-9.7,53.9-13.5,80.9
				c-3.9,27.1-7.2,54.2-10,81.4c-5.6,54.3-9.1,108.9-9.4,163.4c-0.4,54.4,2.1,108.9,9.9,162.3c3.9,26.7,9.2,53,16.9,78.4
				c3.6,12.8,8.3,25,13.3,37c2.7,5.8,5.3,11.7,8.6,17.5c1.6,2.9,3,5.8,4.6,8.7l5,8.4c13.5,22.5,30,43,48.7,61.2
				c18.7,18.3,39.8,34,62.6,46.9c11.3,6.6,23.2,12.1,35.2,17.3c12.2,4.9,24.4,9.2,37.3,12.9c25.6,7.3,51.9,12.5,78.4,15.8
				c53,6.5,107,4.6,159.4-5.5l-1.5,0.4l64.2-18.8l-1.1,0.4c29.3-11,57.7-24.5,83.9-40.9c26.1-16.4,50.3-35.9,68.8-59.2
				c9.4-11.5,17-24.2,22.5-37.4c1.5-3.4,2.1-6.6,3.2-9.9l1.5-4.9l0.9-5.4c0.6-3.6,1.4-7.1,1.8-10.8l0.9-11.3
				c2.1-30.3-0.6-62.1-4.3-93.5c-7.3-63.1-21.7-125.8-36.3-188.2c-14.1-62.7-30.5-124.7-36.3-190.1c-0.3-3.1,2-5.8,5.1-6.1
				C1541.2,1943,1543.3,1944.3,1544.3,1946.3z"/>
		</g>
		<g>
			<path class="st1" d="M1257.8,2568.2c0,0,22.7,288.4-29.1,489.8c0,0,138.7,85.5,50.5,151.4c-96.3,72-347.7,69.8-392.6-23.1
				c-45.9-95,23.5-537.9,16.4-851.6"/>
		</g>
		<g class="st2">
			<path class="st3" d="M1535.6,2462.7l-319.6,56.4c-17.3,3-34.2-0.6-48.2-9.1c-12.1,11.4-31.5,23.2-57.4,18.4
				c-32.1-5.8-53-27-53-27S993,2567,954.2,2577c-15.1,243.4-39.4,479.9-7.2,546.3c40.7,84,250.5,93.8,361.3,41.5
				c-1.5,15.1-9.9,30.3-29,44.5c-96.3,72-347.7,69.8-392.6-23.1c-45.9-95,23.5-537.9,16.4-851.6l60.3,39.6v0.1
				c35.9,0.6,101.1,1.8,156.7,2.9l-15-84.9c-5.8-33.2,13-65.2,43.2-77.1c4.2-1.7,8.8-3,13.5-3.8l319.5-56.4
				c37.9-6.7,74.3,18.8,81,56.6l23.8,134.7l6.3,35.4C1599,2419.7,1573.4,2456.1,1535.6,2462.7z"/>
		</g>
		<g>
			<path class="st3" d="M1263.3,2567.7c5.9,20.3,9.3,40.8,11.9,61.4c2.7,20.6,3.7,41.2,4.5,61.9c1.6,41.3,0.4,82.7-2,124
				c-1.5,20.7-2.4,41.3-4.5,62c-1.4,20.7-3.9,41.3-6.1,61.9c-5.3,41.2-12.3,82.4-22.4,123.1l-7.3-18.1c7.4,4.7,13.7,9.2,20.2,14.2
				c6.4,4.9,12.7,10.1,18.7,15.6c12.1,11,23.5,23.3,33,37.9c4.7,7.4,8.8,15.5,11.8,24.4c2.9,8.9,4.7,18.9,3.8,29.1
				c-0.8,10.2-4.3,20.1-9.2,28.6c-4.8,8.7-11.4,15.3-17.9,21.6c-26.9,23-57.5,35-88.3,44.1c-15.4,4.5-31.1,7.9-46.8,10.4
				c-15.7,2.5-31.5,4.5-47.3,5.4c-31.6,2.1-63.5,1.3-95.1-3c-31.6-4.5-63.4-11.8-93.4-27.1c-14.9-7.7-29.4-17.6-41.5-31.4
				c-2.9-3.6-5.7-7.2-8.3-11.1l-3.5-6.1l-1.7-3.1l-1.3-3.2c-3.8-8.6-5.9-16.9-7.8-25c-6.8-32.5-7.7-63.7-8.2-94.9
				c-0.6-62.3,2.8-123.8,6.5-185.2c3.8-61.4,8.3-122.6,12.3-183.8c4.1-61.2,7.9-122.3,10.5-183.4c1.4-30.6,0.4-61.1,1.8-91.6
				c1.3-30.5,3.4-60.9,11.8-91.6l0,0c0.8-3,4-4.8,7-4c1.9,0.5,3.4,2,3.9,3.8c9.6,30.6,11.7,61.6,12.1,92.5
				c0.3,30.9-2.6,61.7-3.8,92.4c-2.7,61.5-6.4,122.9-10.5,184.2c-4.1,61.3-8.6,122.5-12.3,183.6c-3.7,61.1-7,122.2-6.5,182.7
				c0.5,30.1,1.6,60.6,7.5,88.2c1.5,6.7,3.4,13.4,5.8,18.8l0.8,2.1l1.1,1.9l2.2,3.9c1.7,2.5,3.6,4.9,5.5,7.4
				c8.2,9.4,19.4,17.3,31.6,23.6c24.7,12.8,53.6,19.7,82.7,23.8c29.2,3.9,59,4.7,88.6,2.7c14.8-0.9,29.5-2.7,44.1-5
				c14.6-2.3,29-5.5,43-9.6c14-4,27.8-8.9,40.7-15c12.7-6,25.1-13.5,34.8-21.9c4.4-4.4,8.9-8.8,11.4-13.7c2.7-4.8,4.4-9.7,4.8-14.8
				c0.9-10.2-3.4-22-10.5-33.1c-7.2-11.1-16.8-21.7-27.4-31.3c-5.3-4.8-10.9-9.5-16.6-13.9c-5.7-4.3-11.9-8.8-17.4-12.3l-10.2-6.5
				l2.9-11.6c9.6-38.9,16.4-78.8,21.6-119c4.8-40.2,7.8-80.8,9.3-121.4c1.1-40.7,1-81.4,1.7-122.1c0.4-40.8,1.3-81.5,6.9-122.8l0,0
				c0.4-3.1,3.2-5.2,6.3-4.8C1260.9,2564.1,1262.7,2565.7,1263.3,2567.7z"/>
		</g>
		<g>
			<path class="st3" d="M1101.3,2894.3c-114.6,0-211.6-35.7-217.4-37.9c-6.5-2.4-9.7-9.6-7.3-16.1c2.4-6.5,9.6-9.7,16.1-7.3
				c2,0.7,202.3,74.3,361.1,8.8c6.4-2.6,13.7,0.4,16.3,6.8c2.6,6.4-0.4,13.7-6.8,16.3C1210.4,2886.7,1154,2894.3,1101.3,2894.3z"/>
		</g>
		<g>
			
				<ellipse transform="matrix(0.9963 -8.587761e-02 8.587761e-02 0.9963 -185.0858 145.8956)" class="st1" cx="1603.2" cy="2224.2" rx="62.1" ry="62.1"/>
		</g>
		<g class="st2">
			<path class="st3" d="M1664.9,2218.2c3.3,34.1-21.6,64.5-55.7,67.8c-34.1,3.3-64.5-21.6-67.8-55.8c-0.9-9.4,0.3-18.6,3.4-27
				c12,19.9,34.7,32.3,59.3,29.9c24.6-2.4,44.5-19,52.4-40.8C1661,2200,1664,2208.7,1664.9,2218.2z"/>
		</g>
		<g>
			<path class="st3" d="M1603.1,2298.8c-37.9,0-70.4-28.8-74.2-67.3c-4-40.9,26-77.5,67-81.5c40.9-4,77.5,26,81.5,67
				c1.9,19.8-4,39.2-16.6,54.6c-12.6,15.4-30.5,24.9-50.4,26.9C1608,2298.6,1605.6,2298.8,1603.1,2298.8z M1603.2,2174.6
				c-1.6,0-3.2,0.1-4.9,0.2c-27.2,2.7-47.2,26.9-44.5,54.1c2.7,27.2,26.9,47.2,54.1,44.5c13.2-1.3,25.1-7.6,33.5-17.9
				c8.4-10.2,12.3-23.1,11-36.3C1650,2193.8,1628.4,2174.6,1603.2,2174.6z"/>
		</g>
		<g>
			<g class="st2">
				<path class="st3" d="M1612.8,2280.1c-19.1-67.8-29-131.7-33.2-189.1c5.5,32.8,12.9,67,22.9,102.3
					c11.6,41.4,19.1,85.3,20.5,129.1C1620.1,2308.1,1616.7,2294,1612.8,2280.1z"/>
			</g>
			<g>
				<path class="st1" d="M1568.3,2406.7l-319.6,56.4c-37.8,6.7-74.3-18.8-81-56.7l-30-170.1c-5.9-33.2,13-65.2,43.2-77.1
					c4.3-1.7,8.8-3,13.5-3.8L1514,2099c37.9-6.7,74.3,18.8,81,56.7l23.8,134.7l6.3,35.4C1631.7,2363.6,1606.1,2400,1568.3,2406.7z"
					/>
			</g>
			<g class="st2">
				<path class="st3" d="M1568.3,2406.7l-319.6,56.4c-37.8,6.7-74.3-18.8-81-56.7l-30-170.1c-5.9-33.2,13-65.2,43.2-77.1
					c20.3,8.8,33.2,14.5,33.2,14.5c39.7,133.8,90.5,195,260.5,167.8c73.4-11.7,117.6-31.1,144.1-51.2l6.3,35.4
					C1631.7,2363.6,1606.1,2400,1568.3,2406.7z"/>
			</g>
			<g>
				<path class="st3" d="M1236.6,2479.2c-17.2,0-34.1-5.3-48.5-15.4c-18.6-13-31-32.5-35-54.7l-30-170.1
					c-8.1-46.1,22.7-90.2,68.8-98.3l319.5-56.4c22.2-3.9,44.8,1.1,63.4,14.1c18.6,13,31,32.5,35,54.7l30,170.1
					c3.9,22.3-1.1,44.8-14.1,63.4c-13,18.6-32.5,31-54.7,35l-319.5,56.4C1246.4,2478.8,1241.5,2479.2,1236.6,2479.2z M1526.1,2113
					c-3.2,0-6.4,0.3-9.5,0.8l-319.5,56.4c-29.8,5.3-49.8,33.8-44.5,63.6l30,170.1c5.3,29.8,33.8,49.7,63.6,44.5h0l319.5-56.4
					c14.4-2.5,26.9-10.6,35.3-22.6c8.4-12.1,11.7-26.6,9.2-41l-30-170.1c-2.5-14.4-10.6-26.9-22.6-35.3
					C1548.2,2116.4,1537.3,2113,1526.1,2113z"/>
			</g>
			<g>
				<path class="st1" d="M1580.9,2403.2c-4,1.6-8.2,2.8-12.6,3.5l-319.6,56.4c-27.7,4.9-54.7-7.5-69.7-29.4
					c-5.5-8-9.4-17.2-11.2-27.3l-13.4-75.5l-4.4-24.9l-12.3-69.6c-6.7-37.9,18.8-74.3,56.7-81l69.1-12.2
					c-30.8,11.6-50.1,44-44.2,77.4l16.2,91.9l13.8,78.2c6.7,37.8,43.1,63.4,81,56.7L1580.9,2403.2z"/>
			</g>
			<g class="st2">
				<path class="st3" d="M1580.9,2403.2c-4,1.6-8.2,2.8-12.6,3.5l-319.6,56.4c-37.8,6.7-74.3-18.8-80.9-56.7l-17.8-100.5
					c11.2,16.3,29.5,35.6,53,33.8c12.9-1,23.8-12.3,32.5-27.2l13.8,78.2c6.7,37.8,43.1,63.4,81,56.7L1580.9,2403.2z"/>
			</g>
			<g>
				<path class="st3" d="M1236.5,2479.2c-17.2,0-34-5.3-48.5-15.4c-18.6-13-31-32.5-35-54.7l-30-170.1c-3.9-22.2,1.1-44.8,14.1-63.4
					c13-18.6,32.5-31,54.7-35l69-12.2l7.9,28.8c-24.7,9.3-39.2,34.9-34.7,60.9l30,170.1c2.5,14.4,10.6,26.9,22.6,35.4
					c12.1,8.4,26.6,11.7,40.9,9.1l250.6-44.3l8.1,28.7c-5,2-10.3,3.4-15.5,4.3l-319.5,56.4
					C1246.4,2478.8,1241.5,2479.2,1236.5,2479.2z M1214.1,2167.2l-17.1,3c-14.4,2.5-26.9,10.6-35.4,22.6
					c-8.4,12.1-11.7,26.6-9.1,40.9l30,170.1c2.5,14.4,10.6,26.9,22.6,35.4c12.1,8.4,26.6,11.7,40.9,9.1l19.2-3.4
					c-16.3-12.9-27.1-31-30.7-51.6l-30-170.1C1201.1,2203.5,1204.8,2183.8,1214.1,2167.2z"/>
			</g>
			<g>
				<path class="st4" d="M1360.6,2284.9c1.1,6.3,0.9,58.6,0.9,58.6s-16.1,2.7-35.9,6.1c-24.7,4.2-49.1-17.9-54.5-49.5
					c-5.4-31.5,10.3-60.5,35-64.7c16.7-2.8,35.9-6.1,35.9-6.1S1358.9,2274.7,1360.6,2284.9z"/>
			</g>
			<g class="st2">
				<path class="st3" d="M1360.6,2284.9c1.1,6.3,0.9,58.6,0.9,58.6s-16.1,2.7-35.9,6.1c-24.7,4.2-49.1-17.9-54.5-49.5
					c-5.4-31.5,10.3-60.5,35-64.7c16.7-2.8,35.9-6.1,35.9-6.1S1358.9,2274.7,1360.6,2284.9z"/>
			</g>
			<g>
				<path class="st3" d="M1319.7,2360.2c-27.3,0-52.6-24.5-58.3-58.3c-3-17.5-0.4-34.9,7.3-49.1c8.1-15,20.8-24.7,35.9-27.2l25-4.3
					c11.1-1.9,21.9,4.4,25.7,15c9.1,25.1,14.2,40.9,15.3,47c0.3,1.6,1,6,1,49.2c0,11.3-8.1,20.9-19.3,22.9l-24.9,4.3
					C1324.8,2360,1322.2,2360.2,1319.7,2360.2z M1333.4,2241c-0.2,0-0.4,0-0.5,0l-25,4.3c-8.9,1.5-16.5,7.6-21.7,17
					c-5.5,10.3-7.4,23.1-5.1,36.2c4.4,26.1,23.7,44.6,42.9,41.3l24.9-4.3c1.5-0.3,2.6-1.6,2.6-3.1c0-30.1-0.4-43.5-0.8-45.9
					c-0.3-1.8-2.2-10-14.3-43.5C1335.9,2241.8,1334.7,2241,1333.4,2241z"/>
			</g>
			<g>
				
					<ellipse transform="matrix(0.9858 -0.1682 0.1682 0.9858 -365.3514 259.9673)" class="st4" cx="1351.8" cy="2286.4" rx="45.4" ry="57.9"/>
			</g>
			<g class="st5">
				<path class="st1" d="M1397.5,2291.2c-8.7-24.9-29.9-41.1-51.4-37.4c-21.4,3.6-36,25.9-36,52.3c-1.3-3.8-2.4-7.8-3.1-12
					c-5.4-31.5,10.3-60.5,34.9-64.7c24.7-4.2,49.1,17.9,54.5,49.5C1397.2,2283,1397.5,2287.1,1397.5,2291.2z"/>
			</g>
			<g class="st2">
				<path class="st3" d="M1361.5,2343.5c-24.7,4.2-49.1-17.9-54.5-49.5c-1.4-8-1.4-15.8-0.3-23c9.5,22.7,29.6,37,49.9,33.6
					c18.4-3.2,31.8-20.2,35.2-41.7c2,5,3.6,10.3,4.6,15.9C1401.9,2310.4,1386.2,2339.3,1361.5,2343.5z"/>
			</g>
			<g>
				<path class="st3" d="M1355.3,2354.1c-12.4,0-24.6-5-35-14.5c-11.9-10.8-20.1-26.4-23.1-43.9c-6.3-36.9,13.1-71.2,43.1-76.3
					c30.1-5.1,59.7,20.7,66,57.7c3,17.5,0.4,34.9-7.3,49.1c-8.1,15-20.8,24.7-35.9,27.2C1360.6,2353.8,1357.9,2354.1,1355.3,2354.1z
					 M1348.1,2238.8c-1.5,0-3,0.1-4.4,0.4c-19.2,3.3-31.2,27.1-26.8,53.2c2.2,13.1,8.2,24.6,16.9,32.4c8,7.2,17.2,10.4,26.1,8.9
					c8.8-1.5,16.5-7.6,21.7-17c5.5-10.3,7.4-23.1,5.1-36.2C1382.5,2256.4,1365.8,2238.8,1348.1,2238.8z"/>
			</g>
			<g>
				<path class="st3" d="M1468.7,2435.4c-6,0-11.3-4.4-12.2-10.5l-15.8-104c-2-13.1,2.7-26.3,12.5-35.2l26.8-24.3
					c3.8-3.4,5.5-8.5,4.6-13.5l-24.1-139.4c-1.2-6.7,3.3-13.1,10.1-14.3c6.7-1.1,13.1,3.3,14.3,10.1l24.1,139.4
					c2.3,13.4-2.3,26.8-12.4,36l-26.8,24.3c-3.7,3.3-5.4,8.3-4.7,13.2l15.8,104c1,6.7-3.6,13-10.3,14.1
					C1470,2435.3,1469.4,2435.4,1468.7,2435.4z"/>
			</g>
		</g>
		<g>
			<path class="st1" d="M858.2,2268.1c0,0-26.8,27.4-23.6,64.1c3.7,42.4,32.3,56.3,32.3,56.3s123,44.9,303.7-17.5
				c0,0,46.1-75.8-19.6-107.2C1151,2263.8,958.5,2315,858.2,2268.1z"/>
		</g>
		<g class="st2">
			<path class="st3" d="M834.6,2332.2c3.7,42.4,32.3,56.2,32.3,56.2s123,44.9,303.7-17.5c0,0,15.1-25,15.6-52.2
				c-0.7,1.4-1.2,2.2-1.2,2.2c-132.1,45.6-233.3,33.9-278.2,24.3c-31.2-6.7-54.6-31.4-57.6-61.8c0-0.4-0.1-0.8-0.1-1.3
				c-0.1-0.7-0.1-1.4-0.1-2.1C841.6,2291.6,832.7,2310.3,834.6,2332.2z"/>
		</g>
		<g>
			<path class="st3" d="M981.7,2420.7c-73.2,0-117.4-15.6-120.5-16.8l-1.5-0.7c-1.5-0.7-37-18.5-41.5-69.7
				c-3.8-43.7,26.9-75.7,28.2-77l8.2-8.3l10.6,4.9c93.6,43.7,279.7-4.8,281.6-5.3l5.9-1.6l5.5,2.6c21.5,10.3,35.5,25.7,41.5,45.9
				c11.9,39.9-13.8,82.9-14.9,84.7l-3.1,5.1l-5.6,1.9C1099.7,2412.9,1033.5,2420.7,981.7,2420.7z M873.6,2373.4
				c12,3.9,125.1,37.7,285.6-15.9c5.9-11.9,14.3-35,8.8-53.4c-2.8-9.5-9.1-17-19.1-22.8c-33.6,8.3-188.9,43.2-285.5,6.9
				c-6.1,9.1-14,24.7-12.4,42.6C853.5,2359.6,869.9,2371.1,873.6,2373.4z"/>
		</g>
		<g>
			<path class="st3" d="M1020,3081.4c14.6-10.7,30.9-19.2,47.8-26.2c17-7,34.8-12.5,53.1-15.8c18.3-3.4,37.2-5.2,56.1-4.5
				c9.5-0.1,18.9,1.2,28.4,2.2c4.8,0.4,9.4,1.5,14.1,2.4l14.1,2.8c9,1.8,14.8,10.5,13,19.4c-1.8,9-10.5,14.8-19.4,13
				c-0.8-0.2-1.6-0.4-2.3-0.6l-1.3-0.5l-12-4.3c-4-1.4-8-3.1-12.1-4c-8.2-2.2-16.5-4.6-25-5.9c-16.9-3.3-34.3-4.3-51.8-3.8
				c-17.5,0.5-35.1,3-52.4,7.2C1053.1,3067.2,1036.1,3073.1,1020,3081.4z"/>
		</g>
		<g>
			<path class="st1" d="M1149.4,2474c-40.2,27.7-73.1-13.9-95-11.2c-19.2,2.4-42.5,51.8-85,68.6c-6,2.4-12.4,4.1-19.2,4.9
				c-54.9,6.8-230.5-39.4-282.9-164.6c-56.1-134,81.8-331.3,179.2-447.2c18-21.4,34.6-40.1,48.3-55c23-25,38-39.6,38-39.6l20.1,159
				l17.5,138.5c0,0-27.9,28.9-27.7,63.9c0.1,23.3,27,42.5,27,42.5s64.9-31.6,89.3-30.4c24.3,1.2,91.3,14.7,106.8,52
				C1181.2,2293,1189.6,2446.3,1149.4,2474z"/>
		</g>
		<g class="st2">
			<path class="st3" d="M1149.4,2474c-40.2,27.7-73.1-13.9-95-11.2c-21.9,2.7-49.3,66.8-104.2,73.6
				c-54.9,6.8-230.5-39.4-282.9-164.6c-13.5-32.3-15.8-68.2-10-105.8c2.1,11.8,5.4,23.3,10,34.4c52.4,125.2,228,171.4,282.9,164.5
				c54.9-6.8,82.3-70.8,104.2-73.5c21.9-2.8,54.9,38.8,95,11.2c16.5-11.4,24.8-44.1,27.8-81.2
				C1181.5,2380.1,1176.4,2455.4,1149.4,2474z"/>
		</g>
		<g>
			<path class="st3" d="M936.7,1834c-18.5,29.6-39.7,56.4-61.3,82.8c-21.4,26.5-43,52.8-64,79.5c-41.7,53.6-78.8,111-106.4,171.9
				c-13.6,30.5-24.7,62-30.4,94.1c-2.8,16-4.1,32.1-3.6,47.9c0.5,15.8,3.2,31.3,8.1,46c10.2,29.4,29.1,56.2,52.7,78.1
				c23.6,22,51.7,39.8,81.5,53.7c29.9,13.8,61.8,24.2,93.9,29.7c8,1.3,16,2.4,23.8,2.8c7.9,0.4,15.1,0.3,21.6-1
				c13.2-2.6,25.8-10,37.4-20.2c5.8-5.1,11.4-10.8,17.1-16.9c5.7-6.1,11.3-12.6,18-19.4c3.5-3.4,7.1-6.9,12.4-10.5
				c2.6-1.7,5.9-3.5,10.1-4.9c4.9-1.4,8.7-1.2,12.7-1.1c3.2,0.5,7,1.1,9.5,2.1l4.1,1.4l3.5,1.5c4.7,2,8.6,4,12.5,5.9
				c7.6,3.7,14.4,6.8,20.8,8.4c6.4,1.6,12,1.8,17.4,0.4c0.7-0.2,1.4-0.2,2-0.5l2-0.9c1.3-0.6,2.7-0.9,4.1-1.9l4-2.4
				c0.7-0.8,1.5-1,2.3-2.1c3.3-3.4,6.6-9.6,9.1-16.5c4.9-14,7.5-30.2,9-46.4c1.5-16.3,1.9-33,1.5-49.6c-0.4-16.6-1.7-33.3-3.8-49.6
				c-1.1-8.1-2.5-16.2-4.3-23.7c-0.9-3.6-2-7.4-3.1-10.1c-1.3-2.5-2.3-5-4.3-7.3c-7.2-9.6-20.8-17.5-35.1-23.1
				c-14.5-5.6-30.4-9.5-45.9-11.3c-3.8-0.5-7.9-0.7-9.7-0.6c-1.4,0.1-3.1,0.4-4.7,0.6l-5.3,1.2c-7.4,1.9-15.1,4.5-22.8,7.3
				c-15.4,5.6-30.9,12.8-45.6,20.3l-9,4.6l-8.6-6.1c-3.2-2.3-5.2-3.9-7.6-6c-2.3-2-4.5-4.1-6.6-6.3c-4.3-4.4-8.2-9.5-11.6-15.2
				c-3.4-5.8-6.1-12.5-7.4-20.1c-0.4-1.9-0.5-3.8-0.5-5.8l-0.1-3l0.2-2.4c0.3-3.2,0.5-6.4,1.2-9.5c2.3-12.4,7.5-23.5,14.4-32.9
				c6.8-9.4,14.8-17.2,25-23.2c2.7-1.6,6.2-0.7,7.8,2.1c0.9,1.5,1,3.3,0.4,4.9l-0.3,0.7c-3.6,9.3-7.3,18.6-9.9,27.4
				c-2.6,8.9-4.4,17.4-4.7,25.4c-0.2,2-0.1,3.9-0.1,5.9l0,1.4l0.2,0.9c0.1,0.6,0.2,1.2,0.4,1.8c0.6,2.5,1.9,5.3,3.8,8.4
				c1.9,3.1,4.4,6.1,7.1,9.2c1.4,1.5,2.8,3,4.4,4.4c1.4,1.4,3.3,3,4.3,3.8l-17.6-1.5c16.4-7.3,32.4-13.9,49.3-20.1
				c8.5-3.1,17-6,26.3-8.3l7.3-1.6c2.7-0.4,5.2-0.8,8.1-1.1c6.8-0.4,11.4,0.1,16.1,0.7c18.7,2.3,36.4,6.6,54,13.4
				c8.8,3.3,17.5,7.6,25.9,12.9c8.4,5.2,16.6,12.1,23.5,21c3.5,4.3,6.3,9.7,8.6,14.9c2.1,5.3,3.3,9.8,4.5,14.5
				c2.2,9.2,3.7,18.1,5,27.1c2.4,17.8,3.7,35.5,4.1,53.2c0.4,17.7,0.1,35.5-1.6,53.5c-1.7,17.9-4.4,36-10.9,54.6
				c-3.4,9.2-7.7,18.9-16.2,28.1c-1.9,2.3-4.8,4.4-7.4,6.4l-7.1,4.2c-2.3,1.5-5,2.5-7.6,3.6l-4,1.6c-1.3,0.5-2.8,0.7-4.2,1.1
				c-11.2,3-23.4,2.3-33.6-0.4c-10.3-2.7-19.2-6.9-27-10.8c-3.9-1.9-7.6-3.8-10.9-5.1c-3.4-1.6-6-2.1-7.5-2.5
				c-0.2,0.2-0.8,0-0.1-0.1c0.1,0-0.5,0.2-1.4,0.8c-1.9,1.2-4.6,3.6-7.2,6.2c-10.9,11.1-22.5,25.5-36.7,37.8
				c-14.1,12.4-31.9,23.6-52.6,27.7c-5.1,1-10.4,1.6-15.4,1.7c-5,0.2-9.7,0.1-14.4-0.2c-9.4-0.5-18.5-1.7-27.4-3.2
				c-17.9-3-35.3-7.4-52.4-12.8c-17.1-5.4-33.8-11.9-50-19.5c-32.4-15.2-63.3-34.5-90.1-59.5c-26.7-24.9-49-55.7-61.3-91.6
				c-6-18-9.2-36.8-9.8-55.3c-0.6-18.6,1-36.9,4.1-54.8c6.4-35.8,18.4-69.6,32.8-101.9c29.1-64.6,68.1-122.9,108.9-179.3
				c20.5-28.2,42.4-55.3,66-80.8c23.5-25.6,48.9-49.6,79.1-68.6c2.6-1.6,6.1-0.9,7.7,1.8c1.2,1.9,1.1,4.2,0,6L936.7,1834z"/>
		</g>
		<g>
			<g class="st2">
				<path class="st3" d="M1567.9,1864.2c-5,5.5-10.2,10.9-15.5,16.2c-6.6,6.5-13.4,13-20.5,19.4c-1.7,1.5-3.5,3.1-5.2,4.6
					c-19.7,17.2-40.2,32.7-61.7,46.6c-3.5,2.3-7.1,4.5-10.7,6.7c-16.7,10.3-33.8,19.5-51.3,27.8c-25.6,12.1-52,22-78.8,29.8
					c-9.8,2.8-19.6,5.4-29.5,7.7c-114.2,26.2-234.9,14.7-341.9-33.9c-24-10.8-47.3-23.5-69.7-38.1c-12.6-8.1-24.8-16.9-36.7-26.2
					c18-21.4,34.6-40.1,48.3-55c10.4-64.7,24-132.3,41.1-201.9l491.5-88.1c24.4,75.8,46.9,147.5,67.1,215
					C1518.2,1818,1543.5,1842.3,1567.9,1864.2z"/>
			</g>
			<g>
				<path class="st1" d="M1699,1504.1c-14.5,86.3-50.8,169.4-108.6,240.8c-11.8,14.6-24.4,28.6-37.9,42.1
					c-6.6,6.6-13.4,13-20.4,19.4c-21.2,19.1-43.6,36.1-66.9,51.1c-20,13-40.8,24.5-62,34.5c-25.6,12.1-52,22-78.8,29.9
					c-9.8,2.8-19.6,5.4-29.5,7.7c-180.9,41.5-378.1-11.8-511.5-156.5c-196.6-213.1-180-543.7,36.9-738.4
					c41.8-37.5,88-67.3,136.7-89.2c5.7-2.6,11.4-5.1,17.3-7.4c15.5-6.4,31.2-12,47.1-16.8c36.8-11.2,74.5-18.3,112.4-21.4
					c37.9-3.1,76-2.3,113.6,2.6c12,1.5,23.8,3.5,35.7,5.8c17.8,3.5,35.4,7.9,52.8,13.3c86.7,26.5,167.6,75.5,233.1,146.5
					C1682,1190.6,1724.5,1352,1699,1504.1z"/>
				<path class="st3" d="M1174.4,1944.8c-147.7,0-290.9-60.7-392.3-170.6c-95-103-143.7-236.4-137.1-375.8
					c6.6-140.5,68.4-270.1,174.1-364.9c41.2-37,87.4-67.1,137.2-89.5c5.4-2.5,11.1-4.9,17.3-7.5c15.5-6.4,31.4-12,47.3-16.9
					c36.5-11.1,74.5-18.3,112.7-21.5c37.9-3.1,76.2-2.3,113.9,2.6c12.1,1.6,24.2,3.5,35.8,5.8c18.2,3.6,36,8.1,52.9,13.4
					c89.6,27.4,170.4,78.2,233.8,147c109.6,118.8,157.2,278.3,130.5,437.5c-14.8,88.2-52.5,171.8-109,241.6
					c-12,14.8-24.8,29-38.1,42.2c-6.1,6.1-12.8,12.4-20.5,19.4c-21,18.9-43.6,36.1-67.1,51.3c-19.7,12.8-40.6,24.4-62.2,34.6
					c-25.3,12-51.8,22-79,29.9c-9.8,2.8-19.7,5.4-29.6,7.7C1255.1,1940.4,1214.6,1944.8,1174.4,1944.8z M1178.2,899.6
					c-14.8,0-29.6,0.6-44.4,1.8c-38,3.1-75.7,10.3-112,21.4c-15.8,4.8-31.6,10.5-47,16.8c-6.2,2.5-11.8,4.9-17.2,7.4
					c-49.5,22.3-95.3,52.2-136.3,89c-105,94.2-166.4,223-173,362.6c-6.5,138.5,41.9,271.1,136.2,373.4
					c128.2,139,323.5,198.8,509.9,156c9.8-2.3,19.7-4.8,29.4-7.6c27-7.9,53.4-17.9,78.5-29.8c21.5-10.1,42.3-21.7,61.8-34.4
					c23.4-15.1,45.8-32.2,66.7-51c7.7-6.9,14.3-13.3,20.4-19.3c13.2-13.2,25.9-27.3,37.8-42c56.1-69.3,93.6-152.3,108.3-240
					c26.5-158.2-20.7-316.6-129.7-434.7c-63-68.3-143.3-118.8-232.3-146c-16.8-5.2-34.5-9.7-52.6-13.3c-11.6-2.3-23.6-4.3-35.6-5.8
					C1224.3,901.1,1201.3,899.6,1178.2,899.6z"/>
			</g>
			<g class="st2">
				<path class="st3" d="M783.3,1773.1c133.4,144.7,330.7,198,511.5,156.5c9.9-2.3,19.7-4.8,29.5-7.6c26.8-7.8,53.2-17.7,78.8-29.8
					c21.2-10,42-21.5,62-34.5c23.3-15,45.6-32.1,66.9-51.1c7-6.4,13.8-12.8,20.4-19.4c13.5-13.5,26.1-27.6,37.9-42.1
					c57.8-71.4,94.2-154.5,108.6-240.8c8-47.4,9.3-95.7,4-143.5c-15.7,82-51.3,160.8-106.5,228.9c-11.8,14.6-24.4,28.6-37.9,42.1
					c-6.5,6.6-13.4,13-20.4,19.4c-21.3,19.1-43.6,36.1-66.9,51.1c-20.1,13-40.8,24.5-62,34.5c-25.6,12.1-52,22-78.8,29.8
					c-9.8,2.8-19.6,5.4-29.5,7.6c-180.8,41.6-378.1-11.8-511.5-156.5c-77.9-84.4-122.2-187.2-134-292.7
					C625.6,1480.6,667.3,1647.3,783.3,1773.1z"/>
			</g>
			<g>
				<path class="st3" d="M1174.5,1955.9c-150.8,0-297-62-400.5-174.2c-97-105.2-146.7-241.5-140-383.8
					c6.8-143.5,69.9-275.8,177.8-372.7c42.1-37.7,89.2-68.5,140-91.4c5.5-2.5,11.3-5.1,17.7-7.6c15.7-6.5,32-12.3,48.2-17.2
					c37.3-11.4,76-18.7,115.1-21.9c38.7-3.2,77.8-2.3,116.3,2.7c12.4,1.6,24.7,3.6,36.6,6c18.6,3.7,36.7,8.3,54,13.6
					c91.4,28,174,79.8,238.7,150c112,121.4,160.6,284.3,133.3,446.9l0,0c-15.1,90.1-53.6,175.4-111.3,246.7
					c-12.2,15.1-25.3,29.6-38.9,43.1c-6.2,6.2-13,12.7-20.9,19.8c-21.5,19.3-44.5,36.9-68.5,52.4c-20.1,13-41.4,24.9-63.5,35.3
					c-25.8,12.2-52.9,22.5-80.7,30.6c-10,2.9-20.1,5.5-30.2,7.8C1256.8,1951.4,1215.5,1955.9,1174.5,1955.9z M1178.2,910.7
					c-14.5,0-29,0.6-43.4,1.8c-37.3,3.1-74.2,10.1-109.7,20.9c-15.5,4.7-30.9,10.2-46,16.4c-6.1,2.5-11.6,4.8-16.8,7.2
					c-48.5,21.9-93.4,51.2-133.6,87.2c-102.8,92.2-162.9,218.3-169.3,354.9c-6.4,135.5,41,265.2,133.3,365.3
					c125.5,136.1,316.8,194.6,499.3,152.7c9.6-2.2,19.3-4.7,28.8-7.5c26.4-7.7,52.3-17.5,76.8-29.1c21-9.9,41.4-21.3,60.5-33.7
					c22.9-14.8,44.9-31.6,65.3-49.9c7.5-6.8,14-13,19.9-18.9c13-12.9,25.4-26.7,37.1-41.1c54.9-67.9,91.6-149.1,105.9-234.9
					c25.9-154.8-20.3-309.8-126.9-425.3c-61.7-66.9-140.3-116.3-227.4-143c-16.5-5.1-33.8-9.5-51.5-13c-11.3-2.3-23-4.2-34.8-5.7
					C1223.4,912.1,1200.8,910.7,1178.2,910.7z M1699,1504.1L1699,1504.1L1699,1504.1z"/>
			</g>
			<g>
				<path class="st3" d="M1174.5,1959.6c-151.8,0-299-62.4-403.2-175.4c-97.7-105.9-147.8-243.2-141-386.5
					c6.8-144.5,70.4-277.7,179-375.2c42.4-38,89.8-68.9,141-92c5.5-2.5,11.4-5.1,17.9-7.7c15.8-6.5,32.2-12.3,48.5-17.3
					c37.6-11.4,76.5-18.9,115.8-22.1c38.9-3.2,78.3-2.3,117,2.7c12.4,1.6,24.8,3.6,36.8,6c18.7,3.7,37,8.3,54.4,13.7
					c92,28.1,175.2,80.4,240.3,151.1c112.8,122.2,161.7,286.2,134.2,450l0,0c-15.2,90.8-54,176.7-112.1,248.4
					c-12.3,15.2-25.5,29.8-39.1,43.4c-6.2,6.2-13.1,12.8-21,19.9c-21.6,19.4-44.8,37.2-69,52.8c-20.2,13.1-41.7,25.1-63.9,35.6
					c-25.9,12.3-53.3,22.6-81.2,30.8c-10.1,2.9-20.3,5.5-30.4,7.9C1257.4,1955,1215.7,1959.6,1174.5,1959.6z M1178.2,914.4
					c-14.4,0-28.8,0.6-43.1,1.8c-37,3-73.6,10-109,20.8c-15.3,4.7-30.7,10.2-45.7,16.3c-6.1,2.4-11.5,4.8-16.6,7.2
					c-48.2,21.7-92.8,50.8-132.7,86.6c-102,91.6-161.7,216.7-168.1,352.3c-6.3,134.5,40.7,263.3,132.3,362.7
					C920,1897,1110,1955.1,1291.2,1913.5c9.5-2.2,19.2-4.7,28.6-7.4c26.2-7.6,51.9-17.4,76.3-28.9c20.9-9.9,41.1-21.1,60.1-33.4
					c22.7-14.7,44.6-31.4,64.8-49.6c7.4-6.7,13.9-12.9,19.8-18.8c12.9-12.8,25.3-26.6,36.8-40.8c54.5-67.4,90.9-148,105.2-233.2
					c25.8-153.6-20.2-307.5-126-422.2c-61.2-66.4-139.3-115.5-225.8-141.9c-16.4-5.1-33.6-9.4-51.2-12.9
					c-11.2-2.2-22.9-4.1-34.6-5.6C1223,915.8,1200.6,914.4,1178.2,914.4z M1699,1504.1L1699,1504.1L1699,1504.1z"/>
			</g>
			<g>
				<path class="st3" d="M1659.8,1632.5c-222.7,303.1-672.4,296.7-815.7-44.6c-97.5-232.2,58.2-506.6,290.8-585.6
					c169.3-57.5,359.7-40.7,520.9,193.6c0,0,55.1,114.6,50.1,205.3c-5,90.7-25.4,178.1-25.4,178.1L1659.8,1632.5z"/>
			</g>
			<g>
				<path class="st6" d="M844.1,1587.9c143.3,341.3,593,347.7,815.7,44.7l4.2-10.8c-303.1,168-691.6,88.5-843-253.9
					C808,1440.5,814,1516.2,844.1,1587.9z"/>
			</g>
			<g>
				<path class="st3" d="M1238.6,1921.1c-65.6,0-130-11.8-189.7-35.4c-122.9-48.8-216.4-142.4-270.2-270.7
					c-49.5-117.9-45.5-252.3,11.3-378.5c63-140.1,184.4-252.1,324.5-299.7c77.9-26.4,152.8-36.6,222.6-30.1l1.5,0.1l1.5,0.5
					c91.8,28.1,174.7,80.2,239.7,150.7c112.4,121.9,161.2,285.5,133.9,448.8l0,0c-15.2,90.5-53.8,176.2-111.7,247.8
					c-12.3,15.1-25.4,29.7-39,43.3c-6.2,6.2-13.1,12.7-20.9,19.9c-21.6,19.4-44.7,37-68.8,52.6l-2.1,1.1
					C1396.3,1904.4,1316.7,1921.1,1238.6,1921.1z M1295.8,934.7c-54.5,0-112,10.2-171.6,30.4c-132.4,45-247.1,151-306.8,283.6
					c-53.3,118.5-57.2,244.4-11,354.6C857.1,1724,944.8,1812,1060,1857.8c122.8,48.8,267.8,43.8,397.9-13.5c22.4-14.6,44-31.1,64-49
					c7.4-6.8,13.9-12.9,19.8-18.8c12.9-12.9,25.3-26.6,36.9-40.9c54.7-67.6,91.1-148.4,105.5-233.8l0,0
					c25.8-154.1-20.2-308.4-126.3-423.4c-61-66.2-138.8-115.2-225-141.9C1320.7,935.2,1308.3,934.7,1295.8,934.7z M1699,1504.1
					L1699,1504.1L1699,1504.1z"/>
			</g>
			<g>
				<path class="st1" d="M614.3,1642.7c28,99.2,111,165.8,185.3,148.8c74.3-17.1,111.9-111.3,83.9-210.5c-0.2-0.6-0.4-1.3-0.6-1.9
					c-28.5-98.2-110.9-163.8-184.7-146.9c-57.4,13.2-92.9,72.4-93.1,144.4C604.9,1597.8,607.9,1620.2,614.3,1642.7z"/>
			</g>
			<g class="st2">
				<path class="st3" d="M614.3,1642.7c28,99.2,111,165.8,185.3,148.8c74.3-17.1,111.9-111.3,83.9-210.5c-0.2-0.6-0.4-1.3-0.6-1.9
					c-5.3,12.1-15.2,25-33.4,25.6c-31.9,1-104-50.4-104-50.4s-61,9.3-140.5,22.3C604.9,1597.8,607.9,1620.2,614.3,1642.7z"/>
			</g>
			<g>
				<path class="st3" d="M776.3,1810.6c-74.8,0-150.8-67.6-177.8-163.4l0,0c-17.5-61.9-11.8-123.8,15.5-169.9
					c19.1-32.3,47-53.4,80.5-61.1c82.7-19,174.5,53,204.8,160.3c17.5,61.9,11.8,123.8-15.5,169.9c-19.1,32.3-47,53.4-80.5,61.1
					C794.4,1809.6,785.3,1810.6,776.3,1810.6z M722.1,1446c-6.8,0-13.6,0.7-20.3,2.3c-24.5,5.6-45.1,21.5-59.6,45.8
					c-22.4,37.8-27,91.7-12.1,144.2l0,0c23,81.5,85.4,139.5,145.5,139.5c6.8,0,13.6-0.7,20.3-2.3c24.5-5.6,45.1-21.5,59.6-45.8
					c22.4-37.8,27-91.7,12.1-144.2C844.6,1503.9,782.2,1446,722.1,1446z"/>
			</g>
			<g>
				
					<ellipse transform="matrix(0.9319 -0.3627 0.3627 0.9319 -546.0444 369.2628)" class="st1" cx="710.3" cy="1638.8" rx="112.2" ry="148.4"/>
				<path class="st3" d="M732.8,1784.7c-3.7,0-7.4-0.2-11.2-0.6c-36.5-4.1-71.9-28-97.3-65.5c-45.5-67.2-44-157.7,3.2-201.7
					c19.7-18.3,44.4-26.4,71.6-23.3c36.5,4.1,71.9,28,97.3,65.5c45.5,67.2,44.1,157.7-3.2,201.7
					C776.2,1776.5,755.5,1784.7,732.8,1784.7z M687.9,1496.3c-21.9,0-41.8,7.8-58.1,23c-46.1,42.9-47.3,131.4-2.7,197.3
					c24.8,36.6,59.4,60,94.8,64c26.1,3,49.9-4.8,68.8-22.4c46.1-42.9,47.3-131.4,2.7-197.3c-24.8-36.6-59.4-60-94.8-64
					C695,1496.5,691.4,1496.3,687.9,1496.3z"/>
			</g>
			<g class="st2">
				<path class="st3" d="M829.5,1670.8c-0.7-28.1-9.2-56.1-23.1-80.7c-3.8,64.2-51.2,103.1-110.3,88.1
					c-38.2-9.7-72.6-39.7-94.1-77.8c-0.3,4-0.3,8.2-0.2,12.5c1.8,71.5,54.3,142.5,117.3,158.4
					C781.9,1787.4,831.4,1742.3,829.5,1670.8z"/>
			</g>
			<g>
				<path class="st3" d="M734.2,1798.3c-58.9,0-118.6-55.8-141.7-136.4c-15-52.2-10.8-105.4,11.2-142.4c14.3-24.1,35-39.7,59.8-45.2
					c64.8-14.4,135.7,44.6,161.4,134.3c15,52.2,10.8,105.4-11.2,142.4c-14.3,24.1-35,39.7-59.8,45.2
					C747.4,1797.6,740.8,1798.3,734.2,1798.3z M682.7,1502.2c-4.3,0-8.5,0.4-12.7,1.4c-16.5,3.6-30.5,14.5-40.5,31.3
					c-17.8,30-20.9,74.4-8.2,118.8l0,0c20.6,72,78.4,123.8,126.1,113.3c16.5-3.6,30.5-14.5,40.5-31.3c17.8-30,20.9-74.4,8.2-118.8
					C777.3,1551.1,727.5,1502.2,682.7,1502.2z"/>
			</g>
			<g class="st7">
				<path class="st1" d="M1050,1139c0,0,225.9-61.2,390.9,22.8c0.2,0.1,0.3,0.2,0.5,0.3c34.7,17.7,63.9,44.4,84.7,77
					c27.5,43.1,40,76.9,49.9,107c29.9,91.6,26.6,140.1,26.6,140.1c37.1-65.4,49-129.9,24.8-206.5c-2.4-7.5-5.2-15.2-8.2-23
					c-0.7-1.8-1.4-3.6-2.2-5.3c0,0,0-0.1-0.1-0.1c-7.4-15.4-17.8-35.2-31.6-56.6c-41.3-64.5-111.9-143.3-215.4-157
					C1176.1,1011.9,1039.2,1131.9,1050,1139z"/>
			</g>
			<g class="st7">
				
					<ellipse transform="matrix(0.9991 -4.206054e-02 4.206054e-02 0.9991 -58.7344 41.4636)" class="st1" cx="956" cy="1416.5" rx="70.9" ry="81.4"/>
			</g>
			<g class="st7">
				
					<ellipse transform="matrix(5.096684e-02 -0.9987 0.9987 5.096684e-02 -647.8193 2446.7371)" class="st1" cx="963.5" cy="1564.2" rx="33.6" ry="29.2"/>
			</g>
		</g>
		<g>
			<g>
				<path class="st1" d="M1778.3,1833.9c20.8-20.3,13.6-140.6,51.4-138.1c58,3.9,42.5,71.7,45,73s28.4,13.4,31.2,42.9"/>
			</g>
			<g>
				<path class="st3" d="M1766.8,1822.1c-0.4,0.3,0.6-1.1,1.2-3.1c0.7-2,1.4-4.5,2.1-7.1c1.3-5.3,2.4-11.2,3.3-17.2
					c2-12.1,3.5-24.9,5.6-37.8c2.1-13,4.3-26.2,8.8-40.2c2.4-7,5-14.3,10.5-22.3c2.8-3.9,6.5-8.2,12-11.7c5.5-3.5,13.1-5.6,19.6-5.1
					c1,0,1.4,0.1,1.9,0.1l1.5,0.1c1,0.1,2,0.2,3,0.4c2,0.3,4.1,0.6,6.2,1.1c4.1,0.9,8.3,2.2,12.5,4c8.3,3.5,16.2,9.4,22,16.7
					c5.8,7.3,9.4,15.5,11.5,23.4c2.1,7.9,3,15.6,3.2,23c0.1,3.7,0,7.3-0.1,10.9l-0.6,9.4c0,0.2,0,0.3,0,0l-0.1-0.5l-0.2-1.2
					l-0.2-0.9c-0.2-0.9-0.6-1.7-1-2.6c-0.3-0.6-0.2-0.4-0.9-1.6c-0.8-1.2-1.7-2.4-2.9-3.4c-0.9-0.9-2.9-2.1-3.1-2.2l0,0l2.2,1.3
					c1.7,1,3.5,2.1,5.1,3.3c3.3,2.3,6.4,4.9,9.1,7.9c11.4,11.4,18,28.9,15.1,44.1c-0.9,4.6-5.4,7.7-10,6.8c-2.7-0.5-4.8-2.2-6-4.5
					l-0.4-0.7c-5.3-10.4-11.4-17.1-19.4-22.7c-1.9-1.4-4-2.7-6.1-3.8c-1-0.6-2.1-1.2-3.2-1.7l-2.1-1l-0.1,0
					c-0.3-0.1-2.3-1.4-3.2-2.3c-1.2-1-2.2-2.3-3-3.5c-0.7-1.2-0.6-1.1-0.9-1.7c-0.4-0.9-0.8-1.9-1.1-2.8l-0.3-1.2l-0.2-1.2l-0.1-0.6
					l-0.1-1.1c-0.1-1.1-0.1-1.8-0.1-2.4l0.2-9.9c0-2.9-0.1-5.7-0.3-8.4c-0.7-10.8-3.7-20.4-8.4-25.6c-2.3-2.7-5-4.6-8.6-6.1
					c-1.8-0.7-3.7-1.3-5.9-1.7c-1.1-0.2-2.2-0.4-3.3-0.5c-0.6-0.1-1.1-0.1-1.8-0.2l-0.9-0.1c-0.3,0-0.6,0-0.5,0
					c0.1,0.1,1.2-0.1,1.3-0.2c0.1-0.1-0.6,0.5-1.5,1.8c-1.9,2.6-3.9,7.4-5.6,12.5c-3.3,10.5-5.7,22.6-7.8,34.9
					c-2.1,12.4-4.2,25.1-6.8,38.2c-1.4,6.6-2.9,13.3-5.1,20.3c-1.1,3.5-2.4,7.2-4.3,11.1c-1.9,3.9-4.1,8.2-9,13.1
					c-6.5,6.3-16.9,6.2-23.3-0.3C1760.2,1838.9,1760.3,1828.5,1766.8,1822.1z"/>
			</g>
		</g>
		<g>
			<path class="st1" d="M3429.5,2495.2c-71.7,93.8-258.9,61.5-258.9,61.5l-2.5-633l-0.5-127.9c0,0,106.7,2.7,187.9,36.1
				c39.1,16.1,72.2,39.3,84.7,72.7C3483.5,2021,3488.4,2418.1,3429.5,2495.2z"/>
		</g>
		<g class="st2">
			<path class="st3" d="M3472.8,2168.8c2.7,138.8-10.2,283.1-43.3,326.4c-71.7,93.8-258.9,61.6-258.9,61.6l-2.9-760.8
				c0,0,2,0,5.6,0.2l2.3,593.2c0,0,187.2,32.2,258.9-61.6C3453.9,2302.4,3466.4,2242.2,3472.8,2168.8z"/>
		</g>
		<g>
			<path class="st3" d="M3243.4,2578.7c-41.3,0-72.4-5.2-75.5-5.7c-9-1.5-15-10-13.4-19c1.5-9,10-15,19-13.4
				c1.8,0.3,178.2,29.4,243-55.3c53-69.2,50.5-461.4,8.4-574.7c-28.2-75.8-195.5-96.5-257.5-98.1c-9.1-0.2-16.3-7.8-16-16.9
				c0.2-9.1,7.8-16.3,16.9-16c10,0.3,245.8,7.5,287.5,119.6c21.4,57.6,34.8,181.5,34,315.8c-0.4,69.4-5.8,236.5-47.1,290.4
				C3395.8,2566.3,3307.4,2578.7,3243.4,2578.7z"/>
		</g>
		<g>
			<path class="st1" d="M3268.1,2191.8l-117.7,9c-10.5,0.8-19.2,8.6-21,18.9c-6.8,38-18,126.5,19,155.7
				c30.7,24.2,80.4,21.3,109.6-3.4c32.6-27.7,35.7-114.5,35.1-157.4C3292.9,2201.2,3281.5,2190.8,3268.1,2191.8z"/>
		</g>
		<g class="st2">
			<path class="st3" d="M3129.5,2219.7c-6.8,38-18,126.5,19,155.7c30.7,24.2,80.4,21.3,109.6-3.4c20-17,28.9-56.4,32.6-94.2
				c-5.3,18.9-13.6,34.2-23.9,44.3c-59.2,57.7-103.6-10.2-103.6-10.2s-7.7,16.5-13.8,17.5c-25.6,3.9-20.4-76.2-16.8-117.7
				C3131.1,2214.1,3130,2216.8,3129.5,2219.7z"/>
		</g>
		<g>
			<path class="st3" d="M3200.2,2407.3c-22.2,0-44.2-6.6-61.1-20c-42-33.1-33.4-120.9-24.5-170.3c3.1-17.2,17.4-30.1,34.8-31.4
				l117.7-9h0c10.5-0.8,21,2.8,28.8,9.9c7.8,7.1,12.3,17.2,12.5,27.8c0.8,60.8-5.5,139.6-40.4,169.2
				C3249.2,2399.3,3224.6,2407.3,3200.2,2407.3z M3269.9,2206.9c-0.2,0-0.4,0-0.6,0h0l-117.7,9c-3.6,0.3-6.6,2.9-7.2,6.5
				c-12.7,70.5-7.5,124.5,13.4,141.1c24.4,19.2,65.7,17.8,90.3-3.1c19.6-16.7,30.7-71.1,29.7-145.7c0-3-1.6-4.9-2.6-5.8
				C3274.4,2208.2,3272.6,2206.9,3269.9,2206.9z M3268.1,2191.8L3268.1,2191.8L3268.1,2191.8z"/>
		</g>
		<g>
			<path class="st3" d="M3175.4,2242.2c1.5,14.9,1.6,29,2.7,42.9c1,13.8,2.8,27.4,6.3,40c3.5,12.6,8.9,24.1,16.6,32.5
				c7.7,8.5,17.7,13.7,29.1,16.2c8.2,1.8,13.3,10,11.5,18.2s-10,13.3-18.2,11.5c-0.4-0.1-0.9-0.2-1.3-0.3c-8-2.5-15.9-6.1-23.1-10.9
				c-7.2-4.8-13.6-10.8-18.8-17.6c-10.4-13.6-15.7-29.3-18.5-44.3c-2.8-15.1-3.4-30-3.3-44.6c0.1-14.5,1.1-28.9,0.9-42.4l0-0.2
				c-0.1-4.4,3.5-8.1,7.9-8.2C3171.5,2234.9,3175,2238.1,3175.4,2242.2z"/>
		</g>
		<g>
			<path class="st3" d="M3198.3,1891.6c-10.8,1-21.8,2.5-32.6,4.2c-10.9,1.7-21.7,3.6-32.4,5.8c-10.7,2.2-21.4,4.6-31.9,7.4
				c-10.5,2.7-20.9,5.8-31.2,9.1l-0.2,0.1c-8,2.5-16.6-1.9-19.1-9.9s1.9-16.6,9.9-19.1c0.6-0.2,1.3-0.4,1.9-0.5
				c11.3-2,22.6-3.9,33.8-5.3c11.3-1.4,22.6-2.5,33.8-3.3c11.3-0.8,22.5-1.4,33.8-1.6c11.3-0.3,22.4-0.3,33.9,0.1
				c3.6,0.1,6.4,3.2,6.3,6.8c-0.1,3.3-2.7,6-5.9,6.3L3198.3,1891.6z"/>
		</g>
		<g class="st2">
			<path class="st3" d="M3332.8,1832c-55.8,42.6-119.6,73.7-187.4,91.8l-0.5-127.9C3144.9,1795.9,3251.6,1798.6,3332.8,1832z"/>
		</g>
		<g class="st2">
			<path class="st3" d="M2878.7,2478.3c-1.4,7.2-2.6,14.4-3.8,21.4C2876,2492.6,2877.3,2485.5,2878.7,2478.3z"/>
		</g>
		<g>
			<path class="st1" d="M3272.3,2281.7c0,2-0.1,4-0.2,6c-1.6,48.8-8,90.2-18.9,122.6c-0.1,0.2-0.2,0.5-0.2,0.7
				c-0.3,0.9-0.6,1.7-0.9,2.6c-7.3,20.8-16.4,40.4-27.2,58.7c-34.8,59.2-86.7,104.8-149.6,133c-28.4,12.7-105,44.1-207.8,45.4
				c-13.5,0.2-27.6-0.2-42.1-1.2c-64-4.4-218.2-40.9-269.3-136.3c-34.3-63.9-26.3-248,15.1-527.4c0.6-3.9,1.2-7.9,1.7-11.9
				c1.1-6.9,2.1-13.8,3.2-20.8c1-6.7,2.1-13.5,3.1-20.4c15.3-97.4,34.2-205.3,56.4-322.8l498.6,26.3
				c22.3,58.2,41.8,115.2,58.6,170.4c3.5,11.6,6.9,23,10.2,34.4c6,21.2,11.8,42.2,17.1,62.8c0.3,1.1,0.6,2.2,0.9,3.3
				C3258.2,2053,3274.8,2182.3,3272.3,2281.7z"/>
		</g>
		<g class="st2">
			<path class="st3" d="M3252.1,2413.7c-30.9,88-94.3,154.8-176.9,191.7c-32.2,14.4-126.1,52.9-249.8,44.3
				c-64-4.4-218.2-40.9-269.3-136.3c-15.9-29.6-22.7-85.1-21.3-164c1.3,46.8,12.6,105,23.6,125.9c54.4,103.5,202.8,82.8,266.9,86.4
				c123.7,7,217.7-24.6,249.8-36.4c82.6-30.2,146-85,176.9-157.3c12.9-30.1,19.8-69.9,20.4-117.6
				C3273.4,2317.3,3266.5,2372.9,3252.1,2413.7z"/>
		</g>
		<g class="st2">
			<path class="st3" d="M2548.4,2160.5c-8,72.9-12.6,136.1-13.5,188.9C2533.5,2300.2,2538.2,2236.8,2548.4,2160.5z"/>
		</g>
		<g class="st2">
			<path class="st3" d="M3095.8,2213.1c-0.3-26.1-2-54.2-4.9-83.9C3094.5,2159.4,3096.2,2187.5,3095.8,2213.1z"/>
		</g>
		<g>
			<path class="st3" d="M2861.3,2667.3c-12.1,0-24.4-0.4-37-1.3l-1.5-0.2l-67.2-10.9c-45.3-10.7-129.4-37.1-183.4-92.6
				c-12.5-12.9-22.8-26.8-30.6-41.3c-47.3-88.4-21.8-387.4,78-914.1c1.7-8.9,10.3-14.8,19.2-13.1c8.9,1.7,14.8,10.3,13.1,19.2
				c-97,511.9-124.3,812.1-81.3,892.5c6.3,11.8,14.8,23.2,25.2,33.9c47.9,49.3,124.8,73.4,166.8,83.4l64.7,10.5
				c104.1,7,188.6-19.5,241.2-43c79.6-35.6,139.3-100.2,168.1-182.1c41.9-119.2,21.8-402.3-117.6-766c-3.3-8.5,1-18,9.5-21.2
				c8.5-3.2,18,1,21.2,9.5c123.3,321.7,170.7,638.6,118,788.7c-31.8,90.5-97.8,162-185.7,201.2
				C3032.2,2642.6,2955.5,2667.3,2861.3,2667.3z"/>
		</g>
		<g>
			<path class="st1" d="M2884.9,2568.2c0,0-22.7,288.4,29.1,489.8c0,0-138.7,85.5-50.5,151.4c96.3,72,347.7,69.8,392.6-23.1
				c45.9-95-23.5-537.9-16.4-851.6L2884.9,2568.2z"/>
		</g>
		<g class="st2">
			<path class="st3" d="M3239.4,2413.9c3.8,304.5,58.9,685.1,16.7,772.3c-44.9,92.9-296.3,95.1-392.6,23.1
				c-21.9-16.4-29.8-33.9-29.3-51.1c109.6,54.7,324.4,45.8,365.6-39.4c38.8-80.2-4.6-408.5-14.8-697.6c-44,3.5-97.6,2.1-159-10
				l-1.6,33c-1.9,38.4-34.9,68.2-73.3,66.3l-324.1-16.2c-38.4-1.9-68.2-34.9-66.3-73.3l1.8-35.9l6.9-136.6
				c1.9-38.4,34.8-68.2,73.3-66.3l324.1,16.2c4.8,0.2,9.4,0.9,13.9,2.1c31.5,8.1,54.1,37.5,52.4,71.2l-1.5,29.8
				c32.5,3.6,154.3,14.6,240.7-13.8c-1.6,48.8-8,90.2-18.9,122.6c-0.1,0.2-0.2,0.5-0.2,0.7C3248.6,2412.1,3244.1,2413,3239.4,2413.9
				z"/>
		</g>
		<g>
			<path class="st3" d="M2890.4,2568.6c5.6,41.2,6.5,82,6.9,122.8c0.7,40.7,0.7,81.4,1.7,122.1c1.5,40.6,4.5,81.2,9.3,121.4
				c5.2,40.2,12,80,21.6,119l2.9,11.6l-10.2,6.5c-5.5,3.5-11.8,7.9-17.4,12.3c-5.7,4.4-11.3,9-16.6,13.9
				c-10.6,9.6-20.2,20.1-27.4,31.3c-7.1,11.1-11.4,22.9-10.5,33.1c0.5,5.1,2.1,10,4.8,14.8c2.5,4.9,7,9.3,11.4,13.7
				c9.6,8.4,22,15.9,34.8,21.9c12.9,6.1,26.6,10.9,40.7,15c14,4.1,28.4,7.3,43,9.6c14.6,2.4,29.3,4.2,44.1,5
				c29.6,1.9,59.4,1.2,88.6-2.7c29-4,57.9-11,82.7-23.8c12.3-6.3,23.4-14.2,31.6-23.6c1.9-2.4,3.8-4.9,5.5-7.4l2.2-3.9l1.1-1.9
				l0.8-2.1c2.4-5.5,4.3-12.1,5.8-18.8c5.8-27.6,7-58.1,7.4-88.2c0.6-60.5-2.8-121.7-6.5-182.7c-3.8-61.1-8.2-122.3-12.3-183.6
				c-4.1-61.3-7.9-122.7-10.5-184.2c-1.2-30.8-4.1-61.5-3.8-92.4c0.3-30.9,2.4-61.9,12.1-92.5c0.9-3,4.2-4.7,7.2-3.7
				c1.9,0.6,3.3,2.1,3.8,3.9l0,0.1c8.4,30.8,10.5,61.1,11.8,91.6c1.5,30.5,0.5,61.1,1.8,91.6c2.6,61.1,6.4,122.2,10.5,183.4
				c4.1,61.2,8.6,122.4,12.3,183.8c3.7,61.4,7.1,122.9,6.5,185.2c-0.6,31.2-1.5,62.4-8.2,94.9c-1.9,8.2-4.1,16.4-7.8,25l-1.3,3.2
				l-1.7,3.1l-3.5,6.1c-2.6,3.9-5.4,7.5-8.3,11.1c-12,13.7-26.6,23.7-41.5,31.4c-30,15.4-61.8,22.7-93.4,27.1
				c-31.7,4.2-63.5,5-95.1,3c-15.8-0.9-31.6-2.9-47.3-5.4c-15.7-2.5-31.3-6-46.8-10.4c-30.8-9.1-61.4-21.1-88.3-44.1
				c-6.5-6.3-13.1-12.9-17.9-21.6c-4.9-8.5-8.3-18.4-9.2-28.6c-0.9-10.2,0.9-20.2,3.8-29.1c3-9,7.1-17,11.8-24.4
				c9.5-14.6,20.9-26.9,33-37.9c6-5.5,12.3-10.7,18.7-15.6c6.5-5,12.8-9.5,20.2-14.2l-7.3,18.1c-10.1-40.8-17.1-81.9-22.4-123.1
				c-2.2-20.6-4.7-41.3-6.1-61.9c-2-20.6-3-41.3-4.5-62c-2.4-41.3-3.6-82.7-2-124c0.8-20.7,1.8-41.3,4.5-61.9
				c2.6-20.6,5.9-41,11.9-61.4c0.9-3,4-4.7,6.9-3.8C2888.6,2564.6,2890.1,2566.4,2890.4,2568.6L2890.4,2568.6z"/>
		</g>
		<g>
			<path class="st3" d="M3041.4,2894.3c-52.7,0-109-7.5-161.9-29.4c-6.4-2.6-9.4-9.9-6.8-16.3c2.6-6.4,9.9-9.4,16.3-6.8
				c158.8,65.5,359.1-8.1,361.1-8.8c6.5-2.4,13.7,0.9,16.1,7.3c2.4,6.5-0.8,13.7-7.3,16.1C3253,2858.6,3155.9,2894.3,3041.4,2894.3z
				"/>
		</g>
		<g>
			
				<ellipse transform="matrix(0.7071 -0.7071 0.7071 0.7071 -861.6945 2462.4219)" class="st1" cx="2541.6" cy="2271.4" rx="62.1" ry="62.1"/>
		</g>
		<g class="st2">
			<path class="st3" d="M2479.5,2273.1c0.9,34.3,29.5,61.3,63.7,60.4c34.3-0.9,61.3-29.5,60.4-63.8c-0.3-9.5-2.6-18.4-6.7-26.4
				c-9.4,21.2-30.4,36.4-55.1,37c-24.7,0.7-46.5-13.3-57-34C2481.1,2254.5,2479.3,2263.6,2479.5,2273.1z"/>
		</g>
		<g>
			<path class="st3" d="M2541.5,2349.9c-42.3,0-77.3-33.8-78.5-76.4c-0.6-21,7-40.9,21.5-56.1c14.4-15.2,33.9-23.9,54.9-24.5
				c20.9-0.6,40.9,7,56.1,21.5c15.2,14.4,23.9,33.9,24.5,54.9c1.2,43.3-33.1,79.4-76.3,80.6
				C2543,2349.9,2542.3,2349.9,2541.5,2349.9z M2541.6,2225.8c-0.4,0-0.9,0-1.3,0c-12.2,0.3-23.5,5.4-31.9,14.2
				c-8.4,8.8-12.8,20.4-12.5,32.6l0,0c0.3,12.2,5.4,23.5,14.2,31.9c8.8,8.4,20.4,12.7,32.6,12.5c25.1-0.7,45-21.7,44.3-46.8
				c-0.3-12.2-5.4-23.5-14.2-31.9C2564.4,2230.2,2553.3,2225.8,2541.6,2225.8z"/>
		</g>
		<g>
			<g class="st2">
				<path class="st3" d="M2539,2328c10.5-69.7,12.4-134.3,9.4-191.8c-1.4,33.2-4.5,68.1-10,104.4c-6.4,42.6-8.3,87-4.3,130.6
					C2535.2,2356.7,2536.9,2342.3,2539,2328z"/>
			</g>
			<g>
				<path class="st1" d="M2598.9,2448.1l324.1,16.2c38.4,1.9,71.3-27.9,73.3-66.3l8.6-172.5c1.7-33.6-21-63.1-52.4-71.2
					c-4.4-1.2-9.1-1.9-13.9-2.1l-324.1-16.2c-38.4-1.9-71.4,27.9-73.3,66.3l-6.9,136.6l-1.8,35.9
					C2530.6,2413.3,2560.5,2446.2,2598.9,2448.1z"/>
			</g>
			<g>
				<path class="st1" d="M3286.2,2222.3c0,0,30,23.8,31.4,60.6c1.6,42.6-25,59.9-25,59.9s-116.5,59.8-303.5,20.4
					c0,0-55.1-69.5,6.1-108.8C2995.2,2254.4,3192.6,2281.3,3286.2,2222.3z"/>
			</g>
			<g>
				<path class="st1" d="M2598.9,2448.1l324.1,16.2c38.4,1.9,71.3-27.9,73.3-66.3l8.6-172.5c1.7-33.6-21-63.1-52.4-71.2
					c-4.4-1.2-9.1-1.9-13.9-2.1l-324.1-16.2c-38.4-1.9-71.4,27.9-73.3,66.3l-6.9,136.6l-1.8,35.9
					C2530.6,2413.3,2560.5,2446.2,2598.9,2448.1z"/>
			</g>
			<g class="st2">
				<path class="st3" d="M2598.9,2448.1l324.1,16.2c38.4,1.9,71.3-27.9,73.3-66.3l8.6-172.5c1.7-33.6-21-63.1-52.4-71.2
					c-19,11.3-31.1,18.5-31.1,18.5c-22.7,137.7-65.6,204.7-237.6,198.9c-74.3-2.5-120.5-16.2-149.3-32.9l-1.8,35.9
					C2530.6,2413.3,2560.5,2446.2,2598.9,2448.1z"/>
			</g>
			<g>
				<path class="st3" d="M2926.5,2479.5c-1.4,0-2.9,0-4.3-0.1l-324.1-16.2c-46.7-2.3-82.9-42.3-80.5-89l8.6-172.5
					c1.1-22.6,11-43.4,27.9-58.6c16.9-15.2,38.5-23.1,61.1-21.9l324.1,16.2c46.7,2.3,82.9,42.3,80.5,89l-8.6,172.5
					c-1.1,22.6-11,43.4-27.9,58.6C2967.6,2471.8,2947.5,2479.5,2926.5,2479.5z M2611,2151c-13.6,0-26.5,5-36.7,14.2
					c-10.9,9.9-17.3,23.3-18.1,37.9l-8.6,172.5c-1.5,30.2,21.8,56,52.1,57.5l324.1,16.2c14.6,0.7,28.6-4.3,39.5-14.2
					c10.9-9.9,17.3-23.3,18.1-37.9l8.6-172.5c0.7-14.6-4.3-28.6-14.2-39.5c-9.9-10.9-23.3-17.3-37.9-18.1l-324.1-16.2
					C2612.8,2151,2611.9,2151,2611,2151z"/>
			</g>
			<g>
				<path class="st1" d="M2585.9,2446.2c4.2,1.1,8.5,1.7,12.9,1.9l324.1,16.2c28.1,1.4,53.3-14.2,65.5-37.8
					c4.5-8.6,7.2-18.2,7.7-28.5l3.9-76.6l1.3-25.3l3.5-70.6c1.9-38.4-27.9-71.3-66.3-73.3l-70-3.5c32,7.7,55.1,37.4,53.4,71.4
					l-4.6,93.2l-4,79.4c-1.9,38.4-34.9,68.2-73.3,66.3L2585.9,2446.2z"/>
			</g>
			<g class="st2">
				<path class="st3" d="M2585.9,2446.2c4.2,1.1,8.5,1.7,12.9,1.9l324.1,16.2c38.4,1.9,71.3-27.9,73.2-66.3l5.1-101.9
					c-9.1,17.6-24.8,39-48.4,40.1c-12.9,0.7-25.1-9.2-35.6-22.9l-4,79.4c-1.9,38.4-34.9,68.2-73.3,66.3L2585.9,2446.2z"/>
			</g>
			<g>
				<path class="st3" d="M2926.6,2479.5c-1.4,0-2.9,0-4.3-0.1l-324.1-16.2c-5.3-0.2-10.7-1-15.9-2.3l4.4-29.5l254.2,12.8
					c14.6,0.8,28.6-4.3,39.5-14.2c10.9-9.9,17.3-23.3,18-37.9l8.6-172.5c1.3-26.3-16.3-49.9-42-56.1l4.3-29.6l70,3.5
					c22.6,1.1,43.4,11,58.6,27.9c15.3,16.9,23,38.6,21.9,61.1l-8.6,172.5h0c-1.1,22.6-11,43.4-27.9,58.7
					C2967.6,2471.8,2947.5,2479.5,2926.6,2479.5z M2904.3,2448.4l19.5,1c14.6,0.8,28.6-4.3,39.5-14.2c10.9-9.9,17.3-23.3,18-37.9
					l0,0l8.6-172.5c0.7-14.6-4.3-28.6-14.2-39.5c-9.9-10.9-23.3-17.3-37.9-18.1l-17.3-0.9c11.3,15.3,17.5,34.4,16.4,54.5l-8.6,172.5
					C2927.3,2414.3,2918.8,2433.6,2904.3,2448.4z"/>
			</g>
			<g>
				<path class="st4" d="M2789.8,2301.4c-0.3,6.4,6.4,58.3,6.4,58.3s16.3,0.7,36.3,1.6c25,1.1,46.5-23.9,47.9-55.9
					c1.4-32-17.7-58.8-42.8-59.9c-16.9-0.7-36.3-1.6-36.3-1.6S2790.3,2291.1,2789.8,2301.4z"/>
			</g>
			<g class="st2">
				<path class="st3" d="M2789.8,2301.4c-0.3,6.4,6.4,58.3,6.4,58.3s16.3,0.7,36.3,1.6c25,1.1,46.5-23.9,47.9-55.9
					c1.4-32-17.7-58.8-42.8-59.9c-16.9-0.7-36.3-1.6-36.3-1.6S2790.3,2291.1,2789.8,2301.4z"/>
			</g>
			<g>
				<path class="st3" d="M2834.2,2371.4c-0.7,0-1.4,0-2.1,0l-25.2-1.1c-11.3-0.5-20.6-9-22-20.3c-5.3-42.9-5.2-47.3-5.1-48.9v0
					c0.3-6.1,3.4-22.4,9.3-48.5c2.5-11,12.4-18.5,23.6-18l25.4,1.1c15.2,0.7,29.1,8.7,39,22.6c9.4,13.1,14.1,30.1,13.3,47.8
					c-0.8,17.7-7,34.2-17.5,46.4C2862.4,2364.7,2848.7,2371.4,2834.2,2371.4z M2799.8,2301.9c0,2.4,1.2,15.7,4.9,45.6
					c0.2,1.5,1.5,2.7,3,2.8l25.2,1.1c9,0.5,17.8-3.9,24.8-12c7.6-8.9,12.1-21,12.7-34.3s-2.8-25.8-9.6-35.3
					c-6.2-8.8-14.6-13.8-23.6-14.2l-25.4-1.1c-1.6,0-2.9,1-3.2,2.5C2803.3,2280.4,2800,2297.2,2799.8,2301.9z"/>
			</g>
			<g>
				
					<ellipse transform="matrix(4.428665e-02 -0.999 0.999 4.428665e-02 375.2562 4995.9478)" class="st4" cx="2798.8" cy="2301.8" rx="57.9" ry="45.4"/>
			</g>
			<g class="st5">
				<path class="st1" d="M2754,2312.3c5.6-25.8,24.6-44.5,46.3-43.5c21.7,0.9,39,21.2,42.2,47.4c0.9-4,1.4-8.1,1.6-12.3
					c1.4-32-17.7-58.8-42.7-59.9c-25.1-1.1-46.5,23.9-47.9,55.9C2753.3,2304.1,2753.5,2308.2,2754,2312.3z"/>
			</g>
			<g class="st2">
				<path class="st3" d="M2796.2,2359.7c25.1,1.1,46.5-23.9,47.9-55.9c0.4-8.1-0.6-15.8-2.6-22.9c-6.6,23.7-24.7,40.4-45.3,39.5
					c-18.7-0.8-34.1-16-40.1-37c-1.4,5.2-2.3,10.7-2.6,16.3C2752.1,2331.8,2771.2,2358.6,2796.2,2359.7z"/>
			</g>
			<g>
				<path class="st3" d="M2797.9,2369.8c-0.7,0-1.4,0-2.1,0c-15.2-0.7-29.1-8.7-39-22.6c-9.4-13.1-14.1-30.1-13.3-47.8l0,0
					c1.7-37.4,27.8-66.8,58.3-65.4c15.2,0.7,29.1,8.7,39,22.6c9.4,13.1,14.1,30.1,13.3,47.8c-0.8,17.7-7,34.2-17.5,46.4
					C2826,2363,2812.3,2369.8,2797.9,2369.8z M2763.5,2300.3c-0.6,13.2,2.8,25.8,9.6,35.3c6.2,8.8,14.6,13.8,23.6,14.2
					c9,0.4,17.8-3.9,24.8-12c7.6-8.9,12.1-21,12.7-34.3c0.6-13.2-2.8-25.8-9.6-35.3c-6.2-8.8-14.6-13.8-23.6-14.2
					C2781.4,2253.1,2764.6,2273.9,2763.5,2300.3L2763.5,2300.3z"/>
			</g>
			<g>
				<path class="st3" d="M2699.7,2464.3c-0.1,0-0.2,0-0.3,0c-6.8-0.2-12.2-5.8-12-12.7l2.8-105.5c0.1-4.8-2.1-9.3-6.1-12L2654,2313
					c-11-7.7-17.2-20.3-16.5-33.7l6.6-141.6c0.3-6.8,6.1-12,12.9-11.8c6.8,0.3,12.1,6.1,11.8,12.9l-6.6,141.6c-0.2,4.9,2,9.5,6,12.3
					l30.1,21.1c10.7,7.5,16.9,19.8,16.6,32.9l-2.8,105.5C2711.8,2459,2706.4,2464.3,2699.7,2464.3z"/>
			</g>
		</g>
		<g>
			<path class="st1" d="M3286.2,2222.3c0,0,30,23.8,31.4,60.6c1.6,42.6-25,59.9-25,59.9s-116.5,59.8-303.5,20.4
				c0,0-55.1-69.5,6.1-108.8C2995.2,2254.4,3192.6,2281.3,3286.2,2222.3z"/>
		</g>
		<g class="st2">
			<path class="st3" d="M3317.6,2283c1.6,42.5-25,59.8-25,59.8s-116.5,59.9-303.5,20.4c0,0-18.1-22.9-22-49.8c0.9,1.3,1.5,2,1.5,2
				c136.7,28.8,235.7,4.6,279.1-10.5c30.1-10.5,50.2-37.9,49.5-68.5c0-0.4,0-0.8,0-1.3c0-0.7,0-1.4-0.2-2.1
				C3305.7,2243.5,3316.8,2260.9,3317.6,2283z"/>
		</g>
		<g>
			<path class="st3" d="M3114.9,2393.2c-38.1,0-81.4-3.8-129.3-13.9l-5.8-1.2l-3.7-4.6c-1.3-1.7-32.2-41.1-25.4-82.2
				c3.4-20.7,15.4-37.8,35.5-50.7l5.1-3.3l6,0.8c1.9,0.3,192.6,25.3,280.1-29.7l9.9-6.2l9.1,7.2c1.5,1.2,36,29,37.6,72.9
				c1.9,51.3-31.1,73.4-32.5,74.3l-1.4,0.8C3296.4,2359.4,3228.7,2393.2,3114.9,2393.2z M2998.7,2348.4
				c166.9,33.4,274.3-14.5,285.4-19.8c3-2.4,18.1-15.8,17.1-45.1c-0.7-18-10.4-32.5-17.6-40.8c-91.4,48.1-249.7,32.8-284.1,28.7
				c-9.2,7.1-14.5,15.3-16.1,25.1C2979.9,2316.9,2992.5,2339.1,2998.7,2348.4z"/>
		</g>
		<g>
			<path class="st3" d="M3122.7,3081.4c-16.1-8.3-33.1-14.2-50.4-18.4c-17.3-4.3-34.9-6.8-52.4-7.2c-17.5-0.5-34.9,0.4-51.8,3.8
				c-8.5,1.2-16.8,3.7-25,5.9c-4.1,0.9-8.1,2.6-12.1,4l-12,4.3l-1.2,0.4c-8.6,3.1-18.1-1.4-21.2-9.9s1.4-18.1,9.9-21.2
				c0.8-0.3,1.6-0.5,2.4-0.7l14.1-2.8c4.7-0.9,9.3-2,14.1-2.4c9.5-1.1,18.9-2.3,28.4-2.2c18.9-0.8,37.8,1.1,56.1,4.5
				c18.3,3.3,36.1,8.7,53.1,15.8C3091.8,3062.1,3108.1,3070.7,3122.7,3081.4z"/>
		</g>
		<g>
			<g class="st2">
				<path class="st3" d="M3192.9,1806.7c-121.1,142.5-281.3,214.1-434.9,202.8c-10.2-0.8-20.3-1.9-30.4-3.3
					c-27.6-4.1-55-10.9-81.7-20.5c-22.2-8-44-17.9-65.2-29.8c-1.5-0.9-3-1.7-4.5-2.6c1-6.7,2.1-13.5,3.1-20.4
					c15.3-97.4,34.2-205.3,56.4-322.8l498.6,26.3C3156.6,1694.5,3176.1,1751.5,3192.9,1806.7z"/>
			</g>
			<g>
				<path class="st1" d="M2313.2,1568.5c25.1,83.8,71.5,161.8,137.7,225.4c13.5,13,27.8,25.3,42.9,37c7.3,5.7,14.9,11.3,22.7,16.7
					c23.4,16.3,47.7,30.4,72.7,42.4c21.5,10.4,43.5,19.2,65.8,26.5c26.9,8.8,54.3,15.4,81.9,19.8c10.1,1.6,20.1,2.9,30.2,3.9
					c184.6,18.7,373.7-58.7,488.1-218.9c168.5-235.9,111-561.8-128.4-728c-46.1-32-95.7-55.8-146.8-71.5c-6-1.9-12-3.6-18.1-5.2
					c-16.2-4.4-32.5-8-48.9-10.8c-37.9-6.5-76.2-8.9-114.2-7.3c-38,1.6-75.7,7.2-112.4,16.7c-11.7,3-23.2,6.4-34.7,10.2
					c-17.2,5.7-34.1,12.3-50.7,19.8c-82.8,37.1-156.9,95.8-213,174.4C2291.1,1255.3,2269,1420.8,2313.2,1568.5z"/>
				<path class="st3" d="M2821.4,1944.8c-18.1,0-36.2-0.9-54.4-2.8c-10.1-1-20.3-2.4-30.3-3.9c-28-4.5-55.6-11.2-82.1-19.9
					c-22.7-7.4-44.9-16.4-66-26.6c-25.2-12.1-49.8-26.4-72.9-42.5c-8.5-6-15.9-11.4-22.7-16.7c-14.8-11.5-29.3-24-43-37.2
					c-64.7-62.2-112.5-140.4-138.2-226.1c-46.3-154.6-18.9-318.8,75.1-450.3c54.3-76.1,128.2-136.6,213.7-174.9
					c16.2-7.3,33.3-14,50.9-19.8c11.3-3.8,23-7.2,34.8-10.3c36.8-9.5,74.7-15.2,112.7-16.8c38.3-1.6,76.9,0.8,114.5,7.3
					c16.4,2.8,32.9,6.5,49,10.9c6.5,1.7,12.4,3.4,18.1,5.3c52.2,16.1,101.7,40.2,147.2,71.8c116.6,81,194.1,201.9,218.1,340.4
					c23.9,137.5-7.9,275.9-89.3,389.9C3156.5,1862.5,2993.3,1944.8,2821.4,1944.8z M2314.8,1568c25.5,85.2,73,162.9,137.3,224.7
					c13.6,13.1,28,25.5,42.8,36.9c6.8,5.3,14.2,10.7,22.6,16.6c23,16,47.4,30.2,72.5,42.3c21,10.2,43.1,19.1,65.6,26.5
					c26.4,8.7,53.8,15.3,81.6,19.8c10,1.6,20.1,2.9,30.1,3.9c190.2,19.3,376.7-64.3,486.6-218.2c80.9-113.3,112.4-250.9,88.7-387.4
					c-23.9-137.7-100.9-257.8-216.8-338.3c-45.2-31.4-94.5-55.3-146.3-71.3c-5.7-1.8-11.5-3.5-18-5.2c-16.1-4.4-32.5-8-48.7-10.8
					c-37.4-6.4-75.7-8.9-113.8-7.2c-37.8,1.6-75.4,7.2-112,16.7c-11.7,3-23.4,6.5-34.6,10.2c-17.5,5.8-34.5,12.5-50.5,19.7
					c-84.9,38.1-158.4,98.2-212.4,173.8C2296,1251.3,2268.8,1414.4,2314.8,1568z"/>
			</g>
			<g class="st2">
				<path class="st3" d="M3255.2,1721.5c-114.4,160.2-303.5,237.6-488.1,218.9c-10.1-1-20.2-2.3-30.2-3.9c-27.6-4.4-55-11-81.9-19.8
					c-22.3-7.3-44.3-16.1-65.8-26.5c-25-12-49.3-26.1-72.7-42.4c-7.7-5.5-15.3-11-22.7-16.7c-15.1-11.7-29.4-24.1-42.9-37.1
					c-66.2-63.7-112.7-141.6-137.7-225.4c-13.8-46-21.1-93.8-21.8-141.9c25.8,79.4,70.9,153.2,134.1,213.9
					c13.5,13,27.8,25.4,42.9,37.1c7.3,5.7,14.9,11.2,22.7,16.7c23.5,16.3,47.7,30.4,72.7,42.4c21.5,10.4,43.5,19.2,65.8,26.5
					c26.9,8.8,54.3,15.4,81.9,19.8c10.1,1.6,20.1,2.9,30.2,3.9c184.6,18.7,373.7-58.7,488.1-218.9c66.8-93.4,98-201,96.6-307.1
					C3375.3,1411.6,3354.6,1582.2,3255.2,1721.5z"/>
			</g>
			<g>
				<path class="st3" d="M2821.4,1955.8c-18.4,0-37-0.9-55.6-2.8c-10.3-1.1-20.7-2.4-30.9-4c-28.6-4.6-56.8-11.4-83.9-20.3
					c-23.1-7.6-45.8-16.7-67.4-27.2c-25.7-12.4-50.8-27-74.4-43.4c-8.7-6.1-16.3-11.7-23.2-17.1c-15.1-11.7-29.9-24.5-43.9-37.9
					c-66.1-63.5-114.9-143.4-141.1-231c-47.3-157.9-19.3-325.6,76.7-460c55.5-77.7,130.9-139.5,218.2-178.6
					c16.5-7.4,34-14.3,51.9-20.2c11.5-3.8,23.5-7.4,35.5-10.5c37.6-9.7,76.3-15.5,115-17.1c39.1-1.7,78.5,0.8,116.9,7.4
					c16.7,2.9,33.6,6.6,50,11.1c6.6,1.7,12.7,3.5,18.6,5.4c53.2,16.4,103.7,41,150.2,73.2c119.1,82.7,198.2,206.1,222.8,347.7
					c24.4,140.4-8,281.9-91.2,398.3C3163.4,1871.9,2996.9,1955.8,2821.4,1955.8z M2325.4,1564.8c24.9,83.3,71.4,159.4,134.3,219.9
					c13.3,12.8,27.4,25,41.9,36.1c6.7,5.2,13.9,10.5,22.2,16.3c22.5,15.6,46.4,29.5,70.9,41.4c20.6,10,42.2,18.7,64.2,25.9
					c25.8,8.5,52.7,15,79.9,19.3c9.7,1.5,19.7,2.8,29.5,3.8c186.2,18.9,368.8-63,476.4-213.6c79.2-110.8,110-245.5,86.8-379.1
					c-23.4-134.7-98.7-252.3-212.2-331.1c-44.3-30.7-92.5-54.2-143.3-69.8c-5.6-1.8-11.3-3.4-17.6-5.1c-15.8-4.3-31.9-7.9-47.8-10.6
					c-36.6-6.3-74.1-8.7-111.5-7.1c-37,1.5-73.9,7-109.7,16.3c-11.5,3-22.9,6.3-33.9,10c-17.1,5.7-33.7,12.2-49.5,19.3
					c-83.2,37.3-155.1,96.1-207.9,170.1C2307,1254.9,2280.4,1414.5,2325.4,1564.8z"/>
			</g>
			<g>
				<path class="st3" d="M2821.4,1959.5c-18.6,0-37.2-0.9-55.9-2.8c-10.4-1.1-20.8-2.4-31.1-4c-28.8-4.6-57.2-11.5-84.5-20.4
					c-23.3-7.6-46.1-16.8-67.8-27.4c-25.9-12.5-51.1-27.2-74.9-43.7c-8.7-6.1-16.4-11.8-23.4-17.2c-15.2-11.8-30.1-24.6-44.2-38.2
					c-66.6-64-115.7-144.4-142.1-232.6c-47.6-159-19.5-327.9,77.2-463.2c55.9-78.2,131.8-140.4,219.7-179.8
					c16.6-7.5,34.2-14.4,52.2-20.4c11.6-3.9,23.6-7.4,35.8-10.5c37.8-9.8,76.8-15.6,115.8-17.2c39.4-1.7,79,0.8,117.7,7.5
					c16.8,2.9,33.8,6.7,50.4,11.2c6.6,1.8,12.8,3.5,18.7,5.4c53.5,16.5,104.4,41.3,151.2,73.7c119.9,83.2,199.6,207.6,224.3,350.1
					c24.5,141.4-8.1,283.8-91.8,401.1C3165.7,1875,2998.1,1959.5,2821.4,1959.5z M2328.9,1563.8c24.8,82.7,70.9,158.2,133.4,218.3
					c13.2,12.7,27.2,24.8,41.6,35.9c6.6,5.2,13.8,10.5,22,16.2c22.3,15.5,46,29.3,70.4,41c20.4,9.9,41.9,18.5,63.8,25.7
					c25.6,8.4,52.3,14.9,79.4,19.2c9.6,1.5,19.5,2.8,29.3,3.8c185,18.8,366.2-62.5,473-212.1c78.6-110,109.2-243.7,86.2-376.3
					c-23.2-133.8-98-250.5-210.6-328.7c-44-30.5-91.8-53.8-142.2-69.3c-5.6-1.8-11.2-3.4-17.4-5c-15.7-4.3-31.6-7.8-47.5-10.5
					c-36.4-6.3-73.6-8.6-110.7-7c-36.7,1.5-73.4,7-109,16.2c-11.4,3-22.7,6.3-33.6,9.9c-17,5.7-33.5,12.1-49.1,19.2
					c-82.6,37-154,95.4-206.4,168.9C2310.7,1256.1,2284.3,1414.6,2328.9,1563.8z"/>
			</g>
			<g>
				<path class="st3" d="M2368,1691c258.7,273,704.1,210.7,803.9-145.8c67.8-242.5-120.8-495.4-361.4-544.8
					c-175.1-36-362,4.4-492.8,256.9c0,0-40.4,120.6-24.2,210c16.2,89.4,47.3,173.6,47.3,173.6L2368,1691z"/>
			</g>
			<g>
				<path class="st6" d="M3171.9,1545.3c-99.7,356.5-545.2,418.8-803.8,145.8l-5.5-10.2c321.6,129,697.3,1.8,804.9-356.8
					C3189.3,1394.6,3192.8,1470.4,3171.9,1545.3z"/>
			</g>
			<g>
				<path class="st3" d="M2752.5,1929.3c-55.7,0-112.3-8.2-167.6-24.9l-2.2-0.8c-25.8-12.4-51-27.1-74.8-43.6
					c-8.7-6.1-16.3-11.7-23.3-17.2c-15.2-11.7-30-24.6-44.1-38.1c-66.4-63.8-115.4-144-141.7-231.9c-47.5-158.6-19.4-327,77-461.9
					c55.7-78,131.5-140,219.1-179.3l1.4-0.6l1.5-0.3c68.5-15.1,144.1-14.3,224.6,2.2c145,29.8,279.3,125.9,359.3,257
					c72,118.1,92.7,251,58.3,374.1c-37.5,134-118.6,238.5-234.5,302.2C2929.7,1908,2842.2,1929.3,2752.5,1929.3z M2594.6,1876
					c136.2,40.7,280.7,27.6,396.5-36.1c108.7-59.8,184.8-158,220-284c32.2-115,12.6-239.5-55-350.4
					c-75.7-124.2-202.7-215.1-339.7-243.2c-75.8-15.6-146.7-16.5-210.7-2.6c-82.2,37.1-153.2,95.5-205.6,168.8
					c-91,127.3-117.5,286.2-72.7,435.9c24.8,83,71.1,158.7,133.8,218.9c13.3,12.8,27.3,24.9,41.7,36c6.6,5.2,13.9,10.5,22.1,16.3
					C2547.2,1850.7,2570.6,1864.4,2594.6,1876z"/>
			</g>
			<g>
				<path class="st1" d="M3406.7,1571.1c-15.5,101.9-89.5,178.3-165.3,170.7c-75.9-7.7-124.8-96.5-109.4-198.4
					c0.1-0.6,0.2-1.3,0.3-2c16.1-100.9,89.7-176.3,165-168.7c58.6,5.9,101.2,60.3,110.4,131.7
					C3410.4,1525.4,3410.2,1547.9,3406.7,1571.1z"/>
			</g>
			<g class="st2">
				<path class="st3" d="M3406.7,1571.1c-15.5,101.9-89.5,178.3-165.3,170.7c-75.9-7.7-124.8-96.5-109.4-198.4
					c0.1-0.6,0.2-1.3,0.3-2c6.8,11.3,18.2,22.9,36.3,21.2c31.7-3,97-62.9,97-62.9s61.7,1.6,142.2,4.7
					C3410.4,1525.4,3410.2,1547.9,3406.7,1571.1z"/>
			</g>
			<g>
				<path class="st3" d="M3251.7,1758.7c-4,0-8-0.2-12-0.6c-34.2-3.5-64.5-21-87.5-50.6c-32.8-42.3-46.2-103.1-36.5-166.7
					c16.7-110.3,99-193.1,183.3-184.6c34.2,3.5,64.5,21,87.5,50.6c32.8,42.3,46.2,103.1,36.5,166.7l0,0
					C3407,1678.6,3331.7,1758.7,3251.7,1758.7z M3286.6,1388.6c-64,0-124.9,68.1-138.4,157.2c-8.2,53.9,3,106.8,30,141.6
					c17.3,22.4,39.8,35.5,64.8,38.1c67.2,6.8,133.3-63.5,147.4-156.8l0,0c8.2-53.9-3-106.8-30-141.6c-17.3-22.4-39.8-35.5-64.8-38.1
					C3292.6,1388.7,3289.6,1388.6,3286.6,1388.6z M3406.7,1571.1L3406.7,1571.1L3406.7,1571.1z"/>
			</g>
			<g>
				
					<ellipse transform="matrix(0.244 -0.9698 0.9698 0.244 971.6882 4404.666)" class="st1" cx="3310.9" cy="1579.1" rx="148.4" ry="112.2"/>
				<path class="st3" d="M3295.4,1727.4c-18.4,0-35.9-5.7-51.5-17c-52.3-37.8-65-127.4-28.3-199.8c20.5-40.3,52.7-68.4,88.4-77.1
					c26.5-6.4,52.1-1.5,73.9,14.2c52.4,37.8,65,127.4,28.3,199.8c-20.5,40.3-52.7,68.4-88.4,77.1
					C3310.2,1726.5,3302.7,1727.4,3295.4,1727.4z M3326.4,1434.3c-7.1,0-14.3,0.9-21.6,2.6c-34.7,8.4-66.1,35.9-86.1,75.3
					c-36,70.9-23.8,158.6,27.2,195.4c21,15.1,45.5,19.8,71.1,13.7c34.7-8.4,66.1-35.9,86.1-75.3l0,0c36-70.9,23.8-158.6-27.2-195.4
					C3360.9,1439.8,3344.1,1434.3,3326.4,1434.3z"/>
			</g>
			<g class="st2">
				<path class="st3" d="M3196.6,1625.7c-2.8-28,2.2-56.8,12.9-82.9c11.8,63.2,63.6,96,120.4,73.7c36.7-14.4,67.1-48.4,83.7-88.9
					c0.8,4,1.3,8.1,1.8,12.4c7.1,71.2-36.2,148.1-96.6,171.8C3258.4,1735.5,3203.7,1696.9,3196.6,1625.7z"/>
			</g>
			<g>
				<path class="st3" d="M3295.7,1741.1c-2.8,0-5.6-0.1-8.4-0.4c-25.3-2.4-47.7-15.3-65-37.4c-26.4-33.9-37.2-86.2-28.9-139.9
					c14.3-92.1,77.3-159.5,143.5-153.3c25.3,2.4,47.7,15.3,65,37.4c26.4,33.9,37.2,86.2,28.9,139.9l0,0
					C3417,1675.6,3358.6,1741.1,3295.7,1741.1z M3328.8,1439.7c-47,0-94.6,57-105.7,128.3c-7.1,45.6,1.5,89.3,22.9,116.8
					c12,15.4,27.3,24.4,44.1,26c48.6,4.5,99.5-54.1,111-128.1l0,0c7.1-45.6-1.5-89.3-22.9-116.8c-12-15.4-27.3-24.4-44.1-26
					C3332.3,1439.8,3330.5,1439.7,3328.8,1439.7z"/>
			</g>
			<g class="st7">
				<path class="st1" d="M2905.2,1130.9c0,0-228.9-32.2-380.2,70.4c-0.2,0.1-0.3,0.2-0.5,0.3c-31.8,21.6-57.1,51.4-73.5,85.9
					c-21.6,45.6-29.8,80.2-35.7,111c-18.1,93.4-8.8,140.6-8.8,140.6c-44.4-59.5-63.9-121.3-49.7-199.3c1.4-7.7,3.2-15.6,5.3-23.6
					c0.5-1.9,1-3.7,1.5-5.5c0,0,0-0.1,0-0.1c5.3-16,13.2-36.7,24-59.3c32.5-68.3,92-154.1,191.8-180.3
					C2766,1021.9,2914.9,1122.6,2905.2,1130.9z"/>
			</g>
			<g class="st7">
				
					<ellipse transform="matrix(0.9966 -8.255068e-02 8.255068e-02 0.9966 -104.2359 256.061)" class="st1" cx="3044.5" cy="1388.6" rx="70.9" ry="81.4"/>
			</g>
			<g class="st7">
				
					<ellipse transform="matrix(0.9846 -0.1748 0.1748 0.9846 -221.4519 557.7116)" class="st1" cx="3055.4" cy="1536" rx="29.2" ry="33.6"/>
			</g>
		</g>
		<g>
			<path class="st1" d="M3497.4,1955.6c-105.3,174.8-326.5,171.3-326.5,171.3l-73-253.6c0,0,83.9-48.6,104.8-121
				c29.9-103.6-31.8-300-31.8-300s-40,22.6-83.8-11c-146.4-112.1-39.2-203.2-35-206.6c0,0,0,0,0.1-0.1
				c-2.6,0.3-104.1,11.4-113.9-51.5c-0.9-5.5-0.4-10.8,1.2-15.8c18.3-57.7,186.9-83.3,251.4-64.4
				C3464.4,1183.2,3632.5,1731.3,3497.4,1955.6z"/>
		</g>
		<g class="st2">
			<path class="st3" d="M3156.5,1190.5c-38,6-77.4,27-104.5,44.1c-2.6,0.3-104.1,11.4-113.9-51.5c-0.9-5.5-0.4-10.8,1.2-15.8
				c20.7,24.4,66,29.3,115.5,19.7C3120.2,1174.5,3156.5,1190.5,3156.5,1190.5z"/>
		</g>
		<g class="st2">
			<path class="st3" d="M3087,1441.3c-92.1-70.5-83.8-132.7-64-170c11.9,19.6,4.3,60.5,51.5,91c78.3,50.6,167.9-13.3,178.6,9.8
				c19.5,42.4-74.8,116.4-48.4,231.8c-11.2-79.7-33.8-151.6-33.8-151.6S3130.9,1474.9,3087,1441.3z"/>
		</g>
		<g class="st2">
			<path class="st3" d="M3497.4,1955.6c-105.3,174.8-326.5,171.3-326.5,171.3l0,0c-17.5-41,5.7-87.9,49-99
				c83-21.5,206.6-70.7,272.6-180.2c29.9-49.6,45-115,47.3-187.8C3553.3,1774.6,3541.5,1882.3,3497.4,1955.6z"/>
		</g>
		<g>
			<path class="st3" d="M3170.9,2121.4c36.5-6.5,72.4-15.1,107-26.1c34.6-11.1,68-25.2,98.5-43.9c30.4-18.6,58.5-41.3,81.2-68.7
				c11.3-13.6,21.9-28.4,30.1-43.9l6.3-11.6c1.9-4,3.5-8.1,5.3-12.2c1.7-4.1,3.6-8.1,5.1-12.3l4.2-12.7
				c11-34.1,16.6-70.3,18.8-106.7c2.2-36.5,0.9-73.3-2.8-109.9c-3.7-36.6-10.4-73-18.8-108.9c-8.5-35.9-19-71.4-31.9-106
				c-12.8-34.6-27.5-68.5-44.4-101.3c-17.1-32.6-36.3-64-58.1-93.5c-21.7-29.4-45.9-56.9-73.2-80.7c-27.2-23.7-57.5-43.6-90.4-56.6
				l-12.5-4.4c-4.1-1.3-8.5-3.2-12.2-4c-7.8-2-16.4-3.1-25.1-3.9c-17.5-1.3-35.6-0.9-53.6,0.6c-35.9,3.2-72.3,10.3-104.7,23.4
				c-8.1,3.3-15.7,7.2-22.7,11.5c-6.9,4.3-13.2,9.2-17.2,14.4c-4.1,5.3-5.6,10-5.3,14.9l0.1,1.9l0.5,2.4c0.2,1.7,0.9,3.1,1.3,4.7
				c1.2,2.9,2.5,5.7,4.5,8.2c7.3,10.2,22.2,16.8,38.4,20c8.1,1.7,16.7,2.5,25.4,2.9c4.3,0.2,8.7,0.2,13,0.1
				c4.2-0.1,8.9-0.4,12.6-0.8c9.1-1,17.2,5.6,18.1,14.7c0.6,5.6-1.7,10.8-5.7,14.3l-0.2,0.2c-0.6,0.5-1.9,1.7-2.9,2.6
				c-1.1,1-2.1,2.1-3.2,3.2c-2.1,2.2-4.2,4.5-6.1,6.9c-3.9,4.8-7.4,9.8-10.5,15.1c-6.2,10.5-10.4,21.8-12.1,33.3
				c-3.7,23.1,3.9,46.9,18.1,67.7c7.1,10.4,15.4,20.3,24.9,29.4c4.6,4.6,9.7,8.9,14.6,13.3l7.8,6.3l3.9,3.1l3.6,2.5
				c9.6,6.7,20.2,11.1,31.2,12.1c5.5,0.6,11,0.5,16.4-0.4c2.7-0.5,5.4-1.1,8-1.9c1.3-0.4,2.6-0.8,3.8-1.3c1.1-0.4,2.6-1.2,2.8-1.2
				l2.4-1c8.3-3.3,17.6,0.8,20.9,9.1c0.2,0.4,0.3,0.9,0.4,1.3c11.5,38.4,20.7,76.6,28.1,115.7c7.2,39,12.2,78.7,12.7,119.2
				c0.3,5-0.2,10.2-0.2,15.3c-0.2,5.1-0.2,10.2-0.6,15.4l-1.6,15.5c-0.3,5.2-1.5,10.4-2.6,15.6c-1.2,5.2-1.9,10.5-3.7,15.7
				c-1.9,5.2-3.2,10.6-5.7,15.5c-4.4,10-9.7,19.5-15.8,28.2c-12.2,17.4-26.8,32.6-43.1,45c-8.1,6.3-16.6,11.9-25.5,16.9
				c-8.9,5-18,9.3-28,12.6c-2.9,1-6.1-0.6-7.1-3.6c-0.7-2.1-0.1-4.3,1.4-5.7l0.2-0.2c27.4-27.3,54.2-54.1,73.2-84.1
				c4.8-7.5,8.8-15.2,12.2-23.1c1-1.9,1.6-3.9,2.3-5.9l2.2-6c0.8-1.9,1.2-4.2,1.7-6.3l1.6-6.4c2.5-8.4,3.1-17.7,4.5-26.6
				c0.5-4.5,0.5-9.2,0.8-13.8c0.1-4.7,0.7-9.2,0.5-14c0-37.5-5.1-75.6-11.9-113.3c-7.1-37.6-16.2-75.4-27.1-111.8l23.8,9.4l-2,1
				l-1.6,0.8c-1,0.5-2.1,0.9-3.1,1.3c-2,0.8-4.1,1.5-6.1,2.2c-4.1,1.3-8.2,2.2-12.4,3c-8.4,1.4-16.9,1.6-25.4,0.7
				c-17-1.7-33-8.5-46.3-17.7l-5-3.5l-4.3-3.4l-8.6-6.9c-5.5-4.9-11.2-9.6-16.4-14.9c-10.8-10.2-20.6-21.9-29.3-34.5
				c-8.6-12.7-15.8-27-20.2-42.5c-4.4-15.5-5.7-32.3-3.2-48.4c2.3-16.2,8.2-31.5,16.2-45.1c4-6.8,8.5-13.3,13.5-19.3
				c2.5-3,5.1-6,7.8-8.8c1.4-1.4,2.8-2.8,4.2-4.2c1.5-1.5,2.8-2.6,4.9-4.4l12.3,29.1c-5.7,0.6-10.4,0.8-15.6,1
				c-5,0.1-10.1,0.1-15.2-0.1c-10.1-0.4-20.3-1.4-30.6-3.5c-10.3-2-20.6-5.2-30.8-10.2c-10.1-5.1-20.2-12.3-27.6-22.5
				c-3.8-5-6.7-10.7-8.9-16.5c-0.9-2.9-2-5.9-2.5-8.9l-0.9-4.5c-0.2-1.6-0.3-3.4-0.4-5.1c-0.1-1.7-0.3-3.4-0.1-5.2l0.6-5.2
				c0.3-3.5,1.5-6.7,2.5-10c1-3.3,2.7-6,4.2-9c1.6-2.7,3.5-5.2,5.3-7.8c7.6-9.6,16.6-16.3,25.5-21.9c9-5.6,18.2-10.2,27.6-14
				c18.6-7.6,37.6-13.1,56.7-17.2c19.1-4.1,38.4-7,57.8-8.6c19.4-1.7,39-2.1,59-0.6c10,0.9,20.1,2.2,30.6,4.8
				c5.5,1.2,9.7,3.1,14.6,4.7l14.1,5c37.1,14.6,70.5,36.7,99.9,62.3c29.4,25.7,55.2,55,78.1,86c22.9,31.1,43,63.9,60.8,97.9
				c17.6,34.1,32.8,69.2,46.1,105.1c13.4,35.8,24.3,72.6,33,109.8c8.7,37.2,15.6,75,19.5,113.1c3.9,38.2,5.2,76.7,2.9,115.3
				c-2.4,38.5-8.3,77.3-20.3,114.8l-4.6,14c-1.7,4.6-3.8,9.2-5.7,13.7c-2,4.6-3.8,9.1-5.9,13.7l-7,13.3c-9.2,17.8-20.5,33.9-33,49.3
				c-24.6,31-55.2,57.3-88.9,77.7c-33.8,20.4-70.7,34.9-108.5,43.8c-18.9,4.5-38.2,7.3-57.5,8.6c-19.4,1.2-38.6,1.2-58-1.8
				c-3-0.5-5.1-3.3-4.6-6.3c0.4-2.4,2.2-4.2,4.5-4.6L3170.9,2121.4z"/>
		</g>
		<g>
			<path class="st3" d="M3243.9,1400.5c-1.9,4.7-3.7,7.8-5.8,11.3c-2.1,3.5-4.4,6.7-6.7,9.9c-4.8,6.3-10.2,12.1-15.8,17.5
				c-5.7,5.4-11.8,10.4-18,15.1c-3.1,2.4-6.4,4.5-9.6,6.7l-9.9,6.2c-7.8,4.8-18,2.5-22.8-5.3c-4.8-7.8-2.5-18,5.3-22.8
				c0.9-0.5,1.8-1,2.7-1.4l0.7-0.3l9.5-3.6c3.1-1.4,6.2-2.6,9.2-4.1c6.1-2.9,12-6.1,17.6-9.8c5.6-3.6,11-7.6,16-12.1
				c2.5-2.2,4.9-4.5,7-7c2.1-2.3,4.4-5.2,5.7-7.1l0.8-1.1c2.6-3.7,7.7-4.6,11.4-2C3244.2,1392.9,3245.3,1397,3243.9,1400.5z"/>
		</g>
		<g>
			<path class="st3" d="M3406.2,1752.6c-97.5,0-194.9-48.7-201.1-51.8c-6.2-3.1-8.6-10.6-5.5-16.8c3.1-6.1,10.7-8.6,16.8-5.5
				c2.2,1.1,220.4,110,316.3-1.6c4.5-5.2,12.4-5.8,17.6-1.3c5.2,4.5,5.8,12.4,1.3,17.6C3513.2,1737.9,3459.7,1752.6,3406.2,1752.6z"
				/>
		</g>
		<g>
			<path class="st3" d="M3161.3,1192.4c-20.8,5.3-40.5,12.7-58.1,23.4c-17.7,10.6-33.5,24.3-48.5,39.1c-6.5,6.4-16.9,6.4-23.3-0.1
				c-6.4-6.5-6.4-16.9,0.1-23.3c0.5-0.5,1.1-1,1.6-1.4c18-13.8,37.4-26.8,58.8-36.3c21.4-9.6,44.1-14.8,66.3-17.6l0,0
				c4.5-0.6,8.6,2.6,9.2,7.1C3168,1187.5,3165.3,1191.3,3161.3,1192.4z"/>
		</g>
		<g>
			<path class="st3" d="M1778.6,2263.3c-2.3,0-4.7-0.6-6.8-2c-134.8-87.1-89.4-315.8-87.4-325.5c1.4-6.8,8-11.1,14.8-9.7
				c6.8,1.4,11.1,8,9.7,14.8c-0.5,2.2-43.9,221.7,76.5,299.4c5.8,3.7,7.5,11.5,3.7,17.3C1786.7,2261.3,1782.7,2263.3,1778.6,2263.3z
				"/>
		</g>
		<g>
			<path class="st3" d="M913.6,2308.2c0.5-4.9,1.3-8.6,2.3-12.8c1-4,2.2-8,3.6-11.8c2.7-7.7,6.2-15.2,10.1-22.4
				c4-7.1,8.4-14.1,13.4-20.7c2.4-3.4,5.1-6.4,7.7-9.7c2.7-3.1,5.5-6.1,8.2-9.2c6.1-6.8,16.6-7.3,23.4-1.2
				c6.8,6.1,7.3,16.6,1.2,23.4c-0.6,0.7-1.3,1.4-2.1,1.9l-0.7,0.6c-2.7,2.1-5.6,4.2-8.3,6.4c-2.6,2.3-5.4,4.4-7.9,6.9
				c-5.2,4.7-9.9,9.9-14.4,15.2c-4.4,5.5-8.4,11.2-11.9,17.3c-1.8,3-3.4,6.1-4.8,9.3c-1.4,3-2.7,6.6-3.5,9.2l-0.3,1
				c-1.4,4.3-6,6.7-10.3,5.4C915.5,2315.7,913.2,2312,913.6,2308.2z"/>
		</g>
		<g>
			<path class="st3" d="M659.9,2263.9c-3.1,0-6.2-1.2-8.7-3.5c-5-4.8-5.1-12.7-0.3-17.7c35.4-36.7,176.3-105.7,299.1-50.8
				c6.3,2.8,9.1,10.2,6.3,16.5c-2.8,6.3-10.2,9.1-16.5,6.3c-111.6-49.9-239,12.2-270.9,45.4C666.5,2262.6,663.2,2263.9,659.9,2263.9
				z"/>
		</g>
	</g>
</g>
</svg>
