<?xml version="1.0" encoding="UTF-8"?>
<svg id="Layer_1" data-name="Layer 1" xmlns="http://www.w3.org/2000/svg" viewBox="0 0 4000 4000">
  <defs>
    <style>
      .cls-1 {
        fill: #fff;
      }

      .cls-2 {
        fill: #fbb987;
      }

      .cls-3 {
        fill: #e5ac1f;
      }

      .cls-4 {
        fill: #6b9e35;
      }

      .cls-5 {
        fill: #b3b9bc;
      }

      .cls-6 {
        fill: #111a28;
      }

      .cls-7 {
        fill: #371a45;
      }

      .cls-8 {
        fill: #3ab7fc;
      }

      .cls-9 {
        fill: #82c146;
      }

      .cls-10 {
        opacity: .2;
      }

      .cls-11 {
        opacity: .25;
      }

      .cls-12 {
        opacity: .5;
      }

      .cls-13 {
        opacity: .7;
      }
    </style>
  </defs>
  <g class="cls-10">
    <ellipse class="cls-7" cx="825.93" cy="3161.25" rx="685.93" ry="143.75"/>
  </g>
  <g class="cls-10">
    <ellipse class="cls-7" cx="2520.15" cy="3173.75" rx="925.15" ry="111.25"/>
  </g>
  <g>
    <path class="cls-1" d="m1955.35,2572.2c-74.45,46.8-369.1,204.1-432,40.3-16.8-43.65-24.5-94.75-25.65-148.95-4-182.65,66.05-401,112.3-493.55,29.5-59,72.3-87.05,108.15-100.3,37.15-13.75,66.85-11.65,66.85-11.65l161.65,51.5s10.35,504.6,21.1,624.9c1.5,16.5,3,25.75,4.45,25.55,1.75-.25-4.55,4.5-16.85,12.2Z"/>
    <g class="cls-11">
      <path class="cls-7" d="m1967.75,2534.45c-4,13.15-8.15,25.7-12.4,37.75-74.45,46.8-369.1,204.1-432,40.3-16.8-43.65-24.5-94.75-25.65-148.95,63.15-3.15,134.75-20,130.75-55.75-6.55-58.85,43.2-336.15,83.2-437.8,40-101.65-6.65-86.25-6.65-86.25l13.15-14.05c37.15-13.75,66.85-11.65,66.85-11.65l161.65,51.5s10.35,504.6,21.1,624.9Z"/>
    </g>
    <path class="cls-7" d="m1643.36,2705.31c-84.78,0-122.31-43.02-138.69-85.64-74.28-193.28,20.3-524.33,87.44-658.62,65.21-130.42,189.07-123.31,194.29-122.96,11.02.77,19.33,10.33,18.55,21.35-.77,10.99-10.23,19.3-21.26,18.56-4.2-.24-102.82-5.01-155.8,100.94-62.38,124.76-154.84,446.95-85.89,626.38,11.31,29.44,31.67,47.57,62.26,55.45,106.67,27.48,298.91-77.28,345.69-108.57-4.71-30.96-8.94-109.11-15.22-320.79-4.74-159.53-8.04-319.86-8.07-321.46-.22-11.05,8.54-20.18,19.58-20.41,11.11-.05,20.18,8.54,20.41,19.58,4.66,227.67,14.89,596.33,22.94,640.59,1.13,1.85,1.98,3.91,2.46,6.13,3.25,15.04-7.14,21.51-27.84,34.4-14.7,9.16-33.09,19.67-51.79,29.6-38.41,20.4-97.14,48.58-158.72,66.94-43.62,13-80,18.51-110.34,18.51Zm328.86-165.31c1.61,0,3.18.19,4.71.56-2.27-.56-4.76-.73-7.41-.38.91-.12,1.81-.18,2.71-.18Z"/>
    <path class="cls-1" d="m2570,3167.5c-45,45.85-275.85,33.35-338.35,21.65-62.5-11.65-66.65-90-66.65-90l.35-11.75,12.15-417.4c-32.5,4.3-65.6,3.7-99.15-.85-3.85,113.55-7.2,213.9-10,297.5,19.15,9.5,33.95,22.5,44.65,37.45,44,61.9,17.85,158.05-61.35,187.55-139.65,27.35-297.6,17.05-360.9-83-10.45-16.55-15.95-35.75-16.95-55.35l-3.45-67.55-.65-12.45c-7.8-152.85-6.75-306.05,4.95-458.65,20.65-269.9,66.45-500,185.65-613.95l431.35-59.05c108.35-11.65,285,59.05,285,59.05l20,109.3s-73.3,73.35-51.65,378.35c1.35,18.95,2.4,37.75,3.25,56.25,12.65,279.1-29.1,500.4-29.1,500.4,128.35,64.15,95.85,176.65,50.85,222.5Z"/>
    <path class="cls-7" d="m1924.04,3224.87c-116.94,0-206.64-36.7-250.19-105.54-11.88-18.78-18.81-41.26-20.02-64.99l-4.1-80c-8.07-157.59-6.41-312.77,4.96-461.22,25.33-330.97,84.48-524.3,191.81-626.88,7.98-7.64,20.64-7.34,28.28.64,7.63,7.99,7.34,20.64-.64,28.28-99.66,95.26-155.04,280.62-179.56,601.02-11.23,146.77-12.88,300.23-4.89,456.13l4.1,80c.86,16.88,5.66,32.67,13.87,45.65,72.81,115.1,275.31,86.59,338.51,74.41,39.13-15.25,65.74-52.21,67.95-94.6,2.1-40.29-18.34-75.12-54.68-93.19-7.02-3.49-11.35-10.75-11.09-18.58l10-297.5c.19-5.65,2.76-10.96,7.08-14.61,4.33-3.65,10-5.29,15.59-4.54,32.8,4.45,64.38,4.72,93.86.83,5.84-.79,11.67,1.05,16.02,4.98,4.36,3.93,6.76,9.57,6.59,15.43l-12.47,428.2c.56,7.13,6.33,62.51,50.32,70.73,72.57,13.55,285.37,19.65,320.39-16.02,21.03-21.41,39.28-60.73,32.67-100.32-6.19-37.06-32.5-67.44-78.18-90.28-7.99-4-12.36-12.81-10.71-21.59.47-2.5,46.75-252.88,25.54-551.54-18.5-260.44,30.45-357.24,50.3-385.13l-16.33-89.27c-38.58-14.41-177.57-63.23-265.21-53.8-11.03,1.17-20.84-6.76-22.03-17.74-1.19-10.98,6.76-20.84,17.74-22.03,112-12.06,287.17,57.38,294.58,60.34,6.38,2.55,11.01,8.21,12.24,14.97l20,109.31c1.18,6.46-.88,13.09-5.53,17.74-.39.44-66.27,75.39-45.85,362.78,18.66,262.71-14.08,488.94-23.63,547.25,61.5,35.11,81.12,79.98,86.53,112.41,9.54,57.12-17.51,108.38-43.58,134.93-56.65,57.7-309.04,36.14-356.28,27.32-57.6-10.75-75.33-63.94-80.7-91.74-13.51,42.53-45.75,77.32-88.64,93.32-1.02.38-2.08.68-3.14.89-46.6,9.12-90.69,13.58-131.47,13.58Zm164.69-269.78c28.27,17.22,48.37,42.34,58.36,72.04l9.76-335.03c-19.18,1.25-39,1.02-59.25-.71l-8.86,263.69Z"/>
    <g>
      <circle class="cls-1" cx="2121.84" cy="1349.46" r="610"/>
      <g class="cls-11">
        <path class="cls-7" d="m2723.95,1447.65c-46.95,290.2-298.65,511.8-602.1,511.8-336.9,0-610-273.1-610-610,0-102.2,25.15-198.55,69.6-283.2-5.2,31.95-7.9,64.75-7.9,98.2,0,336.9,273.1,610,610,610,234.65,0,438.35-132.5,540.4-326.8Z"/>
      </g>
      <path class="cls-7" d="m2639.24,1672.64c-196.74,327.36-814.24,247.36-936.74-57.64l-67.29-227.92c49.79-434.58,578.96-760.23,960.75-421.45,147.95,227.3,193.92,460.99,43.28,707.02Z"/>
      <g class="cls-13">
        <path class="cls-6" d="m2731.85,1377.55c-2.45,96.6-31.2,194.8-92.6,295.1-196.75,327.35-814.25,247.35-936.75-57.65l-67.3-227.9c4.3-37.6,12.2-74.4,23.3-110,91.8,220.6,309.45,375.7,563.35,375.7,213.3,0,401-109.45,510-275.25Z"/>
      </g>
      <path class="cls-7" d="m2121.84,1979.46c-347.38,0-630-282.62-630-630s282.62-630,630-630,630,282.62,630,630-282.62,630-630,630Zm0-1220c-325.33,0-590,264.67-590,590s264.67,590,590,590,590-264.67,590-590-264.67-590-590-590Z"/>
      <ellipse class="cls-1" cx="1595" cy="1554.17" rx="145" ry="180.83" transform="translate(-299.74 383.95) rotate(-12.56)"/>
      <g class="cls-11">
        <path class="cls-7" d="m1634.3,1730.65c-78.15,17.45-159.1-47.5-180.85-144.95-8.7-39.1-6.55-77.5,4.2-110.65,26.6,88.45,102.9,145.4,176.65,128.95,46.85-10.4,82.05-48,98.05-97.4,1.6,5.25,3,10.6,4.2,16.05,21.7,97.45-24.05,190.6-102.25,208Z"/>
      </g>
      <path class="cls-7" d="m1608.86,1748.48c-76.4,0-149.16-65.83-170.03-159.52-23.48-105.4,27.49-206.75,113.6-225.93,86.15-19.19,175.28,50.97,198.75,156.36h0c23.47,105.4-27.49,206.75-113.6,225.94-9.57,2.13-19.17,3.16-28.72,3.16Zm-27.49-358.64c-7.47,0-14.96.8-22.43,2.47-69.97,15.59-110.72,100.88-90.83,190.13,19.88,89.26,92.99,149.2,162.94,133.61,69.97-15.59,110.71-100.88,90.83-190.13-17.76-79.73-77.99-136.07-140.52-136.07Z"/>
      <path class="cls-7" d="m1565.66,1695.65c-52.29,0-102.6-46.9-117.4-113.33-16.57-74.39,17.58-145.52,76.14-158.56,29.14-6.49,59.51,2.03,85.52,23.98,24.84,20.97,42.86,51.97,50.73,87.28h0c16.57,74.39-17.59,145.52-76.14,158.56-6.27,1.4-12.57,2.07-18.84,2.07Zm-22.2-243.99c-4.22,0-8.41.45-12.54,1.37-42.41,9.45-66.35,64.52-53.38,122.76,12.98,58.25,58.04,97.97,100.43,88.5,42.41-9.45,66.35-64.52,53.38-122.76h0c-6.45-28.94-20.93-54.11-40.79-70.87-14.78-12.48-31.13-19-47.1-19Z"/>
      <path class="cls-7" d="m1580.03,1392.39c-.79,0-1.59-.05-2.39-.16-9.58-1.31-16.28-10.13-14.98-19.7,27.77-203.66,115.4-369.06,253.43-478.32,138.58-109.7,319.24-155.77,522.41-133.23,9.6,1.06,16.53,9.72,15.46,19.32-1.07,9.6-9.79,16.53-19.32,15.46-393.75-43.68-683.18,184.57-737.3,581.49-1.2,8.77-8.7,15.14-17.31,15.14Z"/>
      <g class="cls-12">
        <path class="cls-1" d="m2219.41,931.1c237.28-6.32,375.43,113.37,429.94,336.37,5.11,20.89-21.45,34.26-35.12,17.66-111.41-135.32-238.53-250.03-401.72-315.21-20.27-8.09-14.92-38.24,6.9-38.82Z"/>
      </g>
      <g class="cls-12">
        <ellipse class="cls-1" cx="1861.25" cy="1290" rx="76.25" ry="97.5"/>
      </g>
      <g class="cls-12">
        <circle class="cls-1" cx="1860.31" cy="1497.81" r="41.56"/>
      </g>
    </g>
    <path class="cls-1" d="m1867.5,2251.67s45,43.33,79.17,63.33c0,0,.42,30.62-43.33,40s-224.22,18.27-239.58-41.25c-13.33-51.67,16.88-70.42,60.62-62.08,43.75,8.33,143.12,0,143.12,0Z"/>
    <g class="cls-11">
      <path class="cls-7" d="m1946.65,2315s.45,30.65-43.3,40c-43.75,9.4-224.25,18.25-239.6-41.25-2.8-10.85-3.7-20.3-2.95-28.3,53.2,30.5,181.25,23.15,217.15,15.45,13.95-3,23.4-8.15,29.8-13.8,12.6,10.25,26.5,20.6,38.9,27.9Z"/>
    </g>
    <path class="cls-7" d="m1812.67,2381.67c-70.36,0-155.07-11.72-168.28-62.92-9.67-37.48.93-58.82,11.54-70.13,15.57-16.6,41.21-22.5,72.19-16.6,40.55,7.72,136.75-.2,137.71-.28,5.74-.5,11.39,1.53,15.54,5.52.43.42,43.72,41.94,75.4,60.48,6.04,3.54,9.8,9.98,9.9,16.99.02,1.92-.04,47.17-59.14,59.83-10.9,2.34-49.97,7.11-94.86,7.11Zm-107.12-111.89c-9.37,0-16.62,2.12-20.44,6.21-5.28,5.63-5.99,17.27-1.99,32.77,9.36,36.27,160.51,38.59,216.03,26.69,13.12-2.81,20-7.65,23.59-12.01-24.7-16.92-50.62-40.15-62.51-51.15-25.98,1.86-101.2,6.35-139.59-.97-5.43-1.03-10.52-1.54-15.09-1.54Z"/>
    <path class="cls-7" d="m1849.73,2260.85l-20.57-83.35,56.1,64.98c7.42,8.6,6.47,21.58-2.13,29.01-11.13,10.11-30.17,3.9-33.41-10.64h0Z"/>
    <path class="cls-9" d="m3301,1194.9s-69.35,98.45-97.65,155.95c-15.25,30.95-58.55,53.2-95.25,67.15-31.45,12-58.1,17.85-58.1,17.85l-57-96.8-24-40.7c1.35-1.6,8.65-21.05,22.5-47.5,22.3-42.55,61.55-103.25,120.15-136.7,0,0,104.45,6.4,174.5,66.6,5.15,4.4,10.15,9.15,14.85,14.15Z"/>
    <g class="cls-13">
      <path class="cls-1" d="m3301,1194.9s-3.7,5.25-9.75,14c-69.8-54.6-167.1-60.55-167.1-60.55-82.85,47.2-127,148.95-139.25,176.95l-15.9-26.95c3.5-4.2,47.65-130,142.65-184.2,0,0,120.35,7.35,189.35,80.75Z"/>
    </g>
    <path class="cls-7" d="m3049.98,1455.84c-9.18,0-17.46-6.37-19.51-15.71-2.37-10.79,4.45-21.46,15.23-23.83,32.17-7.11,119.99-34.33,139.69-74.31,22.54-45.74,69.15-114.98,89.49-144.53-54.96-48.44-136.28-60.36-158.61-62.78-48.6,29.81-90.76,84.95-125.38,164.02-3.28,7.49-4.27,9.74-6.59,12.5-7.1,8.46-19.72,9.55-28.18,2.45-7.67-6.45-9.29-17.43-4.21-25.73.53-1.11,1.3-2.9,2.33-5.26,39.4-89.99,89.03-152.52,147.5-185.86,3.38-1.93,7.22-2.83,11.13-2.59,5.23.32,129.1,8.73,202.69,87.02,6.5,6.92,7.25,17.46,1.78,25.22-.68.97-68.76,97.81-96.07,153.23-31.67,64.27-153.22,92.67-166.98,95.69-1.45.32-2.89.47-4.32.47Zm-96.32-170.33h0Zm.03-.03s-.01.01-.02.02c0,0,.01-.01.02-.02Z"/>
    <ellipse class="cls-4" cx="3136.79" cy="1260" rx="60" ry="50.71" transform="translate(906.01 3799.82) rotate(-70.59)"/>
    <path class="cls-9" d="m3266.25,1398.24s82.08-91.54,196.25-147.39c0,0,81.67,83.47,115.83,152.14,0,0-75.83,60.34-193.33,163.67-117.5,103.33-172.5-36.67-172.5-36.67"/>
    <g class="cls-11">
      <path class="cls-7" d="m3301,1194.9s-69.35,98.45-97.65,155.95c-15.25,30.95-58.55,53.2-95.25,67.15-26.2-13.95-59.55-35.3-80.6-48-6.5-3.9-19.85-15.8-34.5-30.95l-24-40.7c1.35-1.6,8.65-21.05,22.5-47.5,119.85,46.7,257.4-41.65,294.65-70.1,5.15,4.4,10.15,9.15,14.85,14.15Z"/>
    </g>
    <g class="cls-13">
      <path class="cls-1" d="m3578.35,1403s-6.4,5.1-18.4,14.9c-38.5-61.85-100.8-125.5-100.8-125.5-114.15,55.85-196.25,147.4-196.25,147.4l-42.95,105.3c-5-8.85-7.45-15.1-7.45-15.1l53.75-131.75s82.1-91.55,196.25-147.4c0,0,81.65,83.45,115.85,152.15Z"/>
    </g>
    <path class="cls-7" d="m3303.62,1624.73c-7.52,0-14.95-.89-22.29-2.67-59.16-14.32-86.32-81.88-87.45-84.75-4.04-10.28,1.02-21.89,11.3-25.93,10.29-4.04,21.88,1.02,25.93,11.3.19.46,20.87,51.23,59.78,60.54,23.49,5.62,50.69-5.01,80.9-31.58,88.75-78.05,154.47-132.18,181.08-153.81-27.43-47.79-74.23-100.38-94.65-122.4-102.39,53.75-176.33,135.31-177.09,136.16-7.38,8.22-20.03,8.89-28.24,1.52-8.22-7.38-8.91-20.01-1.54-28.23,3.46-3.86,86.03-95.1,202.35-152.01,7.75-3.79,17.06-2.19,23.09,3.98,3.42,3.5,84.27,86.53,119.44,157.22,4.2,8.45,1.93,18.68-5.45,24.56-.75.6-76.87,61.28-192.58,163.04-32.56,28.63-64.27,43.04-94.58,43.04Z"/>
    <path class="cls-9" d="m3060.6,1383.1s37.73-85.6,89.4-132.27l156.67,60.83s-52.52,125.4-77.09,205.62c-24.58,80.22-182.91,15.22-182.91,15.22"/>
    <g class="cls-13">
      <path class="cls-1" d="m3306.65,1311.65s-4.55,10.85-11.6,28.2l-134.2-52.15c-51.7,46.65-89.4,132.3-89.4,132.3l-11,117.65c-8.6-3.05-13.8-5.15-13.8-5.15l13.95-149.4s37.75-85.6,89.4-132.25l156.65,60.8Z"/>
    </g>
    <path class="cls-7" d="m3158.78,1577.36c-53.46,0-111.31-22.92-119.71-26.36-10.21-4.19-15.1-15.88-10.9-26.1,4.19-10.22,15.86-15.1,26.1-10.91,26.18,10.71,102.2,34.7,138.95,17.29,8.9-4.22,14.38-10.53,17.24-19.86,19.13-62.44,54.26-150.2,69.93-188.51l-125.71-48.81c-43.42,44.53-75.43,116.31-75.77,117.07-4.46,10.11-16.29,14.68-26.37,10.22-10.1-4.46-14.68-16.26-10.23-26.36,1.61-3.65,40.08-90.08,94.3-139.04,5.61-5.07,13.59-6.54,20.64-3.8l156.66,60.83c5.03,1.95,9.05,5.86,11.17,10.82,2.11,4.97,2.12,10.57.04,15.55-.52,1.25-52.42,125.42-76.42,203.75-6.13,20-19.4,35.32-38.4,44.31-15.18,7.18-33.09,9.9-51.52,9.91Z"/>
    <path class="cls-9" d="m3088.57,1480.36s-40.23-197.03-138.57-285.36c0,0-83.44-3.75-217.97,41.25,0,0,85.47,110,125.47,232.5s231.07,11.61,231.07,11.61Z"/>
    <g class="cls-13">
      <path class="cls-1" d="m2942.1,1526.35c-37.05,0-70.35-14-84.6-57.6-40-122.5-125.45-232.5-125.45-232.5,134.5-45,217.95-41.25,217.95-41.25,6.6,5.95,12.95,12.35,19,19.15-37.1,3.35-98.95,12.9-178.85,39.6,0,0,85.45,110,125.45,232.5,5.9,18.1,15.1,31.05,26.5,40.1Z"/>
    </g>
    <path class="cls-7" d="m2941.8,1546.26c-15.77,0-31.11-2.21-45.17-7.58-28.3-10.8-47.87-32.24-58.14-63.72-38.47-117.82-121.42-225.37-122.25-226.44-3.98-5.12-5.23-11.85-3.35-18.06,1.88-6.21,6.65-11.12,12.8-13.18,136.46-45.65,221.65-42.43,225.21-42.26,4.62.21,9.03,2.01,12.47,5.1,102.07,91.69,143.11,287.93,144.8,296.24,1.72,8.42-2.13,16.99-9.56,21.3-4.11,2.39-84.75,48.6-156.81,48.6Zm-177.25-299.38c27.46,39.12,81.81,123.32,111.96,215.67,6.43,19.7,17.67,32.38,34.35,38.76,44.22,16.91,117.69-12.36,154.8-31.28-11-44.9-49.79-183.85-123.57-255.06-20.45.31-84.51,3.76-177.54,31.91Z"/>
    <ellipse class="cls-4" cx="2912.5" cy="1356.67" rx="45" ry="52.5" transform="translate(-300.27 1393.23) rotate(-25.63)"/>
    <path class="cls-2" d="m3379.9,2587.8c-69.3,33.8-189.7,61.05-266.8,62.6-269.1,5.55-539.3-111.9-581.65-272.3-.55-1.85-1-3.75-1.45-5.6-74.45-143.25-77.05-274.8-9.95-395,27.55-49.4,65.3-92.4,109.6-127.6,44.85-35.6,126.85-108.75,171.7-197.95,11.1-22,19.9-45,25.3-68.65v-.05c-.65-2.1-16.35-51.85-30.4-102-14.35-51.25,35-100.65,86.85-67.5,51.9,33.15,55.65,78.75,88.55,58.35,32.95-20.45,66.7-22.5,89.6,6.25s47.5-37.1,84.6-12.5c37.05,24.55,32.9,27.5,70.8,19.55,37.95-7.9,65.45,48.75,81.7,38.75,10.8-6.6,52.45-37,91.35-40.75,19.8-1.95,38.9,3.05,52.8,21.6,31.7,42.3-22.25,123.95-48.9,159.45-8.05,10.7-13.6,17.2-13.6,17.2,0,0-4.75,21.2,5.35,59.55,9.65,36.75,32.95,89.2,87.15,153.8,116.95,139.4,281.65,510.3-92.6,692.8Z"/>
    <g class="cls-13">
      <path class="cls-1" d="m2883.1,1413.75c8.1,5.2,15.05,10.65,21.05,16.15-40.9-6.2-72.85,35.05-60.95,77.6,14.4,51.25,30.45,102.05,30.45,102.05-27.4,119.45-141.15,222.2-197.05,266.6-44.3,35.2-82,78.2-109.6,127.6-67.1,120.2-64.5,251.75,9.95,395,14.8,64.35,66.2,122.05,139.8,167.95-98.35-49.25-169-116.9-186.75-194.2-74.45-143.25-77.05-274.8-9.95-395,27.55-49.4,65.3-92.4,109.6-127.6,55.9-44.4,169.65-147.15,197-266.6,0,0-16.05-50.8-30.4-102.05-14.35-51.25,35-100.65,86.85-67.5Z"/>
    </g>
    <g class="cls-13">
      <path class="cls-1" d="m3066,1483.05c-15.1-.25-31.3,5.35-47.35,15.3-22.1,13.7-31.1-2.35-50.25-24.45,1.05-.5,2.15-1.1,3.25-1.8,32.95-20.45,66.7-22.5,89.6,6.25,1.6,2,3.15,3.5,4.75,4.7Z"/>
    </g>
    <g class="cls-13">
      <path class="cls-1" d="m3145.85,1465.85c16.25,10.75,24.6,17.4,32,20.75-29.05-2.45-49.95,42.7-69.65,18-8.35-10.5-18.15-16.85-28.8-19.75,18.2-5.6,38.9-37.3,66.45-19Z"/>
    </g>
    <g class="cls-13">
      <path class="cls-1" d="m3271.65,1510.9c-2.6-.05-5.25.2-8,.75-37.95,7.95-33.75,5-70.85-19.55-1.8-1.2-3.55-2.15-5.3-2.9,6.75.6,15.05-.85,29.15-3.8,21.85-4.55,40.25,12.3,55,25.5Z"/>
    </g>
    <g class="cls-13">
      <path class="cls-1" d="m3445.3,1509.25c-41.15-.55-88.45,34.05-100,41.15-10.3,6.35-25.15-14.15-44.3-27.95,21.4-13.9,102.15-69.95,141.5-17.45,1.05,1.35,1.95,2.8,2.8,4.25Z"/>
    </g>
    <g class="cls-13">
      <path class="cls-1" d="m3066.05,1483.05c4.6,0,9.05.6,13.35,1.8-4.55,1.5-9,1.3-13.35-1.8Z"/>
    </g>
    <g class="cls-13">
      <path class="cls-1" d="m3177.85,1486.6c3.1.25,6.35,1.05,9.65,2.6-3.45-.3-6.45-1.15-9.65-2.6Z"/>
    </g>
    <path class="cls-7" d="m3094.12,2670.62c-284.92,0-543.26-128.18-583.01-291.11-75.91-147.41-78.79-285.94-8.53-411.75,28.28-50.65,66.85-95.58,114.61-133.53,47.6-37.81,160.13-137.08,188.74-250.23-4.5-14.43-17.32-55.96-28.94-97.36-9.41-33.57,2.25-69.47,29.04-89.33,25.65-19.01,58.51-19.18,87.86-.43,23.78,15.19,38.54,32.71,49.32,45.51,4.65,5.53,10.95,13.01,13.93,14.66.6-.18,1.89-.67,3.98-1.98,44.38-27.52,87.17-23.91,114.79,9.58,2.74-1.57,6.57-4.33,9.36-6.34,14.32-10.3,40.98-29.48,71.61-9.16,5.51,3.65,10.12,6.83,14.11,9.58,8.85,6.1,14.19,9.78,17.42,10.41,3.96.78,13.31-1.04,24.17-3.31,31.34-6.56,55.62,15.16,71.67,29.53,2.91,2.6,6.52,5.83,9.34,8.05,76.95-50.21,132.43-53.72,164.91-10.42,45.83,61.1-37.69,170.47-59.4,196.99-1.13,16.9.54,87.05,88.73,192.15,68.56,81.71,174.21,268.8,135.33,451.71-24.8,116.67-103.69,208.17-234.47,271.94-69.61,33.95-193.05,62.94-275.15,64.62-6.48.13-12.95.2-19.41.2Zm-245.08-1247.63c-6.87,0-13.36,2.15-19.18,6.47-11.27,8.36-20.08,25.94-14.35,46.4,14.12,50.36,30.07,100.94,30.23,101.44,1.07,3.4,1.22,7.02.42,10.49-28.19,123.02-139.97,226.84-204.08,277.78-43.66,34.69-78.85,75.64-104.58,121.71-64.54,115.56-61.18,238.55,10.25,376.02.78,1.5,1.37,3.1,1.74,4.75,33.18,144.49,280.48,262.58,545.08,262.59,6.05,0,12.07-.06,18.13-.19,77.25-1.58,193.19-28.76,258.44-60.58,119.14-58.1,190.77-140.3,212.88-244.31,35.76-168.19-67.33-346.76-126.85-417.68-115.78-137.99-97.52-226.85-96.69-230.57.71-3.17,2.19-6.12,4.29-8.59,30.44-35.76,85.58-119.89,61.72-151.7-17.9-23.87-54.48-17.18-111.84,20.43-2.42,1.58-4.39,2.87-5.84,3.77-19.76,12.14-37.95-4.14-51.25-16.03-11.83-10.59-25.2-22.58-36.82-20.18-38.03,7.94-45.18,5.5-72.47-13.32-3.81-2.63-8.23-5.68-13.5-9.17-6.09-4.03-9.8-3.46-26.15,8.29-11.99,8.62-40.06,28.81-63.02,0-14.52-18.22-35.85-18.8-63.4-1.72-34.17,21.18-54.64-3.14-69.6-20.91-10.13-12.03-21.6-25.66-40.24-37.56-7.95-5.08-15.86-7.62-23.33-7.62Zm228.67,43.78h0Z"/>
    <path class="cls-3" d="m3424.7,1703.2c.15,21.4-18.1,38.35-39.35,38h-.65c-60.25-1.95-119.2-5.65-176.85-11.15-128.25-12.1-250.05-33.2-364.75-63.95-9.95-2.65-19.8-5.4-29.65-8.2-4.4-1.3-8.5-3.3-12.1-5.95-8.6-6.2-14.4-15.8-15.6-26.65-.05-.35-.05-.75-.1-1.15-2.1-23.55,18.2-42.35,41-40.9,2,.1,4.05.4,6.05.85,9.95,2.2,19.9,4.4,29.9,6.5,117.25,25.05,236,44.15,356.2,57.75,56.25,6.35,112.85,11.5,169.75,15.4,1.7.1,3.4.35,5.05.7,15.25,3.05,27.7,14.85,30.35,30.4.45,2.75.7,5.55.75,8.35Z"/>
    <g class="cls-13">
      <path class="cls-1" d="m2843.1,1666.1c-9.95-2.65-19.8-5.4-29.65-8.2-14.95-4.3-26-17.15-27.7-32.6-.05-.35-.05-.75-.1-1.15-2.3-25.6,21.95-45.6,47.05-40.05,9.95,2.2,19.9,4.4,29.9,6.5l.05.05s-35.75,32.45-19.55,75.45Z"/>
    </g>
    <path class="cls-7" d="m3385.93,1761.22c-.63,0-1.26,0-1.89-.03-211.27-6.89-405.1-35.18-576.1-84.09-22.94-6.56-39.44-26.03-42.05-49.59l-.14-1.37c-1.67-18.47,5.38-35.95,19.31-48.19,14.17-12.45,33.62-17.45,51.97-13.37h0c177.7,39.48,363.73,66.13,552.92,79.19,27.16,1.88,49.24,21.5,53.71,47.72.65,3.85,1,7.75,1.03,11.57.12,15.6-6.05,30.28-17.37,41.32-11.03,10.76-26.02,16.83-41.39,16.83Zm-561.7-158.04c-4.64,0-9.21,1.69-12.77,4.82-2.49,2.19-6.56,6.96-5.9,14.33l.08.78c.8,7.25,6.14,13.49,13.29,15.54,167.85,48.01,358.41,75.78,566.41,82.57,5.13.17,10.32-1.82,14.05-5.46,3.46-3.37,5.34-7.77,5.3-12.39,0-1.68-.17-3.41-.46-5.15-1.33-7.83-8.5-13.94-17.03-14.53-191.18-13.2-379.2-40.14-558.84-80.05h0c-1.36-.3-2.74-.45-4.12-.45Z"/>
    <g class="cls-11">
      <path class="cls-7" d="m3087.36,2127.8l9.7-93.98c21.91,7.27,34.63,21.17,39.59,42.92l3.29,14.46,70.17-15.12-4.16-15.27c-13.44-49.33-47.68-81.35-101.83-95.33l5.07-49.21-64.98-6.71-5.18,50.11c-90.14,9.84-114.59,60.73-118.92,102.69-2.52,24.41,2.94,47.67,16.25,69.12,12.45,20.1,38.49,37.57,79.44,53.23l-10.79,104.57c-25.75-9.41-42.16-28.96-49.96-59.36l-3.8-14.82-69.01,19.18,3.18,13.96c13.02,57.06,50.79,94.37,112.36,111.07l-5.93,57.48,64.98,6.71,5.9-57.19c40.63-1.42,71.73-12.1,92.53-31.81,22.8-21.62,35.84-46.85,38.75-74.98,6.41-62.1-29.46-106.36-106.66-131.7Zm-17.46,169.08l9.42-91.29c38.47,13.9,41.36,34.93,39.78,50.26-1.28,12.42-7.19,22.35-18.06,30.36-8.3,6.11-18.54,9.62-31.14,10.67Zm-46.31-187.6c-30.15-13.64-32.39-31.53-31.05-44.54,1.24-12.01,6.25-20.82,15.75-27.72,6.65-4.82,14.49-7.95,23.74-9.45l-8.44,81.71Z"/>
    </g>
    <g class="cls-11">
      <path class="cls-7" d="m3379.9,2587.8c-69.3,33.8-189.7,61.05-266.8,62.6-269.1,5.55-539.3-111.9-581.65-272.3l311.05-172.5,20.15,156.15c496,180.1,632.35-271.75,472.35-416.75-128.95-116.85-131.2-190.65-127.15-214.95.95-5.85,2.25-8.8,2.25-8.8,58.85-33.75,8.7-72.9,8.7-72.9l41.2-9.6c239-66.4,129.7-155.35,129.7-155.35,19.8-1.95,38.9,3.05,52.8,21.6,31.7,42.3-22.25,123.95-48.9,159.45,15.25,3.05,27.7,14.85,30.35,30.4.45,2.75.7,5.55.75,8.35.15,21.4-18.1,38.35-39.35,38,9.65,36.75,32.95,89.2,87.15,153.8,116.95,139.4,281.65,510.3-92.6,692.8Z"/>
    </g>
    <ellipse class="cls-4" cx="3172.71" cy="1398.24" rx="30.62" ry="37.59"/>
    <circle class="cls-4" cx="3398.28" cy="1403.9" r="47.03" transform="translate(1251.17 4388.72) rotate(-76.72)"/>
    <g class="cls-11">
      <path class="cls-7" d="m2969,1223.33c2.67,5,104.33,249.17-73.17,190.83l38.33,50.83s53.63-11.66,58.33-8.26c4.7,3.4,93.59,12.6,93.59,12.6l-72.81-192.24"/>
    </g>
    <g class="cls-11">
      <path class="cls-7" d="m3301,1370s-38.5,127.5,68.17,104.17c0,0-60.62,50.26-65.72,50.12-5.1-.14-55.12-44.21-55.12-44.21l23.32-63.41"/>
    </g>
    <g>
      <path class="cls-1" d="m2825,2160c54.06,179.79-222.5,320-525,268.75-67.5-160,13.33-333.75,13.33-333.75,61.86,11.66,122.29,12.79,180.83,0,0,0,43.54-92.17,130.63-102.45,18.1-2.14,35.46,9.94,37.73,28.02,1.68,13.34-2.95,31.41-23.29,54.43,100.31-10.55,162.18,17.84,185.76,85Z"/>
      <g class="cls-11">
        <path class="cls-7" d="m2300,2428.75c-16.5-39-24.1-78.85-26.2-116.8,273.5,58.6,527.2-44.95,501.6-215.8,23.2,14.55,39.75,35.8,49.6,63.85,54.05,179.8-222.5,320-525,268.75Z"/>
      </g>
      <path class="cls-7" d="m2425.19,2459.27c-42.29,0-85.5-3.51-128.53-10.8-6.74-1.14-12.43-5.65-15.09-11.95-70.14-166.26,10.17-342.54,13.62-349.96,3.86-8.3,12.85-12.92,21.84-11.22,59.15,11.15,112.86,11.79,163.88,1.96,14.4-25.46,60.8-95.09,141.54-104.62,29.51-3.49,56.35,16.88,59.92,45.38,1.42,11.27-.32,22.9-5.16,34.78h.83c86.68,0,142.38,33.71,165.83,100.52.1.29.2.58.28.87,18.32,60.92,3.93,120.39-41.62,171.98-74.18,84.03-219.32,133.05-377.35,133.05Zm-110.83-48.46c187.26,28.82,374.46-16.24,458.19-111.07,35.8-40.55,47.35-86.72,33.43-133.55-20.4-57.48-74.27-80.81-164.65-71.31-8.27.84-16.09-3.4-19.87-10.73s-2.67-16.23,2.79-22.41c13.15-14.89,19.7-28.63,18.44-38.7-.84-6.67-7.94-11.55-15.55-10.64-75.21,8.88-114.5,90.31-114.89,91.13-2.65,5.61-7.75,9.67-13.81,11-53.54,11.69-111.56,12.67-172.71,2.92-16.08,42.08-57.45,171.8-11.37,293.35Z"/>
    </g>
    <g>
      <path class="cls-9" d="m3847.5,2072.33l-128.75-6.8c-1.25-5.7-2.55-11.25-3.9-16.6-33.2-132-103.45-175.05-103.45-175.05l58.6-127.1c15.4,10.1,29.95,20.85,43.55,32.25,0,0,0,.05.1.1,84.25,70.45,132.9,165.45,133.85,293.2Z"/>
      <g class="cls-13">
        <path class="cls-1" d="m3734.8,2066.38l-16.05-.85c-31.25-145-107.35-191.65-107.35-191.65l58.6-127.1c13.85,9.1,26.95,18.65,39.35,28.75l-56.15,89.2s68.75,55.5,81.6,201.65Z"/>
      </g>
      <path class="cls-7" d="m3847.5,2089.83c-.31,0-.62,0-.92-.02l-128.75-6.8c-7.89-.42-14.52-6.07-16.19-13.79-29.04-134.76-98.79-180.05-99.5-180.49-7.43-4.68-10.33-14.21-6.66-22.19l58.62-127.11c2.14-4.63,6.18-8.1,11.08-9.5,4.89-1.4,10.17-.6,14.42,2.2,121.91,80.16,184.29,194.57,185.39,340.06.03,4.82-1.92,9.45-5.41,12.78-3.26,3.12-7.6,4.85-12.09,4.85Zm-114.64-41.08l96.65,5.1c-5.5-119.04-55.49-211.26-152.31-280.92l-44.03,95.48c23.49,19.8,73.58,72.77,99.7,180.33Z"/>
      <ellipse class="cls-4" cx="3732.08" cy="1925.32" rx="29.58" ry="35.62" transform="translate(-466.66 1848.84) rotate(-26.24)"/>
      <g class="cls-11">
        <path class="cls-7" d="m3847.5,2072.33l-128.75-6.8c-1.25-5.7-2.55-11.25-3.9-16.6,123.75-105.3,2.2-265.35-1.2-269.8,84.25,70.45,132.9,165.45,133.85,293.2Z"/>
      </g>
    </g>
    <g>
      <path class="cls-9" d="m3730.6,2740.6c.4-4.15.65-8.1.7-11.95,1.45-65.25-42.9-88.45-62.05-95.4-5.3-1.95-8.65-2.65-8.65-2.65-14,.75-26.75.8-38.35.2-93.95-4.4-114.75-46.65-114.75-46.65l127.5-65.8c2.9,6,6,11.7,9.45,17.15,14.75,23.85,34.35,42.25,58.8,55.25,17.1,9.1,36.6,15.55,58.45,19.3,7.9.5,15.75,1.5,23.5,3.1,36.5,7.25,71.1,26.1,104.2,54.95l-158.8,72.5Z"/>
      <path class="cls-7" d="m3730.63,2753.12c-2.56,0-5.12-.79-7.28-2.33-3.64-2.6-5.61-6.96-5.16-11.41,7.54-75.41-48.71-93.56-58.71-96.18-132.05,6.64-161.98-51.05-163.19-53.51-3.01-6.11-.57-13.5,5.48-16.63l127.5-65.83c3-1.55,6.51-1.82,9.7-.75,3.2,1.07,5.83,3.4,7.3,6.44,22.73,47.36,61.21,75.1,117.64,84.83.01,0,.03,0,.05,0,46.25,3.28,90.93,23.62,133.64,60.95,3.19,2.79,4.76,7.02,4.14,11.22-.61,4.2-3.32,7.8-7.18,9.57l-158.75,72.5c-1.66.76-3.43,1.13-5.19,1.13Zm-36.67-121.51c22.12,13.64,48.3,40.09,49.87,89.24l122.12-55.77c-33.84-25.9-68.3-40.04-103.85-42.51-.72.02-1.44-.03-2.17-.13-21.56-1.2-43.5,1.85-65.97,9.18Zm-166.86-43.5c14.63,13.02,51.35,34.39,132.6,30.04.05-.02.1-.05.16-.07,13.8-6.22,27.51-11.05,41.1-14.48-30.38-15.29-54.23-38.17-71.29-68.45l-102.57,52.96Z"/>
      <g class="cls-11">
        <path class="cls-7" d="m3703.25,2590.75c-6.35,8.35-16.6,21.05-27.15,34-.8,1-1.6,2-2.4,3-1.5,1.85-3,3.65-4.45,5.5-5.3-1.95-8.65-2.65-8.65-2.65-14,.75-26.75.8-38.35.2,33.3-36.6,5.25-97.7,5.25-97.7l16.95,2.4c14.75,23.85,34.35,42.25,58.8,55.25Z"/>
      </g>
      <g class="cls-11">
        <path class="cls-7" d="m3889.4,2668.1l-158.8,72.5c.4-4.15.65-8.1.7-11.95,29.4-37.05,48.1-110.55,48.1-110.55l5.8-4.95c36.5,7.25,71.1,26.1,104.2,54.95Z"/>
      </g>
    </g>
    <path class="cls-7" d="m2513.56,2964.2c-44.27-6.32-90.31-13.35-134.5-3.3-46.63,9.82-84.61,40.27-109.06,81.6,13.55-50.57,50.67-91.95,99.6-110.98,48.97-19.31,105.1-23.04,155.17-5.72,23.23,9.14,13.15,43.1-11.21,38.4h0Z"/>
    <path class="cls-7" d="m2059.1,2984.41c-46.52-16.45-96.61-31.45-146.29-24.45-52.86,6.68-96.13,40.03-127.82,82.54,20.39-52.59,65.07-98.33,120.89-113.64,49.54-14.48,104.05-10.24,151.38,9.8,7.23,3.1,13.22,6.04,20.29,10.27,21.35,13.43,4.68,45.08-18.46,35.49h0Z"/>
    <path class="cls-7" d="m1897.92,2833.63c-128.37,0-234.45-42.53-240.8-45.13-10.22-4.18-15.12-15.86-10.94-26.08,4.18-10.22,15.86-15.11,26.07-10.94h0c2.1.86,211.88,84.67,388.52,12.51,10.23-4.16,21.91.73,26.08,10.95,4.17,10.23-.73,21.9-10.95,26.08-59.17,24.17-120.8,32.61-177.98,32.61Z"/>
    <path class="cls-7" d="m2351.53,2842.28c-100.28,0-180.58-36.79-185.87-39.27-10-4.69-14.31-16.6-9.62-26.6,4.69-10,16.57-14.31,26.58-9.63,1.89.88,189.44,86.32,337.67-13.39,9.16-6.17,21.6-3.74,27.76,5.43,6.16,9.16,3.73,21.59-5.43,27.76-62.91,42.32-130.63,55.69-191.08,55.69Z"/>
    <path class="cls-7" d="m2058.44,2671.25l9.89-97.5,29.89,93.33c3.44,10.74-2.48,22.25-13.23,25.69-13.65,4.71-28.29-7.29-26.56-21.52h0Z"/>
    <path class="cls-7" d="m2176.37,2650.03c20.88,1.62,41.97-1.93,62.19-7.83,21.51-6.32,41.74-16.57,60.19-29.7-21.76,28.2-50.81,50.77-83.59,65.3-11.72,5.12-23.83,9.73-36.53,12.17,0,0-2.26-39.94-2.26-39.94h0Z"/>
    <path class="cls-7" d="m2300.03,2448.75c-.64,0-1.29-.03-1.94-.1-241.42-23.21-358.94-114.1-363.82-117.96-8.67-6.85-10.14-19.42-3.3-28.09,6.84-8.65,19.39-10.14,28.06-3.32,1.28,1,114.4,87.59,342.89,109.56,11,1.06,19.05,10.83,17.99,21.82-.99,10.34-9.7,18.09-19.88,18.09Z"/>
    <path class="cls-7" d="m1962.5,1970c66.3,41.2,140.85,65.51,216.66,81.47,29.95,6.45,60.38,10.97,90.54,16.13,15.16,2.31,30.37,4.35,45.52,7.49,11.33,1.72,19.1,12.63,16.72,23.9-2.02,9.76-10.84,16.37-20.48,15.93-32.2-1.23-64.33-5.34-95.69-12.86-90.28-22.23-187.59-64.83-253.26-132.06h0Z"/>
    <path class="cls-7" d="m2460.86,2089.56c-4.79-36.37-16.27-72.48-34.19-104.71,14.67,12.57,28.06,26.93,39.91,42.36,12.51,16.36,23.75,33.06,33.03,51.71,12.07,29.83-33.86,42.47-38.75,10.64h0Z"/>
    <path class="cls-7" d="m2300.64,2473.85c-.24,0-.47,0-.71,0l-330.42-5.36c-44.53-.72-80.76-37.54-80.76-82.08v-24.64c0-11.04,8.96-20,20-20s20,8.96,20,20v24.64c0,22.83,18.57,41.71,41.4,42.08l330.42,5.36h.07c1.95,0,3.66-1.37,4.08-3.28l.52-2.34c2.37-10.79,13.04-17.62,23.83-15.23,10.79,2.37,17.61,13.04,15.23,23.83l-.52,2.35c-4.45,20.2-22.53,34.68-43.14,34.68Z"/>
    <path class="cls-7" d="m2024.09,2466.87c-.4,0-.81-.01-1.21-.04-38.22-2.6-68.16-32.76-68.16-68.65v-66.3c0-9.67,7.84-17.5,17.5-17.5s17.5,7.83,17.5,17.5v66.3c0,19.6,18.07,32.54,35.54,33.73,9.64.66,16.92,9.01,16.27,18.65-.63,9.24-8.32,16.31-17.44,16.31Z"/>
    <path class="cls-7" d="m2237.9,2542.53h-130.79c-48.48,0-87.92-39.44-87.92-87.92v-5c0-11.05,8.96-20,20-20s20,8.95,20,20v5c0,26.42,21.49,47.92,47.92,47.92h130.79c23.21,0,42.1-18.89,42.1-42.1v-10.82c0-11.05,8.96-20,20-20s20,8.95,20,20v10.82c0,45.27-36.83,82.1-82.1,82.1Z"/>
    <path class="cls-7" d="m2161.28,2540.03c-47.1,0-85.42-38.32-85.42-85.42v-5c0-9.67,7.84-17.5,17.5-17.5s17.5,7.83,17.5,17.5v5c0,27.8,22.62,50.42,50.42,50.42,9.66,0,17.5,7.83,17.5,17.5s-7.84,17.5-17.5,17.5Z"/>
    <g class="cls-11">
      <path class="cls-7" d="m2270,2305.77s-285-4.1-421.67-157.43c0,0-23.88,55.38,50,119.46s279.17,147.49,334.17,155.68,67.5-5.98,67.5-5.98l-17.5-50"/>
    </g>
    <g class="cls-11">
      <path class="cls-7" d="m2570,3167.5c-45,45.85-275.85,33.35-338.35,21.65-62.5-11.65-66.65-90-66.65-90l.35-11.75,4.25-44.9c116,154.75,460.4,22.5,218.75-106.8,35-235.9,20-413.15,20-413.15,0,0-135-1.7-175-18.4-40-16.65-42.5-50.3-42.5-50.3-127.5-8.65-208.75-116.25-208.75-116.25,146.25,109.4,340.8,135.05,566.15,107,12.65,279.1-29.1,500.4-29.1,500.4,128.35,64.15,95.85,176.65,50.85,222.5Z"/>
    </g>
    <g class="cls-11">
      <path class="cls-7" d="m2273.8,2633.24c-42.56,58.33-69.35,134.96-86.3,223.01l-10.62-181.88,53.75-20"/>
    </g>
    <g class="cls-11">
      <path class="cls-7" d="m2073.33,2592.5s-7.5-49.93-86.67-69.97c0,0,11.1,187.47-14.45,405.8l96.12,16.67,10-253.75"/>
    </g>
    <g class="cls-11">
      <path class="cls-7" d="m2051.65,3191.65c-139.65,27.35-297.6,17.05-360.9-83-10.45-16.55-15.95-35.75-16.95-55.35l-3.45-67.55c3.5-8.9,5.9-14.5,5.9-14.5,174.7,284.7,460.95,71.25,240-31.6l88.75,11.6,41.9,6.25,66.1,46.6c44,61.9,17.85,158.05-61.35,187.55Z"/>
    </g>
    <g class="cls-11">
      <path class="cls-7" d="m1998.14,1946.9s210.19,88.1,428.52,29.35c0,0,52.08-27.5,87.08-6.25l39.05-66.25-99.47-42.15c-67.82,76.98-204.35,114.21-455.19,85.31Z"/>
    </g>
    <path class="cls-1" d="m1491.83,2339.91l115.25,18.58c12.25,1.97,21.23,12.5,21.34,24.91.38,43.74-6.82,140.29-75.92,160.77-83.75,24.82-127.81-127-85.85-193.27,5.32-8.4,15.36-12.57,25.17-10.98Z"/>
    <g class="cls-11">
      <path class="cls-7" d="m1552.5,2544.15c-53.7,15.95-91.05-40.75-99.9-100.95,16.9,18.1,38.85,27.15,64.55,19.5,47.15-13.95,65.5-63.2,72.25-107.05l17.7,2.85c12.25,1.95,21.2,12.5,21.3,24.9.4,43.75-6.8,140.3-75.9,160.75Z"/>
    </g>
    <path class="cls-7" d="m1534.7,2566.84c-26.14,0-50.62-13.21-69.45-38.13-39.09-51.73-46.33-139.82-15.49-188.52,9.53-15.06,27.29-22.91,45.25-20.03l115.25,18.58c21.92,3.54,37.96,22.24,38.16,44.48.4,46-7.59,155.63-90.24,180.12-7.91,2.34-15.77,3.49-23.48,3.49Zm-47-207.26c-1.73,0-3.36.76-4.15,2.01-21.74,34.32-15,105.15,13.61,143,14.38,19.03,31.07,25.9,49.65,20.4,56.57-16.76,61.93-104.48,61.61-141.42-.02-2.68-1.92-4.92-4.53-5.34l-115.25-18.58h0c-.31-.05-.63-.08-.94-.08Z"/>
  </g>
  <g>
    <rect class="cls-5" x="216.67" y="2000" width="1158.33" height="1120.52" rx="80" ry="80"/>
    <g class="cls-13">
      <path class="cls-1" d="m1360.4,2033.9c-1.3-.1-2.6-.15-3.95-.15H310.2c-30.95,0-56.05,25.1-56.05,56.05v1008.45c0,3.65.35,7.25,1.05,10.7-23.1-14.05-38.55-39.45-38.55-68.45v-960.5c0-44.2,35.85-80,80-80h998.35c27.05,0,50.9,13.4,65.4,33.9Z"/>
    </g>
    <path class="cls-5" d="m416.35,3190h-33.12c-38.37,0-69.48-31.11-69.48-69.48h172.08c0,38.37-31.11,69.48-69.48,69.48Z"/>
    <g class="cls-11">
      <path class="cls-7" d="m485.85,3120.5c0,19.2-7.75,36.6-20.35,49.15-12.6,12.55-29.95,20.35-49.15,20.35h-33.1c-4.4,0-8.7-.4-12.85-1.2,14.05-2.6,26.6-9.45,36.3-19.15,12.6-12.55,20.35-29.95,20.35-49.15h58.8Z"/>
    </g>
    <path class="cls-5" d="m1205.51,3190h-33.12c-38.37,0-69.48-31.11-69.48-69.48h172.08c0,38.37-31.11,69.48-69.48,69.48Z"/>
    <g class="cls-11">
      <path class="cls-7" d="m1275,3120.5c0,19.2-7.8,36.6-20.35,49.15-12.55,12.55-29.95,20.35-49.15,20.35h-33.1c-6.5,0-12.8-.9-18.75-2.6,11.65-3.25,22.05-9.45,30.35-17.75,12.6-12.55,20.4-29.95,20.4-49.15h70.6Z"/>
    </g>
    <path class="cls-7" d="m416.35,3204.76h-33.12c-46.46,0-84.24-37.79-84.24-84.24,0-8.15,6.61-14.76,14.76-14.76h172.08c8.15,0,14.76,6.61,14.76,14.76,0,46.45-37.79,84.24-84.24,84.24Zm-85.82-69.48c6.46,23.02,27.64,39.95,52.7,39.95h33.12c25.06,0,46.24-16.93,52.7-39.95h-138.51Z"/>
    <path class="cls-7" d="m1205.51,3204.76h-33.12c-46.46,0-84.24-37.79-84.24-84.24,0-8.15,6.61-14.76,14.76-14.76h172.08c8.15,0,14.76,6.61,14.76,14.76,0,46.45-37.79,84.24-84.24,84.24Zm-85.82-69.48c6.46,23.02,27.64,39.95,52.7,39.95h33.12c25.06,0,46.24-16.93,52.7-39.95h-138.51Z"/>
    <g class="cls-13">
      <path class="cls-1" d="m1318.15,2111.2v925.1c0,5.6-4.5,10.1-10.05,10.1H351.05c-5.55,0-10.05-4.5-10.05-10.1v-3.4h933.35c5.55,0,10.05-4.5,10.05-10.05v-921.75h23.7c5.55,0,10.05,4.5,10.05,10.1Z"/>
    </g>
    <path class="cls-7" d="m1274.36,3047.65H317.31c-13.69,0-24.82-11.14-24.82-24.82v-925.14c0-13.69,11.13-24.82,24.82-24.82h957.05c13.69,0,24.82,11.14,24.82,24.82v925.14c0,13.69-11.13,24.82-24.82,24.82Zm-952.34-29.53h947.64v-915.73H322.01v915.73Z"/>
    <g class="cls-11">
      <rect class="cls-7" x="307.25" y="2087.63" width="977.16" height="945.26" rx="10.06" ry="10.06"/>
    </g>
    <path class="cls-7" d="m1295,3138.02H296.67c-53.76,0-97.5-43.74-97.5-97.5v-960.52c0-53.76,43.74-97.5,97.5-97.5h998.34c53.76,0,97.5,43.74,97.5,97.5v960.52c0,53.76-43.74,97.5-97.5,97.5ZM296.67,2017.5c-34.46,0-62.5,28.04-62.5,62.5v960.52c0,34.46,28.04,62.5,62.5,62.5h998.34c34.46,0,62.5-28.04,62.5-62.5v-960.52c0-34.46-28.04-62.5-62.5-62.5H296.67Z"/>
    <g>
      <path class="cls-9" d="m1417.5,3127.5c-71.65-27.5-148.35,34.15-148.35,34.15-11.75-24.6-26.3-46.05-41.5-64.35-43.85-53.1-92.65-79.8-92.65-79.8l5.7-108.6c90.3,29.7,165.95,66.05,215.95,114.1,31.15,29.85,52.35,64.3,60.85,104.5Z"/>
      <path class="cls-7" d="m1269.17,3179.15c-1.3,0-2.61-.14-3.9-.44-5.2-1.19-9.58-4.68-11.88-9.5-42.9-89.7-125.95-135.91-126.78-136.37-8.48-4.64-11.59-15.27-6.95-23.75,4.64-8.48,15.28-11.59,23.75-6.95,3.57,1.95,82.91,46.11,132.13,133.82,23.65-14.82,68.46-37.33,116.52-32.36-29.27-73.31-111.94-130.41-256.8-178.1-9.18-3.02-14.17-12.92-11.15-22.09,3.02-9.18,12.93-14.17,22.09-11.15,175.55,57.79,267.2,131.39,288.42,231.61,1.33,6.27-.88,12.77-5.76,16.94-4.87,4.17-11.62,5.34-17.63,3.03-61.2-23.49-130.43,30.93-131.12,31.48-3.13,2.5-7.01,3.83-10.95,3.83Z"/>
      <ellipse class="cls-4" cx="1238.12" cy="3010.94" rx="37.81" ry="66.87" transform="translate(-2011.23 3211.87) rotate(-71.19)"/>
      <path class="cls-9" d="m1135,2855s142.5-2.5,240,132.5c0,0-76.67-6.67-127.5,30,0,0-39.17-43.33-112.5-73.33"/>
      <ellipse class="cls-4" cx="1166.25" cy="2887.81" rx="38.12" ry="28.44"/>
      <path class="cls-7" d="m1247.51,3035c-4.8,0-9.56-1.97-12.99-5.77-.35-.38-37.8-40.91-106.14-68.87-8.95-3.66-13.23-13.88-9.57-22.82,3.66-8.95,13.89-13.24,22.82-9.57,54.72,22.39,91.29,51.8,108.17,67.28,29.57-16.9,63.58-22.95,88.94-24.9-88.23-98.12-198.4-97.91-203.47-97.85-.07,0-.15,0-.22,0-9.55,0-17.37-7.66-17.51-17.24-.15-9.65,7.52-17.59,17.17-17.76,6.19-.1,152.8-1.05,254.49,139.75,4.01,5.55,4.41,12.93,1.04,18.88-3.38,5.95-9.91,9.38-16.73,8.8-.69-.06-70.95-5.56-115.75,26.76-3.09,2.22-6.67,3.31-10.23,3.31Z"/>
      <g class="cls-11">
        <path class="cls-7" d="m1331.67,3017.5l-76.67,45-110.83-64.17v-41.67l54.17,20.83s143.14-34.35,46.99-96.34l111.34,97.18-25,10"/>
      </g>
      <g class="cls-11">
        <path class="cls-7" d="m1417.5,3127.5c-71.65-27.5-148.35,34.15-148.35,34.15-11.75-24.6-26.3-46.05-41.5-64.35,3.25,1.15,6.7,2.6,10.45,4.35,111.5,51.7,118.55-78.65,118.55-78.65,31.15,29.85,52.35,64.3,60.85,104.5Z"/>
      </g>
    </g>
    <g>
      <polyline class="cls-5" points="1067.5 1988.75 1133.75 2000 1133.75 3098.75 1067.5 3123.33"/>
      <polygon class="cls-5" points="1067.5 1988.75 1067.5 3123.35 295 3028.35 295 2083.75 1067.5 1988.75"/>
      <g class="cls-13">
        <polygon class="cls-1" points="1067.5 1988.75 1067.5 2022.6 333.35 2112.9 333.35 3033.05 295 3028.35 295 2083.75 1067.5 1988.75"/>
      </g>
      <path class="cls-7" d="m1067.5,3140.83c-.71,0-1.42-.04-2.13-.13l-772.5-95c-8.77-1.08-15.37-8.53-15.37-17.37v-944.59c0-8.84,6.59-16.29,15.37-17.37l772.5-95c4.98-.61,9.98.94,13.73,4.26,3.75,3.32,5.9,8.09,5.9,13.11v1134.59c0,5.01-2.15,9.79-5.9,13.11-3.22,2.84-7.35,4.39-11.6,4.39Zm-755-127.98l737.5,90.7v-1095.01l-737.5,90.7v913.62Z"/>
      <path class="cls-8" d="m280.62,2429.38h0c-18.29,0-33.12-14.83-33.12-33.12v-98.75c0-18.29,14.83-33.12,33.12-33.12h0c18.29,0,33.12,14.83,33.12,33.12v98.75c0,18.29-14.83,33.12-33.12,33.12Z"/>
      <g class="cls-11">
        <path class="cls-7" d="m313.75,2335.85v60.4c0,18.3-14.85,33.15-33.1,33.15h-.05c-18.25,0-33.1-14.85-33.1-33.15v-60.4c0,18.3,14.85,33.1,33.1,33.1h.05c18.25,0,33.1-14.8,33.1-33.1Z"/>
      </g>
      <g class="cls-13">
        <path class="cls-1" d="m313.75,2297.5v34.15c0-18.3-14.85-33.1-33.1-33.1h-.05c-18.25,0-33.1,14.8-33.1,33.1v-34.15c0-18.3,14.85-33.1,33.1-33.1h.05c18.25,0,33.1,14.8,33.1,33.1Z"/>
      </g>
      <path class="cls-7" d="m280.63,2446.87c-27.92,0-50.62-22.71-50.62-50.62v-98.75c0-27.91,22.71-50.62,50.62-50.62s50.62,22.71,50.62,50.62v98.75c0,27.92-22.71,50.62-50.62,50.62Zm0-165c-8.61,0-15.62,7.01-15.62,15.62v98.75c0,8.62,7.01,15.62,15.62,15.62s15.62-7.01,15.62-15.62v-98.75c0-8.62-7.01-15.62-15.62-15.62Z"/>
      <path class="cls-8" d="m280.62,2887.71h0c-18.29,0-33.12-14.83-33.12-33.12v-98.75c0-18.29,14.83-33.12,33.12-33.12h0c18.29,0,33.12,14.83,33.12,33.12v98.75c0,18.29-14.83,33.12-33.12,33.12Z"/>
      <g class="cls-11">
        <path class="cls-7" d="m743.75,2640.83c0,93.9-64.35,170-143.75,170-2.6,0-5.2-.1-7.75-.25-75.75-4.75-136-78.95-136-169.75s64.4-170,143.75-170c52.35,0,98.15,33.05,123.25,82.5h.05c12.95,25.55,20.45,55.5,20.45,87.5Z"/>
      </g>
      <g class="cls-11">
        <path class="cls-7" d="m313.75,2800.85v53.75c0,18.3-14.85,33.1-33.1,33.1h-.05c-18.25,0-33.1-14.8-33.1-33.1v-53.75c0,18.3,14.85,33.1,33.1,33.1h.05c18.25,0,33.1-14.8,33.1-33.1Z"/>
      </g>
      <g class="cls-13">
        <path class="cls-1" d="m313.75,2755.85v40c0-18.3-14.85-33.15-33.1-33.15h-.05c-18.25,0-33.1,14.85-33.1,33.15v-40c0-18.3,14.85-33.15,33.1-33.15h.05c18.25,0,33.1,14.85,33.1,33.15Z"/>
      </g>
      <path class="cls-8" d="m690.65,2575c0,93.9-64.35,170-143.75,170-2.6,0-5.2-.1-7.75-.25-75.75-4.75-136-78.95-136-169.75s64.4-170,143.75-170c52.35,0,98.15,33.05,123.25,82.5h.05c12.95,25.55,20.45,55.5,20.45,87.5Z"/>
      <path class="cls-7" d="m546.92,2762.5c-88.92,0-161.25-84.11-161.25-187.5s72.33-187.5,161.25-187.5,161.25,84.11,161.25,187.5-72.33,187.5-161.25,187.5Zm0-340c-69.61,0-126.25,68.41-126.25,152.5s56.64,152.5,126.25,152.5,126.25-68.41,126.25-152.5-56.64-152.5-126.25-152.5Z"/>
      <path class="cls-7" d="m280.63,2905.21c-27.92,0-50.62-22.71-50.62-50.62v-98.75c0-27.92,22.71-50.62,50.62-50.62s50.62,22.71,50.62,50.62v98.75c0,27.91-22.71,50.62-50.62,50.62Zm0-165c-8.61,0-15.62,7.01-15.62,15.62v98.75c0,8.62,7.01,15.62,15.62,15.62s15.62-7.01,15.62-15.62v-98.75c0-8.62-7.01-15.62-15.62-15.62Z"/>
      <ellipse class="cls-8" cx="491.25" cy="2575" rx="143.75" ry="170"/>
      <g class="cls-11">
        <path class="cls-7" d="m635,2575c0,93.9-64.35,170-143.75,170-59.4,0-110.4-42.6-132.3-103.4,25.6,27.85,59.75,44.85,97.3,44.85,79.4,0,143.75-76.1,143.75-170,0-23.65-4.1-46.15-11.5-66.6,28.6,31.05,46.5,75.65,46.5,125.15Z"/>
      </g>
      <g class="cls-13">
        <path class="cls-1" d="m611.9,2482.6c-26.1-31.85-62.65-51.65-103.15-51.65-79.4,0-143.75,76.1-143.75,170,0,34.05,8.5,65.8,23.1,92.4-25.15-30.6-40.6-72.35-40.6-118.35,0-93.9,64.35-170,143.75-170,50.6,0,95.05,30.9,120.65,77.6Z"/>
      </g>
      <path class="cls-7" d="m491.25,2762.5c-88.92,0-161.25-84.11-161.25-187.5s72.33-187.5,161.25-187.5,161.25,84.11,161.25,187.5-72.33,187.5-161.25,187.5Zm0-340c-69.61,0-126.25,68.41-126.25,152.5s56.64,152.5,126.25,152.5,126.25-68.41,126.25-152.5-56.64-152.5-126.25-152.5Z"/>
      <path class="cls-7" d="m491.25,2689.17c-54.08,0-98.08-51.22-98.08-114.17s44-114.16,98.08-114.16,98.08,51.21,98.08,114.16-44,114.17-98.08,114.17Zm0-208.33c-43.05,0-78.08,42.24-78.08,94.16s35.03,94.17,78.08,94.17,78.08-42.24,78.08-94.17-35.03-94.16-78.08-94.16Z"/>
      <g class="cls-11">
        <ellipse class="cls-7" cx="491.25" cy="2575" rx="29.67" ry="35.08"/>
      </g>
      <path class="cls-7" d="m503.75,2417.5l-12.5,26.88-12.5-26.88c-3.21-6.9-.22-15.1,6.69-18.31,11.38-5.59,23.83,7.13,18.31,18.31h0Z"/>
      <path class="cls-7" d="m491.25,2702.5l12.5,26.88c3.21,6.9.22,15.1-6.69,18.31-11.38,5.59-23.83-7.13-18.31-18.31,0,0,12.5-26.87,12.5-26.87h0Z"/>
      <polygon class="cls-7" points="385.26 2460.92 399.38 2487.5 370.04 2480.75 385.26 2460.92 385.26 2460.92"/>
      <polygon class="cls-7" points="608.46 2480.03 581.88 2487.5 591.54 2461.63 608.46 2480.03 608.46 2480.03"/>
      <polygon class="cls-7" points="350 2574.38 375 2586.88 350 2599.38 350 2574.38 350 2574.38"/>
      <polygon class="cls-7" points="634.64 2599.38 609.38 2586.88 634.64 2574.38 634.64 2599.38 634.64 2599.38"/>
      <polygon class="cls-7" points="385.99 2691.26 418.12 2679.17 402.71 2709.85 385.99 2691.26 385.99 2691.26"/>
      <g class="cls-11">
        <path class="cls-7" d="m876.62,2687.33v-95.13c-17.35-16.85-19.25-39.65-9.75-56.65,10.7-19.05,34.65-25.7,54.9-17.45,27.96,11.46,35.57,39.2,21.16,61.53-6.93,10.74-11.31,22.91-11.31,35.69v70.22c0,11.05-8.96,20.01-20.01,20.01h-16.78c-10.06,0-18.22-8.16-18.22-18.22Z"/>
      </g>
      <path class="cls-8" d="m854.38,2679.6v-113.35c-17.35-16.85-19.25-39.65-9.75-56.65,10.7-19.05,34.65-25.7,54.9-17.45,27.96,11.46,35.57,39.2,21.16,61.53-6.93,10.74-11.31,22.91-11.31,35.69v70.22c0,11.05-8.96,20.01-20.01,20.01h-34.99Z"/>
      <g class="cls-11">
        <path class="cls-7" d="m854.38,2679.6v-113.35c-17.35-16.85-19.25-39.65-9.75-56.65,10.7-19.05,34.65-25.7,54.9-17.45,27.96,11.46,35.57,39.2,21.16,61.53-6.93,10.74-11.31,22.91-11.31,35.69v70.22c0,11.05-8.96,20.01-20.01,20.01h-34.99Z"/>
      </g>
      <path class="cls-7" d="m889.37,2689.6h-34.99c-5.52,0-10-4.48-10-10v-109.33c-16.77-18.64-20.26-44.47-8.48-65.55,12.85-22.87,41.81-32.25,67.41-21.83,16.2,6.64,27.67,18.44,32.31,33.22,4.41,14.05,2.03,29.72-6.53,42.99-6.44,9.98-9.71,20.16-9.71,30.27v70.22c0,16.55-13.46,30.01-30.01,30.01Zm-24.99-20h24.99c5.52,0,10.01-4.49,10.01-10.01v-70.22c0-13.82,4.46-28.04,12.9-41.11,5.41-8.38,6.92-17.67,4.26-26.15-2.83-9.01-10.21-16.36-20.8-20.7-16.25-6.62-34.48-.99-42.39,13.09-8.1,14.49-4.96,31.99,8,44.58,1.94,1.88,3.03,4.47,3.03,7.17v103.35Z"/>
      <polygon class="cls-7" points="579.15 2703.05 571.25 2679.17 595.85 2684.45 579.15 2703.05 579.15 2703.05"/>
      <path class="cls-8" d="m826.25,2659.59v-93.34c-17.35-16.85-19.25-39.65-9.75-56.65,10.7-19.05,34.65-25.7,54.9-17.45,33.55,13.75,37.8,50.95,9.85,74.1v113.35h-34.99c-11.05,0-20.01-8.96-20.01-20.01Z"/>
      <g class="cls-13">
        <path class="cls-1" d="m833.35,2515.2c-9.45,17-7.55,39.85,9.75,56.7v93.3c0,5.65,2.35,10.75,6.15,14.4h-3c-11.05,0-20-8.95-20-20v-93.35c-17.35-16.85-19.25-39.65-9.75-56.65,10.7-19.05,34.65-25.7,54.9-17.45,1.9.8,3.75,1.65,5.45,2.6-17.2-2.35-34.7,4.95-43.5,20.45Z"/>
      </g>
      <path class="cls-7" d="m881.25,2689.6h-34.99c-16.55,0-30.01-13.46-30.01-30.01v-89.32c-16.77-18.64-20.26-44.47-8.48-65.55,12.85-22.87,41.8-32.25,67.41-21.83,18.86,7.73,31.24,22.42,33.96,40.32,2.58,16.89-4.07,34.34-17.89,47.52v108.87c0,5.52-4.48,10-10,10Zm-27.61-190.96c-11.76,0-22.74,5.75-28.42,15.85-8.1,14.49-4.96,31.99,8,44.58,1.94,1.88,3.03,4.47,3.03,7.17v93.34c0,5.52,4.49,10.01,10.01,10.01h24.99v-103.35c0-2.98,1.33-5.8,3.62-7.7,10.96-9.08,16.25-20.86,14.5-32.32-1.65-10.78-9.58-19.83-21.76-24.83-4.59-1.87-9.34-2.76-13.97-2.76Z"/>
      <path class="cls-7" d="m1067.5,3140.84c-7.1,0-13.79-4.36-16.41-11.42-3.36-9.06,1.25-19.13,10.32-22.5l54.84-20.35v-1071.8l-51.68-8.77c-9.53-1.62-15.94-10.65-14.32-20.18,1.61-9.53,10.63-15.94,20.18-14.32l66.25,11.25c8.41,1.43,14.57,8.72,14.57,17.25v1098.75c0,7.32-4.55,13.86-11.41,16.41l-66.25,24.58c-2.01.74-4.06,1.1-6.09,1.1Z"/>
      <g class="cls-11">
        <polyline class="cls-7" points="1067.5 2000 1133.75 2008.75 1130.62 3092.5 1077.5 3112.5"/>
      </g>
      <g class="cls-11">
        <path class="cls-7" d="m690.65,2575c0,93.9-64.35,170-143.75,170-2.6,0-5.2-.1-7.75-.25,98.5-42.6,110.85-188.5,75.35-257.25h55.7c12.95,25.55,20.45,55.5,20.45,87.5Z"/>
      </g>
      <g class="cls-11">
        <path class="cls-7" d="m1067.5,2000v1123.35l-772.5-95c474.4-37,764-327.7,755-1028.35h17.5Z"/>
      </g>
    </g>
    <g class="cls-11">
      <path class="cls-7" d="m354.17,3042.5c2.5,3.9,201.67,80.85,201.67,80.85h273.74l-127.81-44.98"/>
    </g>
    <g class="cls-11">
      <path class="cls-7" d="m1137.92,3057.08s45,60.83,47.08,60.83,46.67-15.83,46.67-15.83l-91.25-65"/>
    </g>
  </g>
</svg>