<?xml version="1.0" encoding="utf-8"?>
<!-- Generator: Adobe Illustrator 27.4.0, SVG Export Plug-In . SVG Version: 6.00 Build 0)  -->
<svg version="1.1" id="Layer_1" xmlns="http://www.w3.org/2000/svg" xmlns:xlink="http://www.w3.org/1999/xlink" x="0px" y="0px"
	 viewBox="0 0 4000 4000" style="enable-background:new 0 0 4000 4000;" xml:space="preserve">
<style type="text/css">
	.st0{display:none;}
	.st1{display:inline;fill:#37DBFF;}
	.st2{fill:#FFFFFF;}
	.st3{opacity:0.25;}
	.st4{fill:#371A45;}
	.st5{opacity:0.35;}
	.st6{fill:#22A7F0;}
	.st7{opacity:0.7;}
	.st8{fill:#FFF031;}
	.st9{fill:#220F2D;}
	.st10{opacity:0.5;}
</style>
<g>
	<g class="st0">
		<rect class="st1" width="4000" height="4000"/>
	</g>
	<g>
		<g>
			<g>
				<path class="st2" d="M1885.2,2160.5c0,0,171,116.1,334.5,163.9c47.2,13.8,93.8,21.9,135.4,19.9
					c207.5-10.1,481.4-228.2,531.1-518.6c10.7-62.5,15.4-193.8-2.4-307.5c-15.1-96.2,26.5-249.9-35.1-251.5
					c-78.7-2.1-85.4,236.3-85.4,236.3s-60.9,54.9-87.5,56.2c-26,1.2-57.4-29.9-74-1.5c-51.9,89.4-28.4,171.1-28.4,171.1
					s-175.7,184-258.9,199.2c-22,4-52.5-0.6-87.5-9.9c-29.7-7.9-62.6-19.1-96.3-31.1c-84.5-30.2-173.8-65.7-229.2-67.3l-14.2,298.7
					L1885.2,2160.5z"/>
			</g>
			<g>
				<g>
					<path class="st2" d="M1207,2808.2c97.9,123.4,346.8,76,346.8,76l-8.9-643.8l-2.8-200.7l-0.2-18.4l-2.1-152.2
						c0,0-93,4-185.5,30.1c-15.4,4.3-30.8,9.3-45.7,15c-6.3,2.4-12.5,4.9-18.6,7.5c-51.8,22.4-95.4,54.2-111.3,99.1
						C1123.7,2176.8,1126.5,2706.8,1207,2808.2z"/>
				</g>
				<g class="st3">
					<path class="st4" d="M1141.4,2373.8c-0.3,185.2,20.4,377.5,65.5,434.4c97.9,123.4,346.8,76,346.8,76l-10.6-223.2
						c0,0-248.9,47.4-346.8-76C1169.8,2551.6,1151.8,2471.6,1141.4,2373.8z"/>
				</g>
				<g>
					<path class="st4" d="M1539.7,1869l125.8,242.1c0,0-35.7,439.1-35.1,444.1c0.6,5-76.7,329-76.7,329s-47,8.9-108.2,8.9
						c-79.6,0-183.3-15.2-238.7-84.9c-80.5-101.4-83.2-631.4-28.3-787.5C1227.3,1882.5,1539.7,1869,1539.7,1869 M1558.8,1835.9
						l-20.5,0.9c-3.3,0.1-82.3,3.8-168.5,24.9c-122.9,30.2-197.5,80-221.5,148.3c-27.6,78.4-42.7,245.5-38.5,425.7
						c2.2,93.6,13.6,319.1,71.9,392.5c63.7,80.3,178.7,97.1,263.9,97.1c63.5,0,112.2-9.1,114.2-9.5l20.5-3.9l4.8-20.3
						c0.2-0.8,19.6-82,38.6-162.7c33.5-142.3,38.7-165.4,39-173.8c0.8-18.2,21.3-273.1,35-441.5l0.8-9.3l-4.3-8.2l-125.8-242.1
						L1558.8,1835.9L1558.8,1835.9z"/>
				</g>
				<g>
					<path class="st2" d="M1161,2451.3l170.3,10c15.2,0.9,27.9,11.9,30.9,26.8c10.8,54.7,29.3,182.4-23.4,225.5
						c-43.7,35.8-115.7,32.9-158.5-2.1c-47.8-39.1-54.5-164.5-54.7-226.7C1125.5,2465.6,1141.7,2450.2,1161,2451.3z"/>
				</g>
				<g class="st5">
					<path class="st4" d="M1362.2,2488.2c10.9,54.7,29.3,182.4-23.4,225.5c-43.7,35.8-115.7,32.9-158.5-2.1
						c-29.4-24.1-43.2-80.8-49.6-135.3c8.1,27.2,20.5,49.1,35.7,63.4c87.1,81.9,149.5-17.4,149.5-17.4s11.5,23.7,20.4,24.9
						c37.1,5,27.6-110.7,21.2-170.5C1359.7,2480,1361.4,2483.9,1362.2,2488.2z"/>
				</g>
				<g>
					<path class="st4" d="M1261.9,2753c-32.5,0-65.2-10.3-90.3-30.8c-51.3-42-59.5-166.7-59.8-237.2c-0.1-13,5.3-25.5,14.7-34.4
						c9.4-8.9,22.3-13.6,35.2-12.8l170.3,10c21.5,1.3,39.3,16.8,43.5,37.9c13.7,69.3,28.3,192.6-28.2,238.8
						C1324.1,2743.5,1293.2,2753,1261.9,2753z M1159,2465c-5.1,0-9.8,1.9-13.5,5.4c-4,3.8-6.2,8.9-6.2,14.4
						c0.5,110.2,19,191,49.7,216.1c38.9,31.9,103.6,32.8,141.1,2.1c32.7-26.8,39.6-106.1,18.6-212.2c-1.7-8.8-9.2-15.3-18.2-15.8
						l-170.3-10C1159.8,2465,1159.4,2465,1159,2465z"/>
				</g>
				<g>
					<path class="st4" d="M1248.8,2001.9c4.9-6.2,11.8-10.3,18.8-13.6c19-8.7,39.4-13.1,59.8-16.1c80.1-10.2,182-0.4,228.3,75.7
						c4.5,7.7,1.9,17.6-5.8,22.1c-8,4.7-18.4,1.5-22.5-6.8c-10.1-20.3-28.1-36.6-49.6-48c-44.4-23.1-98.3-28.4-148.2-24.7
						c-19,1.7-38.1,4.6-55.7,11.5c-6.1,2.5-11.5,5.5-14.7,9.2C1252.9,2017.8,1242.7,2008.7,1248.8,2001.9L1248.8,2001.9z"/>
				</g>
			</g>
			<g class="st3">
				<path class="st4" d="M1885.2,2160.5c0,0,284,192.8,469.9,183.8c207.5-10.1,481.4-228.2,531.1-518.6c6-35.1,10.1-91.8,9.4-154.9
					c-3.8,10.6-6.6,20-7.9,28c-49.7,290.4-323.6,508.5-531.1,518.6c-172.2,8.4-428.6-156.5-465.4-180.8L1885.2,2160.5z"/>
			</g>
			<g>
				<path class="st4" d="M2342.1,2360.7c-188.6,0-454.5-179.1-466-186.9c-4.6-3.2-7.3-8.5-7-14.1l16.3-340.6
					c0.4-8.8,7.7-15.7,16.6-15.3c50.2,1.4,122.2,27.6,198.3,55.2c82.7,30,168.3,61.1,211.3,53.3c61.6-11.2,191.7-134.2,244.2-188.2
					c-4.9-25.1-12.9-96.9,32.1-174.3c17.4-30,46.8-19.1,64.3-12.5c8.2,3.1,16.8,6.2,22.8,6c11.7-0.6,45.6-24.3,72.4-47.6
					c0.8-17.7,3.8-65.8,13.2-114.5c17-87.6,46.7-131.5,88.5-130.4c12.4,0.3,23.2,5.1,31.2,13.7c23,24.7,20.6,77.4,17.9,138.4
					c-1.8,39.3-3.6,80,1.5,113c17.3,110.8,14.2,243.8,2.4,312.7c-23.6,137.7-98.6,270.4-211.4,373.6
					c-102.7,94-227.9,153.2-334.8,158.4C2351.3,2360.6,2346.7,2360.7,2342.1,2360.7z M1901.7,2152.1
					c45.8,29.8,290.6,183.9,452.6,176.1c204.5-9.9,468.6-228.1,516-505.2c11.4-66.4,14.4-194.9-2.5-302.2
					c-5.7-36.1-3.8-78.5-1.9-119.4c2.1-46.9,4.5-100.2-9.3-115c-1.5-1.6-3.7-3.3-8.5-3.5c-0.2,0-0.4,0-0.5,0
					c-42.4,0-65.8,131.4-68.3,220.7c-0.1,4.4-2.1,8.6-5.3,11.5c-15.3,13.8-67.5,58.8-97.5,60.3c-12.7,0.6-24.9-3.9-35.7-8
					c-21.3-8-22.4-6.2-25.1-1.5c-47.9,82.5-27.1,157.8-26.9,158.5c1.6,5.5,0.1,11.4-3.8,15.6c-7.3,7.7-180.3,188-267.7,203.9
					c-51.7,9.4-137.4-21.7-228.1-54.7c-62.7-22.8-127.3-46.2-172.5-52L1901.7,2152.1z"/>
			</g>
			<g>
				<path class="st2" d="M1839,3570c42,28,113,52.3,213.6,52.2c140.6-0.1,255.4-7.2,254.2-118.8c-0.9-88.6-139.4-128.5-139.4-128.5
					c61.7-248.7,76.1-464.1,71.2-659.3c-1.7-65.6-5.4-128.9-10.3-190.4l-469.8,96.1c30.7,139.4,42,274.9,45.3,398
					C1811.4,3307.3,1774.9,3527.3,1839,3570z"/>
			</g>
			<g class="st3">
				<path class="st4" d="M1758.4,2621.1c2,9.2,4,18.4,5.8,27.6c0.8,3.8,1.6,7.7,2.3,11.5c1,5.1,2,10.2,2.9,15.3
					c1.3,6.7,2.5,13.4,3.6,20.1c0.4,2.2,0.8,4.3,1.1,6.5c0.8,4.5,1.5,8.9,2.2,13.4c1,6.2,2,12.5,3,18.7c0.6,4,1.2,8.1,1.8,12.1
					c2.5,17.2,4.8,34.3,6.8,51.3c1.3,10.5,2.4,20.9,3.5,31.3c0.6,5.6,1.1,11.1,1.7,16.6c0.5,4.8,0.9,9.6,1.3,14.3
					c0.7,7.8,1.4,15.6,2,23.4c0.4,5.3,0.8,10.6,1.2,15.8c0.6,7.4,1,14.9,1.5,22.3c0.3,4.7,0.6,9.4,0.8,14.1
					c0.3,4.4,0.5,8.8,0.8,13.3c0.4,7.7,0.8,15.4,1.1,22.9c0,0.5,0,1,0.1,1.5c0.6,15.5,1.2,30.9,1.6,46
					c7.7,288.3-28.8,508.2,35.3,550.9c42,28,113,52.3,213.6,52.2c112.3-0.1,208.2-4.6,241.5-63.4c-46.6,18.9-114.2,20.9-189.3,21
					c-100.5,0-171.6-24.2-213.6-52.2c-44.3-29.5-40.5-143.6-36.5-306.4c2.7-110.8,63.8-210.6,157-251.9
					c112.2-49.8,200.6-135.4,226.9-253.8c-1.7-65.6-5.4-128.9-10.3-190.4l-411.2,84.1L1758.4,2621.1z"/>
			</g>
			<g>
				<path class="st4" d="M2052.2,3638.3c-121.6,0-191.4-34.4-222.1-54.9c-50.8-33.8-48.1-143.9-44-310.5
					c4.2-171.1,10-405.3-43.4-648.3c-1.9-8.7,3.6-17.3,12.3-19.2c8.7-1.9,17.3,3.6,19.2,12.3c54.3,246.8,48.4,483.3,44.2,656
					c-3.6,144.7-6.4,258.9,29.6,282.9c27.7,18.5,91.1,49.5,204.3,49.5c0.1,0,0.2,0,0.4,0c92.9-0.1,179.4-3.2,216.6-40.9
					c14.7-14.9,21.7-35,21.4-61.7c-0.8-75.7-126.5-112.8-127.7-113.2l-14.9-4.3l3.7-15.1c85.1-343.3,78.3-619.6,60.5-844.6
					c-0.7-8.9,5.9-16.6,14.8-17.3c8.8-0.7,16.6,5.9,17.3,14.8c17.8,224.4,24.7,499.4-57.8,840.5c38,13.8,135.4,57.1,136.3,138.9
					c0.4,35.2-10,63.7-30.7,84.7c-46,46.6-135.7,50.4-239.6,50.5C2052.5,3638.3,2052.3,3638.3,2052.2,3638.3z"/>
			</g>
			<g>
				<path class="st4" d="M1957.9,3170.6c-95.3,0-155-29.6-159.3-31.8c-6.7-3.5-9.4-11.7-6-18.5c3.4-6.7,11.7-9.4,18.4-6l0,0
					c1.7,0.9,174.9,85.8,403.8-44.4c6.6-3.8,15-1.4,18.7,5.1s1.4,15-5.1,18.7C2123.6,3153.4,2030.4,3170.6,1957.9,3170.6z"/>
			</g>
			<g>
				<path class="st4" d="M2161.8,3390c-61.4-23.6-131.1-22.8-193.8-4.1c-8.3,2.2-19.3,6.8-27.5,9.5c0,0,12.9-6.8,12.9-6.8
					c48.4-25.3,103.1-37.9,157.9-36.8c20.8,0.5,41.7,2.5,61.9,7.9C2194.7,3367.2,2183,3398.6,2161.8,3390L2161.8,3390z"/>
			</g>
			<g class="st5">
				<path class="st4" d="M1858,2932.5c-0.7-14-1.6-28.6-2.7-43.6C1856.4,2904,1857.3,2918.5,1858,2932.5z"/>
			</g>
			<g class="st5">
				<path class="st4" d="M1854.4,2876.7c-0.6-8.2-1.3-16.6-2.1-25C1853,2860.2,1853.8,2868.5,1854.4,2876.7z"/>
			</g>
			<g class="st5">
				<path class="st4" d="M1848.5,2812.4c-0.8-7.8-1.7-15.8-2.6-23.9C1846.8,2796.7,1847.6,2804.6,1848.5,2812.4z"/>
			</g>
			<g class="st5">
				<path class="st4" d="M1845.4,2784.9c-1.1-9.2-2.2-18.4-3.4-27.9C1843.2,2766.4,1844.4,2775.7,1845.4,2784.9z"/>
			</g>
			<g>
				<path class="st2" d="M1402.3,2701.6c-18.8-35.3-30.7-75.8-33.9-121.4c-4.4-61.6-3.6-135,1.3-212.6c2-31.9,4.7-64.5,8.1-97.4
					c9.1-89.9,22.9-181.3,40-263.3c0.8-3.9,1.6-7.7,2.5-11.5c10.5-49.5,22.2-95.4,34.8-135.2c6.6-20.8,13.4-39.9,20.3-57.1
					c26.7-65.7,560.4-147.7,648.7,55.9c2.3,9.5,4.4,18.9,6.4,28.2c1.7,7.5,3.2,14.8,4.7,22.2c5.8,28,10.9,55.4,15.8,83.1
					c8.2,45.8,16,92.6,26.5,145.3c12.5,62.7,27.9,125,42,186.7c14.2,61.8,27.1,122.9,34.5,183
					C2305.7,2924.6,1572.4,3021.9,1402.3,2701.6z"/>
			</g>
			<g class="st3">
				<path class="st4" d="M1368.4,2514.7c3,42.6,13.6,80.7,30.3,114.3c44.5,8.5,137.3,17.4,314.3,2.9l1.1,18.3
					c2.5,42.9,39.8,75.9,82.6,73.3l175.6-10.4c52.6-3.1,69.2,69.9,20.3,89.7c-209.2,84.7-479.5,69.9-576.2-112.2
					c-1.2-2.3-16.6-59.3-17.7-61.6c-10.8-2.1-18.7-4.1-24.3-5.8c-1.5-6.9-2.7-13.9-3.7-21.1c5,36.8,15.9,69.9,31.6,99.5
					c169,318.3,893.9,224.3,852.7-186.1c-3.3,31.5-11.6,60.8-23.9,87.7l-1.4-23.8l-9.1-152.6c-2.5-42.9-39.7-75.9-82.6-73.3
					l-362,21.5c-5.4,0.3-10.5,1.1-15.5,2.5c-35.1,9.4-60.1,42.5-57.8,80.1l1.9,33.1c-48.2,6-219,23.7-338-9.1
					C1367,2492.9,1367.6,2504,1368.4,2514.7z"/>
			</g>
			<g class="st5">
				<path class="st4" d="M1365.7,2515.6c0.2,8.6,0.4,17.1,0.7,25.4c0.1,4.7,0.3,9.4,0.6,13.9c0.4,8.6,0.8,17,1.5,25.2
					c0,0.2,0,0.4,0,0.6c0.2,2.6,0.4,5.2,0.7,7.9v0.2c0.2,1.7,0.3,3.3,0.5,4.9c0.3,2.9,0.7,5.6,1,8.4c1,7.2,2.3,14.2,3.7,21.1
					c5.6,1.7,13.5,3.7,24.3,5.8c-16.7-33.6-27.3-71.7-30.3-114.3c-0.8-10.7-1.4-21.8-1.8-33.1c-0.3-7.5-0.5-15.1-0.7-22.9
					c-0.2,7.6-0.3,15.2-0.3,22.7C1365.5,2493,1365.5,2504.4,1365.7,2515.6z"/>
			</g>
			<g>
				<path class="st4" d="M2119.3,1861.1c-85.3-139.9-394.3-125.8-534.9-91.2c-23,5.6-45.7,12.1-67.1,21.6
					c-9.8,4.5-19.7,9.2-26.2,16.7c0,0-0.4,0.5-0.4,0.5c0,0.1,0,0.2-0.1,0.2c0,0.1-0.1,0.1-0.2,0.2c-0.1,0-0.3,0.8-0.5,1.2l-1,2.8
					c-31.9,82.9-50.8,170.1-67,257.5c-25.1,143.8-40.8,290-40.1,436c0.9,39,0.7,80.5,9.4,118.6c21.4,102,102.5,176.8,197.3,213.6
					c170.8,66.1,398.2,44.5,543.5-70.7c73.7-58,117.1-150.3,107.3-244.6c-4.5-48-13.9-95.8-24.3-142.9
					c-18.2-79.4-40.8-159.7-42.8-241.7c-0.3-5.9,8.5-7.7,10.5-2.1c35.6,92.2,55.7,188.6,74,285.4c21.4,108,29.2,198.9-34.9,295.5
					c-146.1,212.8-531.3,247.4-734.8,102.8c-63.1-44.5-111.2-112-127.3-188.1c-7.8-32.3-8.6-67.4-9.9-100.6
					c-2.9-156.5,13.5-312.8,40.2-466.8c16.4-88.9,36-178.9,68.8-263.8c15.5-51.7,167.3-73.5,216.2-79.9
					c129.9-15.4,339.3-20.3,430,89.9c10.8,13.7,19.2,29.3,24,45.8c0.8,2.9-0.8,5.9-3.7,6.7C2123,1864.2,2120.5,1863.1,2119.3,1861.1
					L2119.3,1861.1z"/>
			</g>
			<g>
				
					<ellipse transform="matrix(0.1602 -0.9871 0.9871 0.1602 -551.582 4304.999)" class="st2" cx="2254.2" cy="2476.7" rx="68.6" ry="68.6"/>
			</g>
			<g class="st3">
				<path class="st4" d="M2322.8,2476.6c0,37.9-30.7,68.6-68.6,68.6c-37.9,0-68.6-30.7-68.6-68.6c0-10.5,2.3-20.4,6.6-29.3
					c11,23.2,34.7,39.3,62,39.3c27.4,0,51-16.1,62-39.3C2320.4,2456.2,2322.8,2466.2,2322.8,2476.6z"/>
			</g>
			<g>
				<path class="st4" d="M2254.2,2559c-45.4,0-82.3-36.9-82.3-82.3c0-45.4,36.9-82.3,82.3-82.3s82.3,36.9,82.3,82.3
					C2336.5,2522,2299.6,2559,2254.2,2559z M2254.2,2421.8c-30.3,0-54.9,24.6-54.9,54.9s24.6,54.9,54.9,54.9s54.9-24.6,54.9-54.9
					S2284.4,2421.8,2254.2,2421.8z"/>
			</g>
			<g class="st5">
				<path class="st4" d="M1365.7,2515.6c0.2,8.6,0.4,17.1,0.7,25.4c0.1,4.7,0.3,9.4,0.6,13.9c0.4,8.6,0.8,17,1.5,25.2
					c0,0.2,0,0.4,0,0.6c0.2,2.6,0.4,5.2,0.7,7.9v0.2c0.2,1.7,0.3,3.3,0.5,4.9c0.3,2.9,0.7,5.6,1,8.4c1,7.2,2.3,14.2,3.7,21.1
					c5.6,1.7,13.5,3.7,24.3,5.8c-16.7-33.6-27.3-71.7-30.3-114.3c-0.8-10.7-1.4-21.8-1.8-33.1c-0.3-0.1-0.7-0.2-1-0.2h0
					C1365.4,2493,1365.5,2504.4,1365.7,2515.6z"/>
			</g>
			<g>
				<path class="st2" d="M2182.6,2646.9l-362.1,21.5c-42.9,2.6-80-30.4-82.6-73.3l-11.4-192.7c-2.2-37.6,22.8-70.7,57.8-80.1
					c5-1.4,10.1-2.2,15.5-2.5l362-21.5c42.9-2.6,80.1,30.4,82.6,73.3l9.1,152.6l2.4,40.1C2258.5,2607.2,2225.5,2644.3,2182.6,2646.9
					z"/>
			</g>
			<g class="st3">
				<path class="st4" d="M2182.6,2646.9l-362.1,21.5c-42.9,2.6-80-30.4-82.6-73.3l-11.4-192.7c-2.2-37.6,22.8-70.7,57.8-80.1
					c21.4,12.4,34.9,20.4,34.9,20.4c26.8,153.6,75.5,228.1,267.7,219.8c83-3.6,134.6-19.4,166.6-38.3l2.4,40.1
					C2258.5,2607.2,2225.5,2644.3,2182.6,2646.9z"/>
			</g>
			<g>
				<path class="st4" d="M1815.9,2682.3c-22.4,0-43.8-8.1-60.8-23.2c-18.4-16.3-29.3-38.7-30.8-63.1l-11.5-192.7
					c-3-50.5,35.7-94.1,86.2-97.1l362-21.5c24.4-1.5,48,6.7,66.3,23.1c18.4,16.3,29.3,38.7,30.8,63.1l11.5,192.7
					c3,50.5-35.7,94.1-86.2,97.1l-362,21.5C1819.6,2682.2,1817.7,2682.3,1815.9,2682.3z M2166.6,2311.8c-1.3,0-2.6,0-3.9,0.1
					l-362,21.5c-35.4,2.1-62.6,32.7-60.4,68.1l11.5,192.7c1,17.1,8.7,32.8,21.6,44.3c12.9,11.5,29.4,17.2,46.5,16.2l362-21.5
					c35.4-2.1,62.6-32.7,60.4-68.1l-11.5-192.7c-1-17.1-8.7-32.8-21.6-44.3C2197.3,2317.5,2182.3,2311.8,2166.6,2311.8z"/>
			</g>
			<g>
				<path class="st2" d="M2197.1,2644.6c-4.6,1.3-9.4,2-14.4,2.3l-362.1,21.5c-31.4,1.9-59.8-15.3-73.7-41.6
					c-5.1-9.5-8.2-20.3-8.9-31.7l-5.1-85.6l-1.7-28.2l-4.7-78.8c-2.6-42.9,30.5-80,73.3-82.6l78.2-4.6c-35.7,8.9-61.2,42.4-59,80.3
					l6.2,104.1l5.3,88.6c2.6,42.9,39.7,75.9,82.6,73.3L2197.1,2644.6z"/>
			</g>
			<g class="st5">
				<path class="st4" d="M2197.1,2644.6c-4.6,1.3-9.4,2-14.4,2.3l-362.1,21.5c-42.9,2.6-80-30.4-82.5-73.3l-6.8-113.8
					c10.3,19.6,28.1,43.3,54.5,44.3c14.4,0.6,28-10.6,39.6-26l5.3,88.6c2.6,42.9,39.7,75.9,82.6,73.3L2197.1,2644.6z"/>
			</g>
			<g>
				<path class="st4" d="M1815.8,2682.3c-22.4,0-43.8-8.1-60.8-23.2c-18.4-16.3-29.3-38.8-30.8-63.2l-11.5-192.7
					c-1.5-24.4,6.7-48,23-66.3c16.3-18.4,38.7-29.3,63.1-30.8l78.2-4.6l4.2,27c-30,7.5-50.5,35.4-48.6,66.2l11.5,192.7
					c1,17.1,8.7,32.8,21.6,44.3c12.9,11.5,29.4,17.2,46.5,16.2l284-16.9l4.3,27c-5.6,1.5-11.4,2.4-17.2,2.7l-362,21.5
					C1819.5,2682.2,1817.7,2682.3,1815.8,2682.3z M1826.7,2331.9l-26,1.5c-17.1,1-32.8,8.7-44.3,21.6
					c-11.5,12.9-17.2,29.4-16.2,46.5l11.5,192.7c1,17.1,8.7,32.8,21.6,44.3c12.9,11.5,29.4,17.2,46.5,16.2l28.9-1.7
					c-0.3-0.3-0.6-0.6-1-0.8c-18.4-16.3-29.3-38.8-30.8-63.2l-11.5-192.7C1804,2372.2,1812.1,2349.4,1826.7,2331.9z"/>
			</g>
			<g>
				<path class="st6" d="M1967.7,2484.9c0.4,7.1-6.5,65.2-6.5,65.2s-18.2,1-40.6,2.2c-28,1.5-52.2-26.2-54.1-61.9
					c-1.9-35.7,19.2-65.9,47.2-67.4c18.9-1,40.6-2.2,40.6-2.2S1967.1,2473.3,1967.7,2484.9z"/>
			</g>
			<g class="st3">
				<path class="st4" d="M1967.7,2484.9c0.4,7.1-6.5,65.2-6.5,65.2s-18.2,1-40.6,2.2c-28,1.5-52.2-26.2-54.1-61.9
					c-1.9-35.7,19.2-65.9,47.2-67.4c18.9-1,40.6-2.2,40.6-2.2S1967.1,2473.3,1967.7,2484.9z"/>
			</g>
			<g>
				<path class="st4" d="M1918.3,2563.3c-15.9,0-31.1-7.3-42.9-20.8c-11.8-13.5-18.9-31.8-20-51.6c-1.1-19.7,4-38.7,14.3-53.4
					c10.9-15.6,26.2-24.6,43.2-25.5l49.7-2.7l2.2,8.8c1.3,5.5,13.1,53.9,13.8,66.1c0.4,7.5-5,53.2-6.6,67.1l-1.1,9.2l-49.8,2.7
					C1920.2,2563.3,1919.3,2563.3,1918.3,2563.3z M1945.7,2432.2l-31.5,1.7c-10.1,0.5-19.5,6.3-26.4,16.2
					c-7.5,10.7-11.2,24.8-10.4,39.6c0.8,14.8,6,28.4,14.6,38.3c7.9,9.1,17.9,13.8,28,13.3l31.4-1.7c2.9-25,5.5-50.2,5.4-54.2
					C1956.4,2478.8,1950.4,2452.2,1945.7,2432.2z"/>
			</g>
			<g>
				
					<ellipse transform="matrix(0.9986 -5.365892e-02 5.365892e-02 0.9986 -130.5455 108.6272)" class="st6" cx="1957.7" cy="2485.4" rx="50.7" ry="64.8"/>
			</g>
			<g class="st3">
				<path class="st4" d="M1961.1,2550.1c-27.9,1.5-52.1-26.2-54.1-61.9c-0.4-8.2,0.3-16.1,2.1-23.4c6.7,28.4,28,48.5,52,47.3
					c21.5-1.2,39-19.3,45-43.9c1.1,4.7,1.9,9.6,2.1,14.7C2010.2,2518.4,1989.1,2548.6,1961.1,2550.1z"/>
			</g>
			<g class="st7">
				<path class="st2" d="M2007.5,2499.6c-4.7-31.8-27.4-55.5-53.3-54.1c-23.4,1.2-42.1,22.6-46.3,50.6c-0.4-2.6-0.7-5.2-0.8-7.9
					c-1.9-35.7,19.2-65.9,47.2-67.4c28-1.5,52.2,26.2,54.1,61.9C2008.6,2488.5,2008.3,2494.2,2007.5,2499.6z"/>
			</g>
			<g>
				<path class="st4" d="M1958.9,2561.1c-15.9,0-31.1-7.3-42.9-20.8c-11.8-13.5-18.9-31.8-20-51.6s4-38.7,14.3-53.4
					c10.9-15.6,26.2-24.6,43.2-25.5c17-0.9,33.2,6.5,45.7,20.8c11.8,13.5,18.9,31.8,20,51.6c1.1,19.7-4,38.7-14.3,53.4
					c-10.9,15.6-26.2,24.6-43.2,25.5C1960.8,2561.1,1959.9,2561.1,1958.9,2561.1z M1956.3,2431.7c-0.5,0-1,0-1.6,0
					c-10.1,0.5-19.5,6.3-26.4,16.2c-7.5,10.7-11.2,24.8-10.4,39.6c0.8,14.8,6,28.4,14.6,38.3c8,9.1,17.9,13.9,28,13.3
					c10.1-0.5,19.5-6.3,26.4-16.2c7.5-10.7,11.2-24.8,10.4-39.6c-0.8-14.8-6-28.4-14.6-38.3
					C1975.2,2436.4,1965.9,2431.7,1956.3,2431.7z"/>
			</g>
			<g>
				<path class="st4" d="M2070,2663.1c-5.9,0-10.7-4.7-11-10.6l-3.3-93.5c-1-28.8,9-56.6,28.3-78l4.7-5.3
					c15.9-17.7,24.1-41.5,22.5-65.2l-7.1-108.6c-0.4-6,4.2-11.3,10.2-11.7c6.1-0.3,11.3,4.2,11.7,10.2l7.1,108.6
					c1.9,29.6-8.3,59.2-28.1,81.3l-4.7,5.3c-15.4,17.2-23.5,39.5-22.7,62.6l3.3,93.5c0.2,6.1-4.5,11.1-10.6,11.4
					C2070.3,2663.1,2070.1,2663.1,2070,2663.1z"/>
			</g>
			<g>
				<path class="st2" d="M1332.5,2490.3c1.8,53.4,54.7,73.7,54.7,73.7s73.2,37.9,374.9,10.6c0,0,85.3-87.4-20.5-140.9
					c0,0-210.2,31-350.1-7C1366.3,2419.8,1330.9,2442.6,1332.5,2490.3z"/>
			</g>
			<g class="st3">
				<path class="st4" d="M1332.5,2490.3c1.7,53.3,54.6,73.7,54.6,73.7s73.2,37.9,375,10.6c0,0,48.3-49.4,27.2-96.7
					c-0.1,0.3-0.2,0.5-0.3,0.8c-9.7,25.9-34,43.5-61.5,45.7c-272.8,21.4-340.3-13.6-340.3-13.6s-37-14.3-50.1-50.1
					C1333.8,2469,1332.1,2478.9,1332.5,2490.3z"/>
			</g>
			<g>
				<path class="st4" d="M1568.2,2598.2c-134.5,0-179.9-18.5-186.6-21.6c-6.6-2.7-60.9-26.6-62.9-85.8l0,0
					c-0.9-27.3,9.1-51.3,27.5-65.9c14.6-11.5,32.8-15.8,48.8-11.4c135.4,36.9,342.4,7,344.5,6.7l4.3-0.6l3.9,2
					c34.8,17.6,54.8,40.9,59.5,69.1c8,48.5-33.6,91.8-35.4,93.6l-3.5,3.6l-5,0.5C1683.5,2595.5,1619.4,2598.2,1568.2,2598.2z
					 M1382.4,2439.2c-6.3,0-13.2,2.5-19.1,7.2c-6.8,5.3-18,18.1-17.1,43.5l0,0c1.5,43.8,45.4,61.2,45.9,61.4l1.4,0.6
					c0.6,0.3,75.9,35,362,9.6c8.3-9.8,29.5-38.2,24.8-66.5c-3.1-18.2-16.9-34-41-47.1c-32,4.4-219.8,27.8-351.2-8
					C1386.2,2439.4,1384.3,2439.2,1382.4,2439.2z"/>
			</g>
			<g>
				<path class="st2" d="M1780.7,2865.7c0.9-14.2-25.2,362.8-55.2,593.4c-21.6,165.5-159,182.7-378.7,165.6
					c-80.9-6.3-142.8-32.9-136.6-103.5c8.4-94.8,134.1-130.7,134.1-130.7s31.3-389.7,56-794.3l404.6,174.6L1780.7,2865.7z"/>
			</g>
			<g>
				<path class="st4" d="M1465.5,3646.4c-38.3,0-78.8-2.4-120-5.7c-64-5-106.8-21.2-130.8-49.7c-16.2-19.1-23.1-43.1-20.6-71.3
					c7.8-88.3,102.3-129.5,134.9-141.2c5.2-65.4,33-420.4,55.1-783.3c0.5-8.9,8.2-15.6,17.1-15.1c8.9,0.5,15.7,8.2,15.1,17.1
					c-24.4,400.1-55.7,790.7-56,794.6l-0.9,11.1l-10.7,3.1c-1.1,0.3-115.2,34.1-122.5,116.6c-1.7,19.6,2.5,35.2,13.1,47.6
					c17.9,21.2,54.5,34.1,108.7,38.4c219.4,17.1,342-1.9,361.5-151.6c25.5-195.5,48.4-499.5,54.8-588.1c0.1-0.8,0.1-1.9,0.3-3.1
					c0-0.4,0-0.8,0-1.2l0.1,0c0-0.1,0-0.1,0-0.2l-0.2,0l0.2,0c1.1-6.6,4.5-16.1,17-15.2l16,1.1l-1.1,16.4c0,0.2,0,0.4-0.1,0.6
					l-0.3,4c-6.4,88.7-29.4,393.6-55,589.9C1721.7,3612.9,1607.9,3646.4,1465.5,3646.4z"/>
			</g>
			<g>
				<path class="st4" d="M1622.6,3202.9c-142.7,0-258.4-54-264.6-56.9c-6.8-3.3-9.7-11.4-6.5-18.3c3.2-6.8,11.4-9.8,18.3-6.5
					c1.9,0.9,192.4,89.6,379.5,37.8c7.3-2,14.9,2.3,16.9,9.6c2,7.3-2.3,14.9-9.6,16.9C1710.9,3198,1665.6,3202.9,1622.6,3202.9z"/>
			</g>
			<g>
				<path class="st4" d="M1339,3375.4c73.8-16.7,153.3-5.2,220.7,28.1c0,0,13.1,6.6,13.1,6.6c-36.2-13.4-74.8-21.4-113.3-21.9
					c-37.3-0.6-75.1,4.4-109.9,17.7C1328.2,3414.2,1316.9,3382.2,1339,3375.4L1339,3375.4z"/>
			</g>
			<g class="st3">
				<path class="st4" d="M1770.1,2877.3c0,6.3-15.4,357.6-44.6,581.9c-21.6,165.6-158.9,182.7-378.7,165.6
					c-80.9-6.3-142.9-32.9-136.6-103.5c0.2-1.6,0.3-3.3,0.6-4.9c24.9,18,62.1,26.9,104.7,30.2c219.8,17.2,357.2,0,378.7-165.6
					c22.3-171.4,58.6-402.2,75.5-503.6l0.4,0.2C1770,2877.5,1770,2877.4,1770.1,2877.3z"/>
			</g>
			<g>
				<path class="st2" d="M1574.9,2644.8c-48.1,17.7-119.6,0-119.6,0s-20.1,34.3-53,56.8c-19.1,13.1-42.6,22.2-68.9,18.4
					c-104-15.1-323.6-223.4-336.2-394.8c-8.9-120,196.2-286,342.9-388.8h0c47.6-33.3,89-60,115-76.3c18.1-11.3,28.7-17.6,28.7-17.6
					l-32.9,169.9l-3.1,16l-40.6,209.8l-29.4,32l-39.1,42.3l31,55l7.6,13.5c0,0,27.8-22.8,51.6-24.3s137-4.6,171.4,39.1
					C1634.7,2439.6,1623.1,2627.1,1574.9,2644.8z"/>
			</g>
			<g class="st3">
				<path class="st4" d="M1005.3,2372c43,160.4,233.4,334.3,328.1,348c71.7,10.4,122-75.2,122-75.2s71.4,17.7,119.6,0
					c48.2-17.7,59.8-205.1,25.4-248.9c-2.5-3.1-5.4-6.1-8.6-8.8c7.7,71.9-8,176-43.3,189c-48.2,17.7-98.8-13.5-119.6,0
					s-50.2,85.6-122,75.2C1225.7,2639.5,1073.9,2509.9,1005.3,2372z"/>
			</g>
			<g>
				<path class="st4" d="M1486.6,1847.1c-66,57.5-139.8,103.8-209.7,156.1c-69,51.3-136.2,108-192.3,172.7
					c-34.4,41.4-76.6,97-70.9,152.8c14.3,130.1,140.1,272.8,246.9,342.4c27.8,16.6,58.2,35.1,91.3,33.3
					c42.6-5.1,75.1-42.5,95.7-77.9c38.5,9.1,82.3,15.6,120.6,3.6c2.5-0.7,3.1-1.5,5.1-2.9c34.4-38.5,38.6-164.7,19.5-211.9
					c-16.2-40.4-104.8-43-143.4-43.1c-11.6,0.5-21.5-0.6-32.6,4.1c-15.8,5.9-31.1,19.1-43.8,29.8c0,0-9.9-16.9-9.9-16.9
					c-15.4-26.2-31.2-52.4-45.1-79.5c26.1-27.5,53.3-54.5,85.3-75.1c4.6-3,10.6,2.5,7.9,7.3c-16,30.2-37.6,56.6-60,82.2
					c0,0,2.3-19.9,2.3-19.9c13.5,22.5,25.6,45.8,38.1,68.8l-24.7-4.6c12.3-9.2,23.7-16.3,37.9-22.2c12.9-5.8,29.8-6.3,44.2-6.3
					c51.3,0.6,121.1,2.9,160.1,41.6c43.2,45.8,31.6,219.1-9.7,264.9c-5.6,6-12.7,11.7-20.6,14.1c-28.4,9.5-57.7,9.5-86.7,6.7
					c-13.7-1.4-26.7-3.4-40.7-6.7l17.8-7.5c-25.9,40.4-64.1,78-114.4,83.6c-48.5,3.1-91.9-25-130.3-50.8
					c-108.9-78.2-231.4-221.8-243.5-359.7c-5.1-110.7,129.4-227.7,206.9-294.2c90.9-74.2,183.3-149.3,293.2-193.9
					c2.8-1.1,6,0.3,7,3.2C1489,1843.2,1488.3,1845.7,1486.6,1847.1L1486.6,1847.1z"/>
			</g>
			<g>
				<path class="st2" d="M2796.6,1807.6c-24.4-11-11.1,7.8-65.4-4.4c-66.9-14.9-70.4-151.3-60-224.1c10.4-72.9,53.8-85.3,82.5-99.8
					c28.7-14.4,118.7,11.4,130,38.9s30.3,228.1-8.1,270.8"/>
			</g>
			<g class="st3">
				<path class="st4" d="M2731.2,1803.2c54.3,12.1,41-6.7,65.4,4.4c0,0,13.1-47-41.2-59.1c-66.9-15-70.4-151.3-60-224.1
					c0.4-2.7,0.8-5.4,1.3-8c-11.8,13.8-21.3,33.4-25.5,62.7C2660.7,1651.9,2664.3,1788.3,2731.2,1803.2z"/>
			</g>
			<g>
				<path class="st4" d="M2794.4,1812.5c-4.7,0.3-9.3,0.6-10.6,2c-2.1,2.5-7.3,4.9-11.2,6c-16,4.4-28.5,2.3-42.9-0.1
					c-60.7-12.2-73.7-92.2-77.9-143c-2.3-37.8-1.2-75.6,5.7-112.9c7.7-42.4,34.2-75.2,74.1-92.5c0,0,12.2-5.8,12.2-5.8
					c31.4-15.5,74.9-3.2,105.6,8.1c18.6,7.8,40.6,18,49.5,38.2c4.1,11.3,5.7,22.9,7.4,33.5c6.5,46,9.2,92,8.2,138.6
					c-2.2,28.5,0.4,58.1-11.6,85c-2.5,7.9-24.1,33.1-30.9,19.1c-0.3-1-0.4-2.3-0.3-3.3c0.2-9.7,0.3-17.1,1.3-25.2
					c3.6-25.2,9.7-50.7,9.3-76.5c0.4-52.5-1.1-108-13.3-159.2c-14.4-21.2-88.4-41.9-111-29.3c-38.4,16.7-60.3,33.5-68.9,75.9
					c-8.6,50.8-8.9,104.8,2.5,155.1c5.8,22.7,14.4,45.4,34.2,56.4c12.2,6,30,8.4,42.4,10.5c5,0.7,8.9-0.6,15.3,0.2
					c8.2,1.5,21.9,10.5,15.1,17.4C2797.4,1812,2795.9,1812.4,2794.4,1812.5L2794.4,1812.5z"/>
			</g>
			<g>
				<path class="st2" d="M2682.1,1528.6c0,0,92.1,127.3-4.1,148.4c-36.7,8.1-89.8-87.2-76.3-119.3
					C2615.2,1525.8,2645.8,1514.4,2682.1,1528.6z"/>
			</g>
			<g>
				<path class="st4" d="M2673.4,1693.7c-16.4,0-33.6-10.5-50.5-30.7c-22.2-26.7-49-80.6-36-111.4c17.1-40.4,56.8-55.3,101.1-37.9
					c2.9,1.1,5.4,3.1,7.2,5.6c6,8.3,57.9,82.3,38.4,133.5c-5.4,14.3-18.9,32.8-52.1,40.1C2678.8,1693.4,2676.1,1693.7,2673.4,1693.7
					z M2652.8,1538.7c-16.5,0-29.2,8.7-36.3,25.3c-4.5,10.7,6.8,49.1,31.1,78.3c12,14.5,22.4,20,26.9,19
					c23.2-5.1,27.5-16.4,28.9-20.1c10.5-27.6-17.7-78.4-31.7-99.2C2665,1539.8,2658.7,1538.7,2652.8,1538.7z"/>
			</g>
			<g>
				<path class="st4" d="M2482.9,2328.9c-2.1,0-4.3-0.5-6.3-1.5c-136.1-70.4-126.6-406.4-126.2-420.7c0.2-7.6,6.7-13.4,14.2-13.3
					c7.6,0.2,13.5,6.6,13.3,14.2c-0.1,3.3-9.5,333,111.4,395.4c6.7,3.5,9.4,11.8,5.9,18.5
					C2492.7,2326.2,2487.9,2328.9,2482.9,2328.9z"/>
			</g>
			<g>
				<path class="st4" d="M998.3,2350.3c-2.4,0-4.8-0.6-6.9-1.9c-6.5-3.8-8.7-12.2-4.9-18.8c67.8-115.4,344.4-33.7,356.2-30.2
					c7.3,2.2,11.4,9.8,9.2,17.1c-2.2,7.3-9.8,11.4-17.1,9.2c-74.3-22.3-277.4-62.6-324.6,17.8
					C1007.6,2347.9,1003,2350.3,998.3,2350.3z"/>
			</g>
			<g>
				<path class="st4" d="M1389.3,2391.9c-24.5,27.8-35.8,65.4-42.7,101.2c-2,9.7-16.5,7.8-16-2.1c0,0,1-15.2,1-15.2
					c3.7-36.7,11.9-74.7,33.7-105.4c0,0,4.8-5.9,4.8-5.9c6-7.5,17-8.7,24.5-2.6C1405.3,2369.9,1402,2387.9,1389.3,2391.9
					L1389.3,2391.9z"/>
			</g>
			<g>
				<g>
					<path class="st2" d="M2756.1,974.1l0.6,117.1c0.1,13.2,5.4,25.9,14.8,35.2l23.1,22.9c6.6,6.5,15.6,10.2,24.9,10.1l36-0.2
						c9.3,0,18.2-3.8,24.8-10.4l25.8-26c9.3-9.4,14.5-22.2,14.4-35.4l-0.6-114.2L2756.1,974.1z"/>
				</g>
				<g>
					<path class="st4" d="M2819.4,1174.5c-13.3,0-25.8-5.1-35.3-14.5l-23.1-22.9c-12.3-12.2-19.2-28.5-19.3-45.9l-0.6-117.1
						c0-8.3,6.7-15.1,15-15.2l163.8-0.9c0,0,0.1,0,0.1,0c4,0,7.8,1.6,10.6,4.4c2.8,2.8,4.4,6.6,4.5,10.6l0.6,114.2
						c0.1,17.4-6.6,33.7-18.8,46.1l-25.8,26c-9.4,9.5-22,14.8-35.4,14.9l-36,0.2C2819.5,1174.5,2819.4,1174.5,2819.4,1174.5z
						 M2771.3,989.1l0.5,102c0,9.3,3.7,18.1,10.4,24.6l23.1,22.9c3.8,3.7,8.8,5.8,14.1,5.8c0,0,0.1,0,0.1,0l36-0.2
						c5.4,0,10.4-2.1,14.1-5.9l25.8-26c6.6-6.6,10.1-15.4,10.1-24.7l-0.5-99.1L2771.3,989.1z"/>
				</g>
				<g>
					<path class="st8" d="M3055.4,754.7c-0.6-119.9-98.3-216.5-218.2-215.9c-119.9,0.6-216.5,98.3-215.9,218.2
						c0.4,80.3,44.5,150.2,109.5,187.4c2.6,48.6,53.7,75.9,116.3,75.5c64.1-0.3,115.8-30.1,115.6-80.3c0-1.9-0.1-3.8-0.3-5.7
						C3018.9,894.5,3055.8,828.9,3055.4,754.7z"/>
				</g>
				<g>
					<path class="st4" d="M2845.9,1035c-71.1,0-121.7-32.3-129.3-81.5c-67.9-41.9-110-116.4-110.4-196.4
						c-0.3-62,23.5-120.4,67.1-164.5c43.6-44.1,101.8-68.5,163.8-68.9c61.9-0.2,120.4,23.5,164.5,67.1
						c44.1,43.6,68.5,101.8,68.9,163.8c0.4,73.5-34.1,142.7-92.7,186.8c-0.5,28.1-14.8,52.7-40.4,69.6
						c-23.2,15.2-55.2,23.7-90.1,23.9C2846.8,1035,2846.3,1035,2845.9,1035z M2838.4,553.9c-0.4,0-0.7,0-1.1,0
						c-54,0.3-104.6,21.6-142.5,59.9c-37.9,38.4-58.7,89.2-58.4,143.1c0.4,71.8,39.4,138.6,101.9,174.4c4.4,2.5,7.3,7.2,7.6,12.3
						c2.3,42.4,51.8,61.3,100.2,61.3c0.3,0,0.7,0,1,0c29.2-0.2,55.3-6.9,73.7-19c17.9-11.8,27-27.3,26.9-46.2c0-1.5-0.1-3-0.2-4.4
						c-0.5-5.4,2-10.6,6.4-13.6c54.6-38.1,86.9-100.4,86.6-166.8c-0.3-54-21.6-104.6-59.9-142.5
						C2942.3,574.6,2891.9,553.9,2838.4,553.9z"/>
				</g>
				<g>
					<path class="st4" d="M2802.9,1027.4c-0.9,0-1.9-0.1-2.8-0.3c-6.5-1.5-10.5-8.1-8.9-14.5c5.1-21.5,12-65.1,9.6-105.7
						c-62.5-8.2-77.7-41.3-81.1-52.8c-6-20.2,1-41.2,17.1-51.1c16.3-10.1,36.7-6.1,54.4,10.6c18.3,17.3,27.6,43.2,31.6,70.8
						c5,0.2,10.4,0.2,16,0c6.8-0.2,12.2,5.1,12.4,11.7c0.2,6.7-5.1,12.2-11.7,12.4c-5,0.1-9.7,0.2-14.3,0.1
						c2.6,53.4-9.6,105.9-10.5,109.5C2813.3,1023.6,2808.4,1027.4,2802.9,1027.4z M2756,821.7c-2.4,0-4.6,0.6-6.6,1.8
						c-5.7,3.5-9.8,12.8-6.6,23.6c4.3,14.3,21.1,29,55.2,34.8c-3.7-20.8-10.9-39.1-23.3-50.8C2768,824.9,2761.5,821.7,2756,821.7z"
						/>
				</g>
				<g>
					<path class="st4" d="M2876.5,1027c-5.4,0-10.3-3.7-11.7-9.1c-0.9-3.6-13.7-55.9-11.7-109.4c-4.6,0.2-9.3,0.2-14.3,0.1
						c-6.7-0.1-12-5.6-11.8-12.3c0.1-6.7,5.7-11.9,12.3-11.8c5.6,0.1,10.9,0,16-0.2c3.8-27.7,12.8-53.7,30.9-71.1
						c17.5-16.9,37.9-21.1,54.3-11.2c16.2,9.7,23.4,30.7,17.6,50.9c-3.3,11.4-18.2,44.7-80.5,53.6c-2,40.6,5.4,84.2,10.7,105.6
						c1.6,6.5-2.3,13-8.8,14.6C2878.5,1026.8,2877.5,1027,2876.5,1027z M2921.5,820.8c-5.6,0-12.1,3.3-18.7,9.7
						c-12.3,11.9-19.3,30.3-22.8,51.1c34-6.2,50.7-21.1,54.8-35.4c3.1-10.9-1.1-20.1-6.9-23.6
						C2926.1,821.4,2923.9,820.8,2921.5,820.8z"/>
				</g>
				<g>
					<path class="st4" d="M2838,1118.8c-49.3,0-84.2-15.7-86.3-16.7c-6-2.8-8.7-9.9-5.9-16c2.8-6,9.9-8.7,16-5.9
						c1,0.5,73.5,32.6,154-1c6.1-2.6,13.2,0.3,15.8,6.5c2.6,6.1-0.3,13.2-6.5,15.8C2893.8,1114.5,2863.9,1118.8,2838,1118.8z"/>
				</g>
				<g>
					<path class="st4" d="M2837.8,1075.5c-49.3,0-84.1-15.7-86.3-16.7c-6-2.8-8.7-10-5.9-16c2.8-6,9.9-8.7,16-5.9l0,0
						c0.7,0.3,73.4,32.6,154-1c6.1-2.6,13.2,0.3,15.8,6.5c2.6,6.1-0.3,13.2-6.5,15.8C2893.6,1071.2,2863.7,1075.5,2837.8,1075.5z"/>
				</g>
				<g>
					<g>
						<g>
							<path class="st2" d="M2645.2,1106.8c-3.6-2.8,8.5-24.6,27-48.7c18.5-24.1,36.5-41.4,40.1-38.6c3.6,2.8-8.5,24.6-27,48.7
								C2666.8,1092.3,2648.8,1109.6,2645.2,1106.8z"/>
						</g>
					</g>
					<g>
						<g>
							<path class="st2" d="M2452.3,1083.9c-2.9-3.6,20.6-27,52.4-52.3c31.8-25.3,59.9-42.9,62.7-39.4c2.9,3.6-20.6,27-52.4,52.3
								C2483.3,1069.9,2455.2,1087.5,2452.3,1083.9z"/>
						</g>
					</g>
					<g>
						<g>
							<path class="st2" d="M2457.3,964.4c-2.8-3.6,5.2-14.5,17.9-24.3s25.3-14.9,28.1-11.2c2.8,3.6-5.2,14.5-17.9,24.3
								C2472.6,963,2460.1,968,2457.3,964.4z"/>
						</g>
					</g>
					<g>
						<g>
							<path class="st2" d="M2364.1,917.2c-1.5-4.3,28.1-18.8,66.1-32.3c38-13.5,70.1-21,71.7-16.7c1.5,4.3-28.1,18.8-66.1,32.3
								C2397.7,914.1,2365.6,921.6,2364.1,917.2z"/>
						</g>
					</g>
					<g>
						<g>
							<path class="st2" d="M2416.5,765c-0.1-4.6,17.9-8.7,40.2-9.2c22.3-0.5,40.5,2.8,40.6,7.3c0.1,4.6-17.9,8.7-40.2,9.2
								C2434.8,772.9,2416.6,769.6,2416.5,765z"/>
						</g>
					</g>
					<g>
						<g>
							<path class="st2" d="M2340.4,621.1c1.5-4.3,31.6,2.5,67.2,15.2c35.6,12.7,63.2,26.5,61.6,30.8c-1.5,4.3-31.6-2.5-67.2-15.2
								C2366.4,639.3,2338.8,625.5,2340.4,621.1z"/>
						</g>
					</g>
					<g>
						<g>
							<path class="st2" d="M2481.8,546.3c3.1-3.3,17.1,4.8,31.1,18.1c14,13.3,22.8,26.8,19.7,30.1c-3.1,3.3-17.1-4.8-31.1-18.1
								C2487.4,563.1,2478.6,549.6,2481.8,546.3z"/>
						</g>
					</g>
					<g>
						<g>
							<path class="st2" d="M2528,370c3.6-2.8,28.9,23.5,56.5,58.8c27.6,35.3,47.1,66.2,43.5,69c-3.6,2.8-28.9-23.5-56.5-58.8
								C2543.9,403.8,2524.4,372.9,2528,370z"/>
						</g>
					</g>
					<g>
						<g>
							<path class="st2" d="M2708.9,378.4c4.4-1.4,13,14,19.2,34.2c6.3,20.2,7.8,37.7,3.4,39.1c-4.4,1.4-13-14-19.2-34.2
								C2706,397.2,2704.5,379.7,2708.9,378.4z"/>
						</g>
					</g>
					<g>
						<g>
							<path class="st2" d="M2807,246.3c4.6-0.3,10.7,37.9,13.6,85.3c3,47.4,1.7,86.1-2.9,86.4c-4.6,0.3-10.7-37.9-13.6-85.3
								C2801.1,285.2,2802.4,246.6,2807,246.3z"/>
						</g>
					</g>
					<g>
						<g>
							<path class="st2" d="M2938.8,379.4c4.5,0.8,5.6,16.1,2.5,34.2c-3.1,18.1-9.3,32.2-13.8,31.4c-4.5-0.8-5.6-16.1-2.5-34.2
								C2928.1,392.7,2934.3,378.6,2938.8,379.4z"/>
						</g>
					</g>
					<g>
						<g>
							<path class="st2" d="M3130,337.9c3.9,2.4-10.8,34-32.8,70.6c-22.1,36.6-43.1,64.4-47,62c-3.9-2.4,10.8-34,32.8-70.6
								C3105,363.3,3126.1,335.5,3130,337.9z"/>
						</g>
					</g>
					<g>
						<g>
							<path class="st2" d="M3170.5,514.3c3.5,3-4.6,18-18,33.6c-13.4,15.6-27.1,25.8-30.6,22.8c-3.5-3,4.6-18,18-33.6
								C3153.4,521.5,3167,511.3,3170.5,514.3z"/>
						</g>
					</g>
					<g>
						<g>
							<path class="st2" d="M3345,566.8c1.8,4.2-33.5,23.3-78.9,42.6c-45.3,19.3-83.6,31.5-85.4,27.3c-1.8-4.2,33.5-23.3,78.9-42.6
								C3305,574.9,3343.2,562.6,3345,566.8z"/>
						</g>
					</g>
					<g>
						<g>
							<path class="st2" d="M3273.8,722.2c0.5,4.6-19.8,10.4-45.2,13c-25.4,2.6-46.5,1.1-46.9-3.5c-0.5-4.6,19.8-10.4,45.2-13
								C3252.3,716.1,3273.3,717.7,3273.8,722.2z"/>
						</g>
					</g>
					<g>
						<g>
							<path class="st2" d="M3327.3,875c-1.2,4.4-33.6-0.2-72.4-10.4c-38.8-10.2-69.3-22-68.2-26.4c1.2-4.4,33.6,0.2,72.4,10.4
								C3298,858.7,3328.5,870.5,3327.3,875z"/>
						</g>
					</g>
					<g>
						<g>
							<path class="st2" d="M3229.1,918.1c-2,4.1-13.9,2.4-26.6-3.7c-12.7-6.2-21.4-14.5-19.3-18.6c2-4.1,13.9-2.4,26.6,3.7
								C3222.4,905.6,3231.1,914,3229.1,918.1z"/>
						</g>
					</g>
					<g>
						<g>
							<path class="st2" d="M3239.1,1030.4c-2.4,3.9-27.2-7.2-55.4-24.8c-28.1-17.6-49-35-46.6-38.9c2.4-3.9,27.2,7.2,55.4,24.8
								C3220.7,1009.1,3241.5,1026.6,3239.1,1030.4z"/>
						</g>
					</g>
					<g>
						<g>
							<path class="st2" d="M3046.5,1062.7c-3.4,3.1-17.4-7-31.2-22.5c-13.8-15.5-22.3-30.5-18.9-33.5c3.4-3.1,17.4,7,31.2,22.5
								C3041.4,1044.7,3049.9,1059.7,3046.5,1062.7z"/>
						</g>
					</g>
				</g>
			</g>
			<g class="st3">
				<path class="st4" d="M2135.4,1909.3c-97.9,102.7-246,168.1-411.6,168.1c-99.6,0-192.9-23.7-272.7-64.9
					c-10.5-5.3-20.7-11.1-30.7-17.1c-28.9-17.3-55.8-37.1-80.2-58.9c47.6-33.3,89-60,115-76.3c6.6-20.8,13.4-39.9,20.3-57.1
					c26.7-65.7,560.4-147.7,648.7,55.9c2.3,9.5,4.4,18.9,6.4,28.2C2132.3,1894.6,2133.8,1901.9,2135.4,1909.3z"/>
			</g>
			<g>
				<g>
					<path class="st2" d="M2451.9,1458.9c-22.4,111.5-73.2,218-151.4,308.4c-15.9,18.4-32.9,36.1-51.1,53.1
						c-8.8,8.3-18,16.4-27.4,24.3c-28.4,23.9-58.2,45.1-89.1,63.6c-26.6,16.1-54,30.1-82,42.2c-33.8,14.7-68.5,26.5-103.7,35.5
						c-12.8,3.2-25.7,6.1-38.7,8.7c-236.8,46.3-490.9-31.3-658.2-225c-246.4-285.3-210.9-714.2,79.2-958.1
						c55.9-46.9,117.2-83.7,181.5-110.2c7.5-3.2,15.1-6.1,22.7-8.9c20.4-7.6,41.1-14.3,62-19.9c48.3-13,97.6-20.6,147-23.1
						c49.4-2.5,98.9,0.3,147.5,8.2c15.5,2.5,30.8,5.5,46.2,9.1c22.9,5.4,45.6,11.8,68,19.5c111.6,38.1,214.7,105.2,296.7,200.3
						C2443.1,1050.6,2491.5,1262.3,2451.9,1458.9z"/>
				</g>
				<g class="st3">
					<path class="st4" d="M1250.5,1769.6c167.2,193.7,421.4,271.4,658.2,225c12.9-2.5,25.8-5.4,38.6-8.7
						c35.2-9,69.9-20.8,103.7-35.5c28-12.2,55.5-26.2,82-42.2c30.9-18.5,60.7-39.7,89.1-63.6c9.3-8,18.5-16.1,27.4-24.3
						c18.2-17,35.1-34.7,51.1-53.1c78.1-90.4,128.9-196.9,151.4-308.4c12.3-61.2,16.1-124,11.2-186.3
						c-23.9,105.9-73.5,206.8-148.1,293c-15.9,18.5-32.9,36.2-51.1,53.1c-8.8,8.3-18,16.3-27.4,24.3c-28.4,23.9-58.2,45.1-89.1,63.6
						c-26.6,16-54,30.1-82,42.2c-33.8,14.6-68.5,26.4-103.7,35.5c-12.9,3.2-25.7,6.1-38.7,8.7c-236.8,46.3-490.9-31.3-658.2-225
						c-97.6-113-150.9-248.5-161.8-386.1C1057.8,1382.8,1105,1601.3,1250.5,1769.6z"/>
				</g>
				<g>
					<path class="st4" d="M1774.4,2020.3c-203.2,0-399.3-87-533.5-242.4c-120.9-140-179.5-318.2-164.8-501.9
						c14.8-185.1,101.9-353.5,245.4-474.1c56-47,118.2-84.7,184.8-112.2c7.2-3.1,14.9-6.1,23.2-9.1c20.6-7.7,41.9-14.5,63-20.2
						c48.7-13.1,99-21,149.6-23.5c50.1-2.5,100.6,0.3,150.2,8.3c15.9,2.6,31.7,5.7,47,9.3c23.8,5.6,47.1,12.3,69.3,19.9
						c117,40,221.5,110.5,302.2,204c139.6,161.6,195.5,374.1,153.5,583.1l0,0c-23.3,115.8-76.6,224.5-154.2,314.1
						c-16.4,19-33.9,37.2-52,54.1c-8.3,7.8-17.4,15.9-27.8,24.7c-28.5,24-59.1,45.8-90.8,64.8c-26.5,16-54.6,30.5-83.5,43
						c-33.8,14.7-69.3,26.8-105.5,36.1c-13,3.3-26.2,6.3-39.3,8.9C1865.6,2016,1819.8,2020.3,1774.4,2020.3z M1777.9,661.2
						c-11.5,0-23,0.3-34.4,0.9c-48.8,2.4-97.4,10-144.3,22.7c-20.4,5.5-40.9,12.1-60.8,19.5c-8,2.9-15.3,5.8-22.2,8.7
						c-64.4,26.5-124.3,62.9-178.3,108.2c-138.3,116.2-222.3,278.4-236.5,456.8c-14.1,176.9,42.3,348.5,158.7,483.4
						c158.2,183.2,405.8,267.9,646.2,220.9c12.7-2.5,25.4-5.4,38-8.6c34.9-8.9,69.1-20.7,101.7-34.8c27.9-12.1,55-26,80.5-41.5
						c30.6-18.4,60-39.4,87.5-62.5c10-8.5,18.8-16.4,26.8-23.9c17.5-16.3,34.4-33.9,50.2-52.1c74.7-86.4,126.1-191,148.5-302.6l0,0
						c40.5-201.3-13.3-405.9-147.8-561.6c-77.8-90.1-178.5-158-291.3-196.6c-21.4-7.4-43.9-13.8-66.8-19.2
						c-14.7-3.4-30-6.4-45.3-8.9C1851.9,664.2,1814.9,661.2,1777.9,661.2z"/>
				</g>
				<g>
					<path class="st4" d="M1774.4,2022.8c-204,0-400.7-87.3-535.3-243.3c-121.4-140.5-180.1-319.4-165.4-503.7
						C1088.5,1090,1175.9,921,1320,800c56.2-47.2,118.6-85,185.5-112.6c7.2-3.1,14.9-6.1,23.3-9.2c20.7-7.7,42-14.6,63.2-20.3
						c48.9-13.1,99.4-21.1,150.2-23.6c50.3-2.5,101,0.3,150.7,8.4c16,2.6,31.8,5.7,47.2,9.3c23.9,5.6,47.3,12.3,69.5,20
						c117.4,40.1,222.3,110.9,303.3,204.7c140.1,162.2,196.2,375.5,154,585.2c-23.4,116.3-76.9,225.3-154.7,315.3
						c-16.5,19-34,37.3-52.2,54.3c-8.3,7.8-17.4,15.9-27.9,24.8c-28.7,24.1-59.3,46-91.1,65.1c-26.6,16-54.8,30.6-83.8,43.1
						c-34,14.7-69.6,26.9-105.9,36.2c-13.1,3.3-26.3,6.3-39.5,8.9C1865.9,2018.4,1820,2022.8,1774.4,2022.8z M1777.9,663.7
						c-11.4,0-22.9,0.3-34.3,0.9c-48.6,2.4-97,10-143.8,22.6c-20.3,5.5-40.7,12-60.6,19.5c-8,2.9-15.2,5.8-22.1,8.7
						c-64.1,26.4-123.9,62.7-177.7,107.9c-137.8,115.8-221.4,277.4-235.6,455.1c-14.1,176.2,42.1,347.2,158.1,481.6
						c157.7,182.6,404.4,266.9,643.9,220.1c12.6-2.5,25.4-5.4,37.9-8.5c34.7-8.9,68.8-20.6,101.3-34.7c27.8-12,54.8-25.9,80.2-41.3
						c30.5-18.3,59.8-39.2,87.2-62.2c10-8.5,18.8-16.3,26.7-23.8c17.4-16.3,34.3-33.7,50-52c74.4-86.1,125.6-190.3,148-301.5l0,0
						c40.4-200.5-13.3-404.4-147.2-559.4c-77.5-89.7-177.8-157.5-290.2-195.9c-21.3-7.4-43.7-13.8-66.6-19.1
						c-14.7-3.4-29.8-6.4-45.1-8.9C1851.7,666.7,1814.8,663.7,1777.9,663.7z"/>
				</g>
				<g>
					<path class="st4" d="M2395.6,1624.1c-302.3,384.5-886.6,357.1-1058.3-92.6c-116.9-305.9,97.1-655.9,402.7-748.8
						c222.4-67.5,469.2-37.7,668.8,273.7c0,0,66.7,151.3,56.4,269c-10.3,117.7-40.5,230.4-40.5,230.4L2395.6,1624.1z"/>
				</g>
				<g>
					<path class="st9" d="M1337.3,1531.5c171.8,449.7,756.1,477,1058.3,92.6l5.9-13.8c-401,205.6-902.7,85.8-1084.9-365.7
						C1296.6,1338.5,1301.2,1437.1,1337.3,1531.5z"/>
				</g>
				<g>
					<path class="st4" d="M1859.2,1978.5c-92.9,0-184-18.1-267-54.2c-156.9-68.3-273.8-193.3-338.1-361.5
						c-59-154.5-48.2-328.1,30.6-488.9c87.5-178.6,249.2-318.5,432.6-374.1c101.9-30.9,199.2-40.9,289.3-29.6l1.7,0.2l1.6,0.5
						c117.6,40.2,222.7,111.1,303.8,205c140.3,162.4,196.6,376.1,154.3,586.2c-23.4,116.5-77.1,225.7-155,315.8
						c-16.5,19.1-34.1,37.3-52.3,54.3c-8.3,7.8-17.5,15.9-27.9,24.8c-28.7,24.1-59.4,46-91.2,65.2l-2.3,1.1
						C2048.4,1960.1,1952.9,1978.5,1859.2,1978.5z M1933.3,698.2c-65.6,0-134.8,10.9-206.5,32.7
						c-174.9,53.1-329.2,186.7-412.8,357.3c-74.7,152.6-85.2,317-29.4,462.9c61.1,159.8,172,278.5,320.6,343.3
						c158.4,69,348.1,68.7,520.5-0.8c30-18.1,58.9-38.8,85.9-61.5c10-8.5,18.7-16.3,26.7-23.7c17.4-16.2,34.2-33.7,49.9-51.9
						c74.3-85.9,125.4-190,147.7-300.9l0,0c40.3-200.1-13.3-403.7-147-558.4c-77-89.2-176.6-156.5-288.1-195
						C1978.8,699.6,1956.2,698.2,1933.3,698.2z M2133,1908.3L2133,1908.3L2133,1908.3z"/>
				</g>
				<g>
					<path class="st2" d="M1036.3,1593.1c32.2,130.1,137.2,220.2,234.5,201.2s150.1-139.9,117.9-270.1c-0.2-0.8-0.4-1.7-0.7-2.5
						c-32.9-128.8-137.2-217.6-233.9-198.7c-75.2,14.7-123.8,90.2-127.2,183.8C1026,1534.3,1029,1563.5,1036.3,1593.1z"/>
				</g>
				<g class="st3">
					<path class="st4" d="M1036.3,1593.1c32.2,130.1,137.2,220.2,234.5,201.2s150.1-139.9,117.9-270.1c-0.2-0.8-0.4-1.7-0.7-2.5
						c-7.4,15.4-20.8,31.8-44.5,31.8c-41.4-0.1-133.1-69.9-133.1-69.9s-79.6,9.5-183.5,23.1C1026,1534.3,1029,1563.5,1036.3,1593.1z
						"/>
				</g>
				<g>
					<path class="st4" d="M1244.9,1814.4c-97.2,0-194.5-90.9-225.8-217.1l0,0c-19.8-80.2-10.1-159.4,26.9-217.3
						c25.7-40.3,61.9-66,104.8-74.4c106.2-20.8,220.7,75.4,255.1,214.3c19.8,80.2,10.1,159.4-26.9,217.3
						c-25.7,40.3-61.9,66-104.8,74.4C1264.5,1813.5,1254.7,1814.4,1244.9,1814.4z M1053.4,1588.9c29.9,120.9,125.9,205.3,214,188.1
						c33.2-6.5,61.4-26.8,81.8-58.7c31.3-49.1,39.6-120,22.4-189.8c-29.9-120.9-126-205.3-214-188.1c-33.2,6.5-61.4,26.8-81.8,58.7
						C1044.5,1448.1,1036.1,1519.1,1053.4,1588.9L1053.4,1588.9z"/>
				</g>
				<g>
					
						<ellipse transform="matrix(0.9432 -0.3322 0.3322 0.9432 -462.9015 476.1705)" class="st2" cx="1161.3" cy="1592" rx="145.9" ry="193"/>
				</g>
				<g class="st3">
					<path class="st4" d="M1314.8,1638.7c0.3-36.5-9.6-73.3-26.7-105.8c-7.7,83.3-70.9,131.9-147.1,109.9
						c-49.3-14.2-92.7-54.6-119-105.1c-0.5,5.3-0.8,10.7-0.8,16.2c-0.6,93.1,64.6,187.5,145.7,210.9
						C1248,1788.2,1314.2,1731.7,1314.8,1638.7z"/>
				</g>
				<g>
					<path class="st4" d="M1190.3,1797.1c-75.9,0-153.7-76.2-180.1-180.9c-17-67.6-9.5-135.7,20.2-182.1c19.2-30,46-48.9,77.5-54.8
						c81.8-15.3,171.7,65,200.4,179c17,67.6,9.5,135.7-20.2,182.1c-19.2,30-46,48.9-77.5,54.8
						C1203.9,1796.5,1197.1,1797.1,1190.3,1797.1z M1129.1,1410c-5.1,0-10.1,0.5-15.1,1.4c-22.5,4.2-41.9,18.2-56.1,40.3
						c-24.9,38.9-30.9,97.5-16.1,156.5c24.6,97.6,97.7,167.1,162.8,154.9c22.5-4.2,41.9-18.2,56.1-40.3
						c24.9-38.9,30.9-97.5,16.1-156.5C1254.1,1476.2,1190.1,1410,1129.1,1410z"/>
				</g>
				<g class="st10">
					<path class="st2" d="M1625.5,972.3c0,0,289.1-68.3,494.8,45.1c0.2,0.1,0.4,0.2,0.6,0.4c43.3,23.9,79.2,59,104.2,101.2
						c33.1,55.9,47.6,99.1,58.8,137.7c34.2,117.4,27.9,178.8,27.9,178.8c49.7-81.4,67.5-162.8,40-260.9c-2.7-9.7-5.9-19.5-9.5-29.5
						c-0.8-2.3-1.7-4.6-2.6-6.9c0,0,0-0.1-0.1-0.1c-8.7-19.8-21.2-45.4-37.7-73c-49.7-83.5-136-186.3-266.8-208.1
						C1790.7,816.3,1612.1,962.9,1625.5,972.3z"/>
				</g>
				<g class="st10">
					
						<ellipse transform="matrix(1 -9.508668e-03 9.508668e-03 1 -12.6139 14.2628)" class="st2" cx="1493.6" cy="1333.7" rx="92.1" ry="105.8"/>
				</g>
				<g class="st10">
					
						<ellipse transform="matrix(8.344998e-02 -0.9965 0.9965 8.344998e-02 -148.4493 2890.4812)" class="st2" cx="1497.1" cy="1525.9" rx="43.7" ry="38"/>
				</g>
			</g>
		</g>
	</g>
</g>
</svg>
