<?xml version="1.0" encoding="utf-8"?>
<!-- Generator: Adobe Illustrator 27.4.0, SVG Export Plug-In . SVG Version: 6.00 Build 0)  -->
<svg version="1.1" id="Layer_1" xmlns="http://www.w3.org/2000/svg" xmlns:xlink="http://www.w3.org/1999/xlink" x="0px" y="0px"
	 viewBox="0 0 4000 4000" style="enable-background:new 0 0 4000 4000;" xml:space="preserve">
<style type="text/css">
	.st0{display:none;}
	.st1{display:inline;fill:#DC9AFE;}
	.st2{opacity:0.35;}
	.st3{fill:#371A45;}
	.st4{fill:#FFFFFF;}
	.st5{fill:#AFAFB2;}
	.st6{opacity:0.7;}
	.st7{fill:#22A7F0;}
	.st8{fill:#111A28;}
	.st9{opacity:0.3;}
	.st10{fill:#390075;}
	.st11{fill:#F9195A;}
	.st12{opacity:0.5;}
</style>
<g>
	<g class="st0">
		<rect class="st1" width="4000" height="4000"/>
	</g>
	<g class="st2">
		<ellipse class="st3" cx="2000" cy="3307.5" rx="1072.5" ry="82.5"/>
	</g>
	<g>
		<g>
			<path class="st4" d="M2643.2,3093.1H1296.7c0,0-1.5-137.9,25-342.8c4.7-36.8,10.4-75.7,17.2-116.4
				c29.7-179.5,80.2-393,166.2-605.3c12.9-31.9,26.7-63.8,41.3-95.6c11.6-25.2,23.7-50.3,36.4-75.2c9.2-18.3,18.8-36.4,28.7-54.5
				h716.8c9.9,18.1,19.5,36.3,28.7,54.5c12.9,25.2,25.1,50.6,36.8,76.1c16.7,36.3,32.3,72.9,46.8,109.4
				c82.4,207.3,131.3,415.1,160.2,590.5c6.8,40.9,12.4,80,17.2,116.8C2644.6,2955.3,2643.2,3093.1,2643.2,3093.1z"/>
		</g>
		<g class="st2">
			<path class="st3" d="M2643.2,3093.1H1296.7c0,0-1.5-137.9,25-342.8c4.7-36.8,10.4-75.7,17.2-116.4c12.8-77.3,29.5-160.9,51.1-248
				c70.3,225.3,296.9,396.8,574.4,396.8h12c276.8,0,502.7-170.6,573.8-395.1c21.5,86.4,38,169.5,50.7,246.2
				c6.8,40.9,12.4,80,17.2,116.8C2644.6,2955.3,2643.2,3093.1,2643.2,3093.1z"/>
		</g>
		<g>
			<path class="st3" d="M2659,3109.1H1280.9l-0.2-15.8c0-1.8-1.4-179.5,36.8-426.8c35.3-228.4,112.5-564.8,280-870.8
				c4.2-7.7,14-10.6,21.7-6.3c7.7,4.2,10.6,14,6.3,21.7c-290,529.6-311.3,1158.9-312.8,1266.1h1314.3
				c-0.6-48.4-5.1-203.7-36.4-406.4c-34.9-225.6-111.1-557.9-276.4-859.6c-4.2-7.8-1.4-17.5,6.3-21.7c7.8-4.2,17.5-1.4,21.7,6.3
				c167.6,306,244.8,642.4,280,870.8c38.2,247.3,36.8,425.1,36.8,426.8L2659,3109.1z"/>
		</g>
		<g>
			<path class="st3" d="M2374.5,3049.6h-809.1c-143.2,0-259.7-116.5-259.7-259.7v-647.7c0-143.2,116.5-259.7,259.7-259.7h809.1
				c143.2,0,259.7,116.5,259.7,259.7v647.7C2634.2,2933.1,2517.7,3049.6,2374.5,3049.6z M1565.4,1914.5
				c-125.5,0-227.7,102.1-227.7,227.7v647.7c0,125.5,102.1,227.7,227.7,227.7h809.1c125.5,0,227.7-102.1,227.7-227.7v-647.7
				c0-125.5-102.1-227.7-227.7-227.7H1565.4z"/>
		</g>
		<g>
			<g>
				<path class="st4" d="M3004.8,2732c0,0-111.1,530-147.3,541.8c-51.8,16.8-176.4-0.9-176.4-0.9s-259.1-35.1-491.1-51
					c-68.1-4.7-133.8-7.7-190-7.7c-64.4,0-141.4,4-220.1,9.9c-223.7,16.7-460.9,48.8-460.9,48.8s-124.6,17.7-176.5,0.9
					C1106.2,3262,995.2,2732,995.2,2732c66.1-95.6,218.8-85.4,291.6,83.2c1.9-3,3.8-6,5.8-8.9c28-41.1,67.9-77.6,124.7-98.1
					c8.7-3.2,17.4-5.8,26.1-8.1c120.3-31.4,229.9,22,307.2,80.2c7.1,5.3,13.8,10.6,20.2,15.9c0.7,0.6,1.3,1.1,2,1.6
					c5.1,4.2,10,8.4,14.8,12.6c23.4,20.4,49.2,37.4,76.9,50.4c4,1.8,7.9,3.6,12,5.3c38.8,16.4,80.8,25.1,123.6,25.1
					c78.4,0,153.7-29.1,212.6-80.8c65.3-57.4,166.2-123.6,281.6-119.6c28.8,1,58.4,6.3,88.6,17.2c46.4,16.8,81.4,44.2,108,76
					c8.3,9.9,15.8,20.3,22.5,30.9C2786.1,2646.6,2938.7,2636.4,3004.8,2732z"/>
			</g>
			<g class="st2">
				<path class="st3" d="M3004.8,2732c0,0-111.1,530-147.3,541.7c-51.8,16.9-176.5-0.8-176.5-0.8s-259-35.1-491-51h0
					c-8.5-0.6-17-1.2-25.4-1.7c-5.3-0.3-10.5-0.7-15.8-1c-10.4-0.6-20.8-1.2-31-1.7c-5.1-0.2-10.2-0.5-15.2-0.7c-4-0.2-8-0.4-12-0.5
					c-4-0.2-8-0.4-11.9-0.5c-4-0.2-7.9-0.3-11.8-0.4c-3.9-0.1-7.8-0.2-11.6-0.4c-7.7-0.2-15.2-0.4-22.7-0.5
					c-11.2-0.2-22-0.3-32.6-0.3c-4.6,0-9.3,0-14.1,0.1c-7.2,0-14.4,0.2-21.9,0.3c-0.5,0-1,0-1.5,0c-6,0.1-12,0.3-18,0.4
					c-6.1,0.2-12.2,0.4-18.5,0.6c-23.6,0.8-48.1,2-73.2,3.5c-4.8,0.3-9.6,0.6-14.4,0.9c-9.6,0.6-19.4,1.2-29.1,1.9
					c-9.8,0.6-19.6,1.4-29.4,2.1c-223.7,16.7-461,48.8-461,48.8s-124.6,17.8-176.4,0.8C1106.3,3262,995.2,2732,995.2,2732
					c10.9-15.7,24.1-28.6,38.9-38.4c35.6,155.4,86.2,358.2,108.4,365.5c51.8,16.8,176.4-0.9,176.4-0.9s22.5-6.1,60.1-15.5
					c48.5-12.1,65-72.8,29.3-107.7c-42-41.1-81.3-84.1-115.8-128.6c28-41.1,67.9-77.6,124.7-98.1c8.7-3.2,17.4-5.8,26.1-8.1
					c120.3-31.4,229.9,22,307.2,80.2c7.1,5.3,13.8,10.6,20.2,15.9c0.7,0.6,1.3,1.1,2,1.6c5.1,4.2,10,8.4,14.8,12.6
					c23.4,20.4,49.2,37.4,76.9,50.4c4,1.8,7.9,3.6,12,5.3c38.8,16.4,80.8,25.1,123.6,25.1c78.4,0,153.7-29.1,212.6-80.8
					c65.3-57.4,166.2-123.6,281.6-119.6c28.8,1,58.4,6.3,88.6,17.2c46.4,16.8,81.4,44.2,108,76c-36.7,49.3-79.6,97.2-125.9,142.8
					c-0.3,0.3-0.6,0.6-0.9,0.8c-35.9,35.3-19.4,96.1,29.5,108c53.9,13.2,87.5,22.3,87.5,22.3s124.6,17.8,176.5,0.9
					c22.2-7.2,72.8-210.1,108.4-365.5C2980.7,2703.4,2993.9,2716.3,3004.8,2732z"/>
			</g>
			<g>
				<path class="st3" d="M1209.3,3297c-27,0-53.3-2-71.8-8c-13.1-4.3-31.1-10.1-97.8-286.7c-32-132.7-59.9-265.6-60.2-266.9
					l-1.4-6.7l3.9-5.7c32.7-47.4,85.9-72.4,142.3-66.8c66.6,6.6,125.7,52.5,165,127.3c32.4-42.3,73.5-72.6,122.4-90.3
					c99.4-36,203.8-19.8,310.5,48.1c7.5,4.7,9.6,14.6,4.9,22.1c-4.7,7.5-14.6,9.6-22.1,4.9c-97.8-62.3-192.9-77.4-282.4-45
					c-50.6,18.3-91.8,52.1-122.4,100.5l-16.2,25.6l-12-27.8c-34-78.7-89-127.4-150.9-133.5c-42.4-4.2-82.6,13.5-108.8,47.7
					c50.2,238.8,114.4,495.7,137.3,523.5c40.8,11.9,134,2.5,167.1-2.2c4.5-0.6,437.5-58.9,683.3-58.9s678.9,58.2,683.2,58.8
					c33.1,4.7,126.3,14.1,167.2,2.2c22.9-27.8,87.1-284.7,137.3-523.5c-26.2-34.1-66.5-51.9-108.8-47.7
					c-61.9,6.1-116.9,54.8-150.9,133.5l-12,27.8l-16.2-25.6c-30.6-48.4-71.8-82.2-122.4-100.5c-90.4-32.7-186.2-17-284.9,46.6
					c-7.4,4.8-17.3,2.6-22.1-4.8c-4.8-7.4-2.6-17.3,4.8-22.1c106-68.3,214.3-85.5,313.1-49.8c48.9,17.7,90,48,122.4,90.3
					c39.3-74.8,98.4-120.7,165-127.3c56.3-5.6,109.5,19.4,142.3,66.8l3.9,5.7l-1.4,6.7c-0.3,1.3-28.2,134.3-60.2,266.9
					c-66.7,276.6-84.7,282.5-97.8,286.7c-54.8,17.8-178.4,0.5-183.7-0.2c-4.2-0.6-435.2-58.5-678.8-58.5s-674.6,58-678.9,58.5
					C1317.7,3289.2,1262.2,3297,1209.3,3297z M2849.5,3260.2L2849.5,3260.2L2849.5,3260.2z"/>
			</g>
			<g>
				<g>
					<path class="st5" d="M2825.3,3273.7h32.2c37.8,0,72.1-22.2,87.5-56.7c48.2-107.9,136.1-345.1,53.8-489.8
						c-2.4-4.2-5-8.3-7.7-12.2c0,0-79-71.9-135.8,29.8C2802.3,2839.9,2691,3246,2825.3,3273.7z"/>
				</g>
				<g class="st6">
					<path class="st4" d="M2826.2,2812.6c1.4-2.3,2.8-4.4,4.2-6.4c69.8-101.7,167-29.8,167-29.8c3.3,3.9,6.5,8,9.4,12.2
						c9.7,13.9,17.5,28.7,23.6,44.2c-3.9-38-13.8-73.9-31.7-105.5c-2.4-4.2-5-8.3-7.7-12.2c0,0-79-71.9-135.8,29.8
						C2846.7,2760.3,2836.6,2783.8,2826.2,2812.6z"/>
				</g>
				<g>
					<path class="st3" d="M3030,2844.7c-0.9,0-1.8-0.1-2.7-0.2l-197.5-33c-8.7-1.5-14.6-9.7-13.1-18.4c1.5-8.7,9.7-14.6,18.4-13.1
						l197.5,33c8.7,1.5,14.6,9.7,13.1,18.4C3044.5,2839.1,3037.7,2844.7,3030,2844.7z"/>
				</g>
				<g>
					<path class="st3" d="M3028.8,2951.4c-0.7,0-1.4,0-2.2-0.1l-231-31.1c-8.8-1.2-14.9-9.2-13.7-18c1.2-8.8,9.1-14.9,18-13.7
						l231,31.1c8.8,1.2,14.9,9.2,13.7,18C3043.5,2945.5,3036.7,2951.4,3028.8,2951.4z"/>
				</g>
				<g>
					<path class="st3" d="M3008.4,3055.9c-0.6,0-1.3,0-2-0.1l-234.5-28.7c-8.8-1.1-15-9.1-13.9-17.8c1.1-8.8,9.1-15,17.8-13.9
						l234.5,28.7c8.8,1.1,15,9.1,13.9,17.8C3023.3,3049.9,3016.4,3055.9,3008.4,3055.9z"/>
				</g>
				<g>
					<path class="st3" d="M2971.2,3169.9c-0.5,0-1,0-1.5-0.1l-209.7-18.9c-8.8-0.8-15.3-8.6-14.5-17.4c0.8-8.8,8.6-15.3,17.4-14.5
						l209.7,18.9c8.8,0.8,15.3,8.6,14.5,17.4C2986.4,3163.6,2979.4,3169.9,2971.2,3169.9z"/>
				</g>
				<g class="st2">
					<path class="st3" d="M2825.3,3273.7h32.2c37.8,0,72.1-22.2,87.5-56.7c12.5-28,27.6-64.6,41.8-106
						c-19.3,32.1-58.6,52.4-101.7,52.4h-38.4c-54.6-9.5-75.2-63-76-133.2C2752.2,3148.7,2757.3,3259.7,2825.3,3273.7z"/>
				</g>
				<g>
					<path class="st3" d="M2857.5,3289.7h-33.8l-1.6-0.3c-26.4-5.4-46.3-22.5-59.2-50.8c-55.1-120.5,35-423.6,78.5-501.5
						c20.1-36,45.4-56.7,75.3-61.6c45.8-7.5,83.6,26.3,85.2,27.7l1.3,1.2l1,1.5c3,4.3,5.8,8.8,8.5,13.4
						c83.9,147.5,2.7,379.2-53.1,504.2C2941.7,3263.8,2901.6,3289.7,2857.5,3289.7z M2827.1,3257.7h30.4c31.5,0,60.1-18.5,72.9-47.2
						c43-96.2,134.3-335.1,54.5-475.4c-1.8-3.2-3.7-6.3-5.8-9.3c-5.7-4.6-30.6-23.3-57.5-18.8c-19.7,3.3-37.3,18.6-52.4,45.6
						c-45.5,81.4-124.1,370.4-77.3,472.6C2800.3,3243.5,2811.8,3254.1,2827.1,3257.7z"/>
				</g>
			</g>
			<g>
				<g>
					<path class="st5" d="M1174.7,3273.7h-32.2c-37.8,0-72.1-22.2-87.5-56.7c-48.2-107.9-136.1-345.1-53.8-489.8
						c2.4-4.2,5-8.3,7.7-12.2c0,0,79-71.9,135.8,29.8C1197.7,2839.9,1309,3246,1174.7,3273.7z"/>
				</g>
				<g class="st6">
					<path class="st4" d="M1173.8,2812.6c-1.4-2.3-2.8-4.4-4.2-6.4c-69.8-101.7-167-29.8-167-29.8c-3.3,3.9-6.5,8-9.4,12.2
						c-9.7,13.9-17.5,28.7-23.6,44.2c3.9-38,13.8-73.9,31.7-105.5c2.4-4.2,5-8.3,7.7-12.2c0,0,79-71.9,135.8,29.8
						C1153.3,2760.3,1163.4,2783.8,1173.8,2812.6z"/>
				</g>
				<g>
					<path class="st3" d="M970,2844.7c-7.7,0-14.5-5.5-15.8-13.4c-1.5-8.7,4.4-17,13.1-18.4l197.5-33c8.8-1.5,17,4.4,18.4,13.1
						c1.5,8.7-4.4,17-13.1,18.4l-197.5,33C971.7,2844.6,970.8,2844.7,970,2844.7z"/>
				</g>
				<g>
					<path class="st3" d="M971.2,2951.4c-7.9,0-14.8-5.8-15.8-13.9c-1.2-8.8,5-16.8,13.7-18l231-31.1c8.8-1.2,16.8,5,18,13.7
						c1.2,8.8-5,16.8-13.7,18l-231,31.1C972.6,2951.3,971.9,2951.4,971.2,2951.4z"/>
				</g>
				<g>
					<path class="st3" d="M991.6,3055.9c-8,0-14.9-5.9-15.9-14.1c-1.1-8.8,5.2-16.8,13.9-17.8l234.5-28.7
						c8.8-1.1,16.7,5.2,17.8,13.9c1.1,8.8-5.2,16.8-13.9,17.8l-234.5,28.7C992.9,3055.9,992.3,3055.9,991.6,3055.9z"/>
				</g>
				<g>
					<path class="st3" d="M1028.8,3169.9c-8.2,0-15.2-6.2-15.9-14.6c-0.8-8.8,5.7-16.6,14.5-17.4l209.7-18.9
						c8.8-0.8,16.6,5.7,17.4,14.5c0.8,8.8-5.7,16.6-14.5,17.4l-209.7,18.9C1029.8,3169.8,1029.3,3169.9,1028.8,3169.9z"/>
				</g>
				<g class="st2">
					<path class="st3" d="M1174.7,3273.7h-32.2c-37.8,0-72.1-22.2-87.5-56.7c-12.5-28-27.6-64.6-41.8-106
						c19.3,32.1,58.6,52.4,101.7,52.4h38.4c54.6-9.5,75.2-63,76-133.2C1247.8,3148.7,1242.7,3259.7,1174.7,3273.7z"/>
				</g>
				<g>
					<path class="st3" d="M1176.3,3289.7h-33.8c-44.1,0-84.2-26-102.1-66.2c-55.8-125-136.9-356.7-53.1-504.2
						c2.6-4.6,5.4-9.1,8.5-13.4l1-1.5l1.3-1.2c1.6-1.4,39.4-35.2,85.2-27.7c29.9,4.9,55.2,25.6,75.3,61.6
						c43.5,77.9,133.6,381,78.5,501.5c-12.9,28.2-32.8,45.3-59.2,50.8L1176.3,3289.7z M1020.9,2725.9c-2,3-3.9,6.1-5.7,9.2
						c-79.8,140.3,11.5,379.2,54.4,475.4c12.8,28.7,41.4,47.2,72.9,47.2h30.5c15.3-3.7,26.8-14.3,35.1-32.4
						c46.8-102.2-31.8-391.2-77.3-472.6c-15-26.9-32.7-42.3-52.4-45.6C1051.6,2702.6,1026.7,2721.2,1020.9,2725.9z"/>
				</g>
			</g>
			<g>
				<path class="st3" d="M1538.1,3258.6c-1.9,0-3.8-0.4-5.6-1.4c-5.9-3.1-8.1-10.3-5.1-16.2c56.8-108.6,57.7-230.7,2.5-363
					c-41.6-99.6-101.1-167.7-101.7-168.4c-4.4-5-3.9-12.6,1.1-16.9c5-4.4,12.5-3.9,16.9,1.1c2.5,2.9,62.4,71.3,105.5,174.3
					c57.5,137.4,56.5,270.2-3.1,384C1546.6,3256.2,1542.4,3258.6,1538.1,3258.6z"/>
			</g>
			<g>
				<path class="st3" d="M2467.4,3258.6c-4.3,0-8.5-2.3-10.6-6.4c-59.6-113.8-60.6-246.6-3.1-384c43.1-103,103-171.5,105.5-174.3
					c4.4-5,12-5.4,16.9-1.1c5,4.4,5.4,12,1.1,16.9c-0.6,0.7-60.1,68.8-101.6,168.4c-55.2,132.2-54.3,254.3,2.5,363
					c3.1,5.9,0.8,13.1-5.1,16.2C2471.2,3258.1,2469.3,3258.6,2467.4,3258.6z"/>
			</g>
		</g>
		<g>
			<g class="st2">
				<path class="st3" d="M2016,2632.5c4.9,7.5,9.7,14.9,14.3,22.2C2025.6,2647.4,2020.9,2639.9,2016,2632.5z"/>
			</g>
			<g>
				<path class="st4" d="M1738.9,2636.6c-72.7,29.4-185.3,23.3-262.1,14c-46-5.6-78.3-48-71.6-93.9v0c6.2-41.9,43-72.3,85.3-70.3
					c71.8,3.4,179.5,4.9,247.7-10.2"/>
			</g>
			<g class="st2">
				<path class="st3" d="M1738.9,2636.6c-72.8,29.5-185.3,23.3-262.1,14c-46-5.6-78.3-48.1-71.5-93.9c1.3-9.4,4.3-18.1,8.5-26.2
					c12.1,23.1,35.1,40.2,63.1,43.6c76.6,9.3,189,15.5,261.8-13.8L1738.9,2636.6z"/>
			</g>
			<g>
				<path class="st3" d="M1594.4,2674.3c-41.9,0-83.7-3.5-119.4-7.8c-26.5-3.2-50.1-16.7-66.3-38c-16.3-21.3-23.1-47.7-19.1-74.2
					c7.4-50.2,51.2-86.4,101.9-84c75,3.5,178.1,4.7,243.4-9.8c9.3-2.1,32.4-2,46.5,43.4c14.8,47.6,13.5,127.3-36.3,147.5l0,0
					C1702.7,2668.5,1648.4,2674.3,1594.4,2674.3z M1486.7,2502.3c-32.8,0-60.7,23.9-65.5,56.7c-2.7,17.9,1.9,35.7,12.9,50.1
					c10.9,14.3,26.8,23.4,44.7,25.6c78,9.4,185.5,14.9,254.1-12.9l0,0c19.7-8,23.5-40,24.2-53.4c2.1-39-10.3-70.6-17.1-76.2
					c-68.8,14.9-173.9,13.8-250.2,10.2C1488.8,2502.3,1487.7,2502.3,1486.7,2502.3z"/>
			</g>
			<g>
				<path class="st4" d="M2557.4,2650.6c-36,4.4-80,8-124,7.6c-3,0-6,0-9-0.1c-3.2,0-6.4-0.1-9.6-0.3c-2.2,0-4.3-0.1-6.3-0.2
					c-2.5-0.1-5-0.3-7.5-0.4c-3.2-0.2-6.3-0.4-9.5-0.6h-0.2c-3.1-0.2-6.3-0.5-9.4-0.8c-2.1-0.2-4.1-0.4-6.2-0.6
					c-1.7-0.1-3.5-0.4-5.2-0.6c-2.7-0.3-5.4-0.7-8-1.1c-2.5-0.4-5-0.7-7.4-1.1c-0.5,0-1-0.1-1.5-0.2c-2.9-0.4-5.7-0.9-8.5-1.5
					c-2.8-0.5-5.6-1.1-8.4-1.7c-0.2,0-0.5-0.1-0.7-0.1c-1.6-0.4-3.1-0.7-4.6-1.1c-1.7-0.4-3.4-0.8-5.1-1.2h0
					c-5.2-1.3-10.3-2.8-15.2-4.3c-2.7-0.8-5.3-1.7-7.9-2.7c-2.6-0.9-5.2-1.9-7.7-2.9l0.3-77l0.4-83.4c17.5,3.9,37.5,6.7,58.9,8.6
					c62.1,5.6,135.3,4.1,188.8,1.6c1.3,0,2.6-0.1,3.9-0.1c40.6,0,75.4,29.9,81.4,70.4C2635.7,2602.6,2603.4,2645,2557.4,2650.6z"/>
			</g>
			<g class="st2">
				<path class="st3" d="M2557.4,2650.6c-36,4.4-80,8-124,7.6c-3,0-6,0-9-0.1c-3.2,0-6.4-0.1-9.6-0.3c-2.2,0-4.3-0.1-6.3-0.2
					c-2.5-0.1-5-0.3-7.5-0.4c-3.2-0.2-6.3-0.4-9.5-0.6h-0.2c-3.1-0.2-6.3-0.5-9.4-0.8c-2.1-0.2-4.1-0.4-6.2-0.6
					c-1.7-0.1-3.5-0.4-5.2-0.6c-2.7-0.3-5.4-0.7-8-1.1c-2.5-0.4-5-0.7-7.4-1.1c-0.5,0-1-0.1-1.5-0.2c-2.9-0.4-5.7-0.9-8.5-1.5
					c-2.8-0.5-5.6-1.1-8.4-1.7c-0.2,0-0.5-0.1-0.7-0.1c-1.6-0.4-3.1-0.7-4.6-1.1c-1.7-0.4-3.4-0.8-5.1-1.2h0
					c-5.2-1.3-10.3-2.8-15.2-4.3c-2.7-0.8-5.3-1.7-7.9-2.7c-2.6-0.9-5.2-1.9-7.7-2.9l0.3-77l0-5.6c2.3,1,4.8,1.9,7.3,2.8
					c2.6,0.9,5.3,1.8,7.9,2.7c5,1.6,10.1,3,15.2,4.3h0c1.7,0.5,3.4,0.9,5.1,1.2c1.5,0.4,3.1,0.7,4.6,1.1l0.7,0.1
					c2.8,0.6,5.6,1.1,8.4,1.7c2.8,0.6,5.6,1.1,8.5,1.5c0.5,0.1,1,0.2,1.5,0.2c2.4,0.4,4.9,0.8,7.4,1.1c2.6,0.4,5.3,0.7,8,1.1
					c1.7,0.2,3.4,0.4,5.2,0.6c2,0.2,4.1,0.5,6.2,0.6c3.1,0.3,6.3,0.6,9.4,0.8h0.2c3.1,0.2,6.3,0.5,9.5,0.6c2.5,0.1,5,0.3,7.5,0.4
					c2.1,0.1,4.2,0.2,6.3,0.2c3.2,0.1,6.4,0.2,9.6,0.3c3,0.1,6,0.1,9,0.1c44,0.4,87.9-3.3,124-7.6c26.7-3.2,48.9-18.9,61.4-40.5
					c5.1,8.8,8.6,18.7,10.2,29.3C2635.7,2602.6,2603.4,2645,2557.4,2650.6z"/>
			</g>
			<g>
				<path class="st3" d="M2439.9,2674.3c-54,0-108.3-5.8-150.6-22.8c-49.8-20.2-51.1-99.9-36.3-147.5c14.1-45.3,37.2-45.4,46.5-43.4
					c65.3,14.5,168.4,13.3,243.4,9.8c50.6-2.4,94.4,33.7,101.9,84c3.9,26.5-2.9,52.9-19.1,74.2c-16.2,21.3-39.8,34.8-66.3,38
					C2523.6,2670.8,2481.8,2674.3,2439.9,2674.3z M2294.2,2492.2c-6.8,5.6-19.2,37.3-17.1,76.3c0.7,13.4,4.6,45.4,24.2,53.3l0,0
					c68.7,27.8,176.1,22.4,254.1,12.9c17.9-2.2,33.8-11.3,44.7-25.6c11-14.4,15.6-32.2,12.9-50.1c-5-33.9-34.5-58.2-68.7-56.7
					C2468.1,2505.9,2363,2507,2294.2,2492.2z"/>
			</g>
			<g>
				<path class="st4" d="M2323.4,2423.2v257.1c0,47.7-39,86.7-86.7,86.7h-473.5c-47.6,0-86.7-39-86.7-86.7v-257.1
					c0-47.7,39-86.7,86.7-86.7h473.5c28.1,0,53.1,13.5,69,34.4C2316.8,2385.4,2323.4,2403.5,2323.4,2423.2z"/>
			</g>
			<g class="st2">
				<path class="st3" d="M2323.4,2423.2v257.1c0,47.7-39,86.7-86.8,86.7h-473.5c-47.7,0-86.7-39-86.7-86.7v-96.2
					c50.7,98.6,223.1,137.4,364.8,123c31.7-3.2,54.3-33.3,46.8-64.2c-2.3-9.2-3.5-19-3.5-29.1c0-56.1,37.2-101.5,83-101.5
					c44.3,0,80.6,42.5,82.9,96.1c56.8-74.3,59.9-173.6,55.1-237.4C2316.8,2385.4,2323.4,2403.6,2323.4,2423.2z"/>
			</g>
			<g>
				<path class="st3" d="M2236.7,2783h-473.5c-56.6,0-102.7-46.1-102.7-102.7v-257.1c0-56.6,46.1-102.7,102.7-102.7h473.5
					c56.6,0,102.7,46.1,102.7,102.7v257.1C2339.4,2736.9,2293.4,2783,2236.7,2783z M1763.3,2352.5c-39,0-70.7,31.7-70.7,70.7v257.1
					c0,39,31.7,70.7,70.7,70.7h473.5c39,0,70.7-31.7,70.7-70.7v-257.1c0-39-31.7-70.7-70.7-70.7H1763.3z"/>
			</g>
			<g>
				
					<ellipse transform="matrix(0.7071 -0.7071 0.7071 0.7071 -1169.427 2280.1907)" class="st7" cx="2167.7" cy="2551.7" rx="74.8" ry="74.8"/>
			</g>
			<g>
				<path class="st4" d="M2242.5,2551.7c0,4.1-0.3,8-1,11.9c-5.7-35.6-36.6-62.9-73.8-62.9c-37.2,0-68.1,27.2-73.8,62.9
					c-0.7-3.9-1-7.9-1-11.9c0-41.3,33.5-74.8,74.8-74.8C2209,2477,2242.5,2510.4,2242.5,2551.7z"/>
			</g>
			<g class="st2">
				<path class="st3" d="M2242.5,2551.7c0,41.3-33.5,74.8-74.8,74.8c-41.3,0-74.8-33.5-74.8-74.8c0-9.6,1.8-18.7,5.1-27.1
					c10.8,27.9,37.9,47.6,69.6,47.6c31.7,0,58.9-19.7,69.6-47.6C2240.7,2533,2242.5,2542.2,2242.5,2551.7z"/>
			</g>
			<g>
				<path class="st3" d="M2167.7,2638.5c-47.8,0-86.8-38.9-86.8-86.8c0-47.8,38.9-86.8,86.8-86.8s86.8,38.9,86.8,86.8
					C2254.5,2599.6,2215.6,2638.5,2167.7,2638.5z M2167.7,2489c-34.6,0-62.8,28.2-62.8,62.8s28.2,62.8,62.8,62.8
					s62.8-28.2,62.8-62.8S2202.3,2489,2167.7,2489z"/>
			</g>
			<g>
				<path class="st3" d="M1955.8,2779c-6.6,0-12-5.4-12-12v-177.3l-89.9-67.7c-3-2.3-4.8-5.8-4.8-9.6v-175.9c0-6.6,5.4-12,12-12
					s12,5.4,12,12v169.9l89.9,67.7c3,2.3,4.8,5.8,4.8,9.6V2767C1967.8,2773.6,1962.5,2779,1955.8,2779z"/>
			</g>
		</g>
		<g>
			<g>
				<path class="st4" d="M2662.6,1616.1L2662.6,1616.1c-7.7,0.6-14.4-5.2-15-12.9l-30-402.2c-0.6-7.7,5.2-14.4,12.9-15h0
					c80.9-6,151.4,54.6,157.4,135.5l10.2,137.1C2804.2,1539.6,2743.5,1610.1,2662.6,1616.1z"/>
				<path class="st3" d="M2661.6,1619c-4,0-7.9-1.4-11-4.1c-3.4-2.9-5.5-7-5.8-11.5l-30-402.2c-0.7-9.3,6.3-17.4,15.6-18.1
					c39.9-3,78.6,9.8,108.9,35.9c30.3,26.1,48.7,62.4,51.6,102.3l10.2,137.1c3,39.9-9.8,78.6-35.9,108.9
					c-26.1,30.3-62.4,48.7-102.3,51.6C2662.4,1619,2662,1619,2661.6,1619z M2641.7,1188.5c-3.6,0-7.3,0.1-11,0.4
					c-6.1,0.5-10.7,5.8-10.3,11.9l30,402.2c0.2,3,1.6,5.7,3.8,7.6c2.2,1.9,5.1,2.9,8.1,2.7l0,0c38.4-2.9,73.3-20.5,98.4-49.7
					c25.1-29.2,37.3-66.3,34.5-104.7l-10.2-137.1c-2.9-38.4-20.5-73.3-49.6-98.4C2709.1,1200.6,2676.1,1188.5,2641.7,1188.5z"/>
			</g>
			<g class="st2">
				<path class="st3" d="M2793.4,1394.4l4.8,64.3c6,80.9-54.6,151.4-135.6,157.4c-7.7,0.6-14.4-5.2-15-12.9l-8-106.9
					c2.5,4.7,7.7,7.7,13.3,7.3l9.5-0.7C2726.4,1498.1,2777.7,1453.1,2793.4,1394.4z"/>
			</g>
			<g>
				<path class="st3" d="M2661.6,1632.2c-7.2,0-14-2.5-19.5-7.3c-6.1-5.2-9.7-12.5-10.3-20.5l-30-402.2
					c-1.2-16.5,11.2-30.9,27.7-32.2c43.4-3.2,85.4,10.6,118.4,39c33,28.4,52.9,67.9,56.2,111.3l10.2,137.1
					c3.2,43.4-10.6,85.4-39,118.4c-28.4,33-67.9,52.9-111.3,56.2l0,0C2663.1,1632.1,2662.3,1632.2,2661.6,1632.2z M2633.7,1201.8
					l29.7,398.2c34.1-3.1,65.1-19,87.5-45c22.8-26.5,33.9-60.3,31.3-95.2l-10.2-137.1c-2.6-34.9-18.6-66.6-45.1-89.4
					C2700.9,1210.9,2667.8,1199.8,2633.7,1201.8z"/>
			</g>
			<g>
				<path class="st4" d="M1303,1285.2L1303,1285.2c7.7-0.6,14.4,5.2,15,12.9l30,402.2c0.6,7.7-5.2,14.4-12.9,15h0
					c-80.9,6-151.4-54.6-157.4-135.5l-10.2-137.1C1161.4,1361.7,1222.1,1291.2,1303,1285.2z"/>
				<path class="st3" d="M1324.1,1718.6c-77.6,0-143.4-60-149.2-138.6l-10.2-137.1c-6.1-82.4,55.8-154.4,138.2-160.5
					c9.2-0.7,17.4,6.3,18.1,15.6l30,402.2c0.3,4.5-1.1,8.9-4,12.3c-2.9,3.4-7,5.5-11.5,5.8
					C1331.5,1718.4,1327.8,1718.6,1324.1,1718.6z M1303.2,1288c-79.2,5.9-138.8,75.2-132.9,154.3l10.2,137.1
					c5.9,79.2,75.2,138.8,154.3,132.9c3-0.2,5.7-1.6,7.6-3.8c1.9-2.3,2.9-5.1,2.7-8.1l-30-402.2
					C1314.7,1292.2,1309.3,1287.6,1303.2,1288L1303.2,1288z"/>
			</g>
			<g class="st2">
				<path class="st3" d="M1339.7,1588.7l8.3,111.6c0.6,7.7-5.2,14.4-12.9,15c-42.5,3.2-82.1-12-111-38.9
					c-26.1-24.3-43.5-58.2-46.4-96.6l-4.3-57.8c26.8,49,80.6,80.5,139.9,76.1l14.7-1.1C1333.3,1596.5,1337.6,1593.2,1339.7,1588.7z"
					/>
			</g>
			<g>
				<path class="st3" d="M1324,1731.7c-84.4,0-155.9-65.3-162.3-150.8l-10.2-137.1c-6.7-89.6,60.7-167.9,150.3-174.6l0,0
					c16.4-1.3,30.9,11.2,32.2,27.7l30,402.2c0.6,8-2,15.7-7.2,21.8c-5.2,6.1-12.5,9.7-20.5,10.3
					C1332.2,1731.5,1328.1,1731.7,1324,1731.7z M1302.2,1301.3c-71,6.4-124.1,68.8-118.8,140.1l10.2,137.1
					c5.3,71.3,67.1,125.2,138.3,120.9L1302.2,1301.3z"/>
			</g>
			<g>
				<circle class="st4" cx="1982.9" cy="1450.6" r="687.3"/>
				<path class="st3" d="M1982.8,2140.8c-379.4,0-688.8-308-690.1-687.7c-1.4-380.5,307.1-691.3,687.7-692.6c0.8,0,1.7,0,2.5,0
					c379.4,0,688.7,308,690.1,687.7c1.4,380.5-307.1,691.3-687.7,692.6C1984.5,2140.8,1983.7,2140.8,1982.8,2140.8z M1982.9,766.2
					c-0.8,0-1.7,0-2.5,0c-377.4,1.3-683.3,309.5-682,686.8c1.3,376.6,308.1,682,684.4,682c0.8,0,1.7,0,2.5,0
					c377.4-1.3,683.3-309.5,682-686.8C2665.9,1071.6,2359.2,766.2,1982.9,766.2z"/>
			</g>
			<g class="st2">
				<path class="st3" d="M2663.2,1353.1c4.5,31.1,6.8,62.8,6.9,95.1c1.3,379.6-305.3,688.4-684.8,689.7
					c-379.6,1.3-688.4-305.3-689.7-684.8c0-10.9,0.2-21.8,0.7-32.6c47.5,334.4,335.5,590.9,682.8,589.7
					C2347.7,2008.9,2647.4,1717.6,2663.2,1353.1z"/>
			</g>
			<g>
				<path class="st3" d="M1982.8,2153.9c-386.7,0-701.8-313.8-703.2-700.8c-1.4-387.8,313-704.4,700.8-705.8c0.8,0,1.7,0,2.6,0
					c386.7,0,701.8,313.8,703.2,700.8l0,0c1.4,387.8-313,704.4-700.8,705.8C1984.6,2153.9,1983.7,2153.9,1982.8,2153.9z
					 M1982.9,779.4c-0.8,0-1.6,0-2.4,0c-370.1,1.3-670.2,303.5-668.9,673.7c1.3,369.3,302.2,668.9,671.2,668.9c0.8,0,1.6,0,2.4,0
					c370.1-1.3,670.2-303.5,668.9-673.7l0,0C2652.8,1078.9,2352,779.4,1982.9,779.4z"/>
			</g>
			<g>
				<path class="st3" d="M2668,1465.8c2.5,134.5-38.8,260.1-111.5,364.8c-54.5,78.5-282.1,218.3-566.1,226.2
					c-263.4,7.3-505.7-128.7-563.1-205.1c-76.6-101.9-122.6-225.9-125.1-360.4c-6.6-355.8,296.3-509.1,673.5-516.1
					C2352.9,968.2,2661.4,1110,2668,1465.8z"/>
			</g>
			<g>
				<path class="st3" d="M1969.5,2073.1c-263.6,0-496.5-133.9-555-211.7c-81.4-108.3-125.8-236.2-128.3-369.7
					c-3.2-173.9,64-309.3,199.8-402.3c118.6-81.3,287.9-126.3,489.4-130.1c201.5-3.8,372.3,34.9,493.9,111.7
					c139.2,88,211.4,220.7,214.6,394.6v0c2.5,133.5-37.1,262.9-114.4,374.2c-53.6,77.2-278.4,224.7-578.8,233
					C1983.7,2073,1976.6,2073.1,1969.5,2073.1z M2000,991c-8.3,0-16.3,0.1-23.9,0.2c-200.5,3.7-666,59.9-657.8,499.8
					c2.4,126.7,44.5,248.1,121.9,351.1c53.5,71.2,280,199,529.8,199c6.7,0,13.3-0.1,20-0.3c285.4-7.9,504.6-149,553.4-219.3
					c73.5-105.7,111-228.6,108.7-355.4v0C2644.1,1043,2211.4,991,2000,991z"/>
			</g>
			<g class="st6">
				
					<ellipse transform="matrix(0.1599 -0.9871 0.9871 0.1599 650.8644 3608.0703)" class="st4" cx="2445.2" cy="1421.6" rx="121.6" ry="88.1"/>
			</g>
			<g class="st6">
				
					<ellipse transform="matrix(0.2948 -0.9556 0.9556 0.2948 60.8942 3411.6179)" class="st4" cx="2341.7" cy="1664.6" rx="55.8" ry="47.9"/>
			</g>
			<g class="st2">
				<path class="st8" d="M2529,1136.4c85,78.1,136.3,186.5,139,329.5c2.5,134.5-38.8,260.1-111.5,364.8
					c-54.5,78.5-282.1,218.3-566.1,226.2c-100.3,2.8-197.5-15.2-282.6-42.8c348.9-17.1,626.1-188.7,693.7-286
					c92.3-132.9,144.7-292.4,141.5-463C2542.2,1219.4,2537.3,1176.5,2529,1136.4z"/>
			</g>
			<g>
				<path class="st3" d="M1348,1202.9c-3.6,0-7.1-1.2-10.1-3.6c-6.5-5.4-7.8-14.8-2.9-21.6c117-178.9,348.5-284.5,635.3-289.9
					c285-5.3,520.4,88.4,645.7,257.2c4.5,5.8,4.6,14.1-0.2,20c-5.6,6.8-15.5,7.9-22.3,2.4l-1.6-1.3l-1.3-1.7
					c-119.1-160.5-345-249.6-619.7-244.5c-276.3,5.2-498.4,105.7-609.4,275.8l-1.2,1.6C1357.2,1200.9,1352.6,1202.9,1348,1202.9z"/>
			</g>
			<g class="st6">
				<path class="st4" d="M1459.6,1700.2c0,0-116.8-349,69.8-492.4s458.8-147.9,452.7-130.4c0,0-300,78.6-413.4,319
					C1481.2,1581.8,1459.6,1700.2,1459.6,1700.2z"/>
			</g>
		</g>
		<g class="st9">
			<path class="st10" d="M2094.1,3097.6c-0.6,0.4-1.1,0.7-1.7,1h-185.3c-0.6-0.3-1.1-0.7-1.7-1H2094.1z"/>
		</g>
		<g>
			<path class="st11" d="M2812,2408.5c0,11.7-0.6,23.4-1.8,35.1c-14.7,143.8-117.1,287.2-245.2,413.4
				c-207.8,204.7-482.9,364.2-559.3,406.6c-12.7,7.1-28.1,7.2-40.9,0.2c-90-48.8-453.7-255.4-660.6-513
				c-86.6-107.8-145.8-224.6-145.8-342.4c0-31,3.4-61.3,9.8-90.5c43.8-199.9,229.6-350.1,452.2-350.1
				c148.4,0,280.4,66.7,364.9,170.4c84.5-103.7,216.5-170.4,364.8-170.4C2605.2,1967.9,2812,2165.1,2812,2408.5z"/>
		</g>
		<g class="st2">
			<path class="st3" d="M2810.4,2408.5c0,58.2-14.4,116.1-39.5,172.8c-26.4,58-64.2,115.1-109.1,170c-29.6,36.3-62.4,71.6-97,105.7
				c-207.8,204.7-483,364.2-559.4,406.6c-12.7,7.1-28.1,7.2-40.9,0.2c-90-48.8-453.7-255.4-660.6-513c-2.7-3.4-5.4-6.8-8-10.1
				c-2.6-3.4-5.3-6.8-7.9-10.2c-3.2-4.2-6.4-8.5-9.6-12.8c-20.5-27.8-39-56.2-55-84.9c-1.2-2.2-2.4-4.4-3.6-6.6
				c-1.7-3.1-3.3-6.2-5-9.3c-9.7-18.6-18.4-37.4-25.8-56.4c-1.2-3.2-2.4-6.3-3.6-9.5c-1.3-3.6-2.6-7.2-3.9-10.8
				c-0.6-1.8-1.2-3.6-1.8-5.4c-0.8-2.3-1.5-4.5-2.2-6.8c-2.1-6.8-4.1-13.6-5.9-20.4c-1-3.6-1.8-7.3-2.7-11c-1.3-5.5-2.5-11-3.6-16.4
				c-0.7-3.6-1.4-7.3-2-11c-0.3-1.8-0.6-3.7-0.9-5.5c-0.5-3.7-1-7.3-1.5-11c-0.2-1.8-0.4-3.7-0.6-5.5c-0.2-1.4-0.3-2.8-0.4-4.2
				c-0.1-1-0.2-1.9-0.2-2.9c-0.3-3.2-0.5-6.3-0.7-9.4c-0.2-3.7-0.4-7.4-0.5-11c0-1.8-0.1-3.7-0.1-5.5c0-0.9,0-1.8,0-2.8v-2.8
				c0-15.5,0.8-30.8,2.5-46c0.4-3.7,0.8-7.3,1.4-11c0-0.2,0-0.3,0.1-0.5c0.5-3.7,1-7.3,1.6-11c0-0.2,0.1-0.5,0.1-0.8
				c1.2-7.2,2.6-14.3,4.1-21.3c89.2,23,176.3,42.5,206,50.8c93,26.1,167.8,50.1,155.3,227.2c-4.3,60.7-43.7,108.7-96.6,135.1
				c15.4,14,31,27.7,46.9,41.3c295.9,252.7,735.5,245.6,1022.7-16.9c9.7-8.9,19.4-17.8,28.9-26.8c-50.5-26.8-87.8-73.8-91.9-132.7
				c-12.5-177.1,62.3-201.2,155.3-227.2c29.7-8.3,116.8-27.9,206-50.8c1.8,8,3.3,16.2,4.6,24.4
				C2808.7,2363.9,2810.4,2386,2810.4,2408.5z"/>
		</g>
		<g class="st2">
			<path class="st3" d="M1160.8,2362.5c-1.6,15.1-2.5,30.4-2.5,46v2.8c0-0.9,0-1.8,0-2.8C1158.3,2393,1159.1,2377.6,1160.8,2362.5z"
				/>
		</g>
		<g class="st2">
			<path class="st3" d="M1168.9,2496.5c-1.4-5.5-2.5-11-3.6-16.4C1166.4,2485.6,1167.6,2491,1168.9,2496.5z"/>
		</g>
		<g class="st2">
			<path class="st3" d="M1177.6,2527.9c-2.2-6.8-4.2-13.6-5.9-20.4C1173.5,2514.3,1175.4,2521.1,1177.6,2527.9z"/>
		</g>
		<g class="st2">
			<path class="st3" d="M1214.9,2616.9c-9.8-18.6-18.4-37.4-25.8-56.4C1196.5,2579.4,1205.2,2598.2,1214.9,2616.9z"/>
		</g>
		<g class="st2">
			<path class="st3" d="M1278.6,2717.8c-20.5-27.8-39-56.2-55-84.9C1239.6,2661.6,1258.1,2689.9,1278.6,2717.8z"/>
		</g>
		<g class="st2">
			<path class="st3" d="M2812,2408.5c0,11.7-0.6,23.4-1.8,35.1c-4.7,46.1-18.4,92.2-39.2,137.7c25.1-56.7,39.5-114.6,39.5-172.8
				c0-22.5-1.8-44.6-5.2-66.1c0.3-1.3,0.6-2.6,0.9-3.9C2810,2361.2,2812,2384.6,2812,2408.5z"/>
		</g>
		<g class="st12">
			<g>
				<path class="st4" d="M2812,2408.5c0,10.4-0.5,20.8-1.5,31.2c-18.9-226.8-217.8-405.1-460.5-405.1c-132,0-251,52.8-335.2,137.5
					c-5.4,5.5,30.9,46.7,29.7,54.3c-7.9,50.2-51.2-10-59.3-21.4c-84.5-103.7-216.5-170.4-364.9-170.4
					c-242.8,0-441.9,178.7-460.5,405.7c-1-10.6-1.4-21.2-1.4-31.8c0-243.4,206.9-440.6,462-440.6c148.4,0,280.4,66.7,364.9,170.4
					c84.5-103.7,216.5-170.4,364.9-170.4C2605.2,1967.9,2812,2165.1,2812,2408.5z"/>
			</g>
		</g>
		<g>
			<path class="st3" d="M1984.9,3285.1c-9.6,0-19.2-2.4-27.9-7.1c-136-73.8-814.7-462.6-814.7-869.5c0-251.8,214.4-456.6,478-456.6
				c141.9,0,273.8,58.7,364.9,161.7c91.1-103,223-161.7,364.8-161.7c263.6,0,478,204.8,478,456.6c0,396.4-678.6,793.6-814.6,869.2
				C2004.5,3282.6,1994.7,3285.1,1984.9,3285.1z M1620.3,1983.9c-245.9,0-446,190.5-446,424.6c0,388.8,664.7,769.1,798,841.4
				c8,4.4,17.6,4.3,25.6-0.1c58.2-32.3,262.4-150,448.4-306.6c232.1-195.4,349.8-375.3,349.8-534.7c0-234.1-200.1-424.6-446-424.6
				c-138.8,0-267.2,59.9-352.4,164.5l-12.4,15.2l-12.4-15.2C1887.6,2043.8,1759.1,1983.9,1620.3,1983.9z"/>
		</g>
		<g>
			<path class="st3" d="M2035,2228c-5.4,0-10.6-2.7-13.6-7.6c-22.1-35.9-48.9-72.4-49.1-72.7c-5.2-7.1-3.7-17.1,3.4-22.4
				c7.1-5.2,17.1-3.7,22.4,3.4c1.1,1.5,27.8,37.8,50.6,74.9c4.6,7.5,2.3,17.4-5.2,22C2040.8,2227.3,2037.9,2228,2035,2228z"/>
		</g>
		<g class="st12">
			<g>
				<path class="st4" d="M2192.7,2130.8c70.7-68.4,277.6-79.5,370.3,13.8c79.3,79.8-55.8,67-162.7,60.8
					C2307.6,2200.1,2122,2199.2,2192.7,2130.8z"/>
			</g>
		</g>
		<g>
			<path class="st4" d="M1438.9,2002.6c0,0-367.3,162.3-313.1,479.3c51.7,302.2,390.5,235.2,403.6,50.4
				c12.5-177.1-62.3-201.2-155.3-227.2c-68.9-19.3-98-75.2-91.2-117.3C1296.7,2102.2,1438.9,2002.6,1438.9,2002.6z"/>
		</g>
		<g class="st2">
			<path class="st3" d="M1529.4,2532.2c-13,184.8-351.9,251.8-403.6-50.4c-6.9-40.2-7-78-1.9-113.2c0.6,4,1.2,8.1,1.9,12.2
				c50.2,293.6,371.6,238.7,401.7,65.8C1531,2470.3,1531.8,2498.5,1529.4,2532.2z"/>
		</g>
		<g class="st2">
			<path class="st3" d="M2771,2581.3c-25.6,58.2-62.4,115-106.3,169.6c-0.9,0.2-1.8,0.3-2.8,0.4
				C2706.8,2696.4,2744.6,2639.3,2771,2581.3z"/>
		</g>
		<g>
			<path class="st4" d="M2529.8,2002.6c0,0,367.3,162.3,313.1,479.3c-51.7,302.2-390.5,235.2-403.6,50.4
				c-12.5-177.1,62.3-201.2,155.3-227.2c68.9-19.3,98-75.2,91.2-117.3C2672,2102.2,2529.8,2002.6,2529.8,2002.6z"/>
		</g>
		<g class="st2">
			<path class="st3" d="M2439.3,2532.2c13,184.8,351.9,251.8,403.6-50.4c6.9-40.2,7-78,1.9-113.2c-0.6,4-1.2,8.1-1.9,12.2
				c-50.2,293.6-371.6,238.7-401.7,65.8C2437.7,2470.3,2436.9,2498.5,2439.3,2532.2z"/>
		</g>
		<g>
			<path class="st3" d="M1337.3,2705.7c-93.7,0-199.3-57.6-227.3-221.2c-23.1-135.1,25.6-264.1,141-372.9
				c86.1-81.1,177.5-122.1,181.4-123.8c7.5-3.3,16.4-0.4,20.4,6.8c4,7.2,2,16.2-4.8,21c-1.4,1-136.8,96.7-149.4,174.5
				c-5.8,35.7,20.2,82.7,79.7,99.4c88.8,24.9,180.6,50.6,166.9,243.8c-6.6,92.9-91.1,166.9-196.7,172.1
				C1344.9,2705.6,1341.1,2705.7,1337.3,2705.7z M1304.9,2106.9c-10.8,8.9-21.8,18.5-32.6,28.7c-108.3,102.4-152.3,218-130.8,343.6
				c25.6,149.5,122.9,198.5,205.5,194.3c76.1-3.8,160.2-54.9,166.4-142.4c11.8-167.1-56.8-186.3-143.7-210.7
				c-77.4-21.7-110.7-85.9-102.7-135.3C1271.3,2159,1286,2132.1,1304.9,2106.9z"/>
		</g>
		<g>
			<path class="st3" d="M2631.4,2705.7c-3.8,0-7.5-0.1-11.3-0.3c-105.6-5.2-190.2-79.2-196.7-172.1
				c-13.6-193.1,78.2-218.9,166.9-243.8c59.5-16.7,85.5-63.7,79.7-99.4c-12.6-77.8-148-173.6-149.4-174.5c-6.7-4.7-8.8-13.8-4.8-21
				c4-7.2,12.9-10.1,20.4-6.8c3.9,1.7,95.3,42.6,181.4,123.8c115.4,108.8,164.1,237.7,141,372.9
				C2830.7,2648.1,2725,2705.7,2631.4,2705.7z M2663.8,2106.9c18.9,25.2,33.6,52.1,37.8,78.2c8,49.4-25.3,113.6-102.7,135.3
				c-86.9,24.4-155.5,43.6-143.7,210.7c6.2,87.4,90.3,138.6,166.4,142.4c82.6,4.2,179.9-44.8,205.5-194.3
				c21.5-125.6-22.5-241.2-130.8-343.6C2685.6,2125.4,2674.6,2115.8,2663.8,2106.9z"/>
		</g>
		<g>
			<path class="st3" d="M2833.6,2330c-4.3,0-8.5-2.4-10.7-6.5c-47.8-92.1-141.4-129.1-142.3-129.5c-6.2-2.4-9.3-9.3-6.9-15.5
				c2.4-6.2,9.3-9.3,15.5-6.9c4.2,1.6,102.8,40.4,155,140.8c3.1,5.9,0.8,13.1-5.1,16.2C2837.3,2329.5,2835.4,2330,2833.6,2330z"/>
		</g>
		<g>
			<path class="st3" d="M1134.5,2330c-1.9,0-3.8-0.4-5.5-1.4c-5.9-3.1-8.2-10.3-5.1-16.2c52.2-100.4,150.8-139.2,155-140.8
				c6.2-2.4,13.1,0.7,15.5,6.9c2.4,6.2-0.7,13.1-6.9,15.5l0,0c-0.9,0.4-94.5,37.4-142.3,129.5C1143,2327.6,1138.9,2330,1134.5,2330z
				"/>
		</g>
	</g>
</g>
</svg>
